<svg width="18" height="18" viewBox="0 0 18 18" fill="none" xmlns="http://www.w3.org/2000/svg">
<path d="M14.25 0H3.75C1.68225 0 0 1.68225 0 3.75V4.5C0 6.56775 1.68225 8.25 3.75 8.25H14.25C16.3177 8.25 18 6.56775 18 4.5V3.75C18 1.68225 16.3177 0 14.25 0ZM16.5 4.5C16.5 5.7405 15.4905 6.75 14.25 6.75H3.75C2.5095 6.75 1.5 5.7405 1.5 4.5V3.75C1.5 2.5095 2.5095 1.5 3.75 1.5H14.25C15.4905 1.5 16.5 2.5095 16.5 3.75V4.5ZM15 4.5C15 4.914 14.6648 5.25 14.25 5.25H3.75C3.33525 5.25 3 4.914 3 4.5C3 4.086 3.33525 3.75 3.75 3.75H14.25C14.6648 3.75 15 4.086 15 4.5ZM9.75 10.5V17.25C9.75 17.664 9.41475 18 9 18C8.58525 18 8.25 17.664 8.25 17.25V10.5C8.25 10.086 8.58525 9.75 9 9.75C9.41475 9.75 9.75 10.086 9.75 10.5ZM6.75 10.5V15C6.75 16.6545 5.4045 18 3.75 18C2.0955 18 0.75 16.6545 0.75 15C0.75 13.6958 1.59075 12.4522 2.75025 12.0427C3.141 11.9047 3.56925 12.1102 3.70725 12.5002C3.84525 12.891 3.63975 13.3193 3.24975 13.4573C2.6895 13.6553 2.25 14.3325 2.25 15C2.25 15.8273 2.92275 16.5 3.75 16.5C4.57725 16.5 5.25 15.8273 5.25 15V10.5C5.25 10.086 5.58525 9.75 6 9.75C6.41475 9.75 6.75 10.086 6.75 10.5ZM17.25 15C17.25 16.6545 15.9045 18 14.25 18C12.5955 18 11.25 16.6545 11.25 15V10.5C11.25 10.086 11.5852 9.75 12 9.75C12.4148 9.75 12.75 10.086 12.75 10.5V15C12.75 15.8273 13.4227 16.5 14.25 16.5C15.0773 16.5 15.75 15.8273 15.75 15C15.75 14.3325 15.3105 13.6553 14.7502 13.4573C14.3595 13.3193 14.1547 12.891 14.2927 12.5002C14.4315 12.1095 14.859 11.9047 15.2498 12.0427C16.4093 12.4522 17.25 13.6958 17.25 15Z" fill="#AF7E3C"/>
</svg>
