<svg width="18" height="19" viewBox="0 0 18 19" fill="none" xmlns="http://www.w3.org/2000/svg">
<g clip-path="url(#clip0_1794_2659)">
<path d="M17.4368 10.1614C17.01 9.67768 16.395 9.40018 15.75 9.40018H1.5V3.76168C1.5 3.13093 1.785 2.50693 2.31975 2.17168C3.1365 1.65943 4.134 1.91143 4.65 2.59993L4.84425 2.85868L4.482 4.93693C4.4385 5.18743 4.49025 5.44543 4.6275 5.65918C4.94625 6.15568 5.61975 6.27718 6.0915 5.92318L8.796 3.89518C9.22125 3.57643 9.3285 2.98243 9.04125 2.53468L9.0315 2.51893C8.85375 2.24143 8.5515 2.06743 8.22225 2.05243L6.04275 1.95568L5.91225 1.78168C5.41875 1.12393 4.7175 0.625182 3.9105 0.465432C1.83 0.0536817 0 1.64218 0 3.64993C0 3.64993 0.003 7.93243 0.0045 9.59218C0.0045 10.0242 0.03225 10.4509 0.0855 10.8799C0.16125 11.4867 0.26325 12.3049 0.26325 12.3049C0.4515 13.8087 1.1805 15.1302 2.2395 16.0827L1.89675 17.4702C1.797 17.8722 2.04225 18.2787 2.44425 18.3784C2.505 18.3934 2.565 18.4002 2.625 18.4002C2.96175 18.4002 3.26775 18.1714 3.3525 17.8302L3.56025 16.9894C4.392 17.4124 5.33025 17.6502 6.31725 17.6502H11.88C12.7973 17.6502 13.6725 17.4454 14.46 17.0764L14.6468 17.8302C14.7308 18.1714 15.0375 18.4002 15.3743 18.4002C15.4343 18.4002 15.4943 18.3927 15.555 18.3784C15.957 18.2787 16.2023 17.8722 16.1025 17.4702L15.795 16.2252C16.9425 15.2637 17.7383 13.8852 17.9355 12.3057L17.982 11.9299C18.0615 11.2894 17.8635 10.6459 17.436 10.1622L17.4368 10.1614ZM16.494 11.7432L16.4475 12.1189C16.1603 14.4169 14.1968 16.1502 11.8808 16.1502H6.318C4.002 16.1502 2.03925 14.4169 1.752 12.1189L1.59975 10.9002H15.75C15.9683 10.9002 16.1685 10.9902 16.3125 11.1537C16.4565 11.3179 16.521 11.5264 16.494 11.7432Z" fill="#AF7E3C"/>
</g>
<defs>
<clipPath id="clip0_1794_2659">
<rect width="18" height="18" fill="white" transform="translate(0 0.400024)"/>
</clipPath>
</defs>
</svg>
