<svg width="24" height="25" viewBox="0 0 24 25" fill="none" xmlns="http://www.w3.org/2000/svg">
<g clip-path="url(#clip0_73_3428)">
<path d="M17 10.439C13.141 10.439 10 13.579 10 17.439C10 21.277 13.141 24.4 17 24.4C20.859 24.4 24 21.26 24 17.4C24 13.562 20.859 10.439 17 10.439ZM17 22.4C14.243 22.4 12 20.174 12 17.439C12 14.682 14.243 12.439 17 12.439C19.757 12.439 22 14.665 22 17.4C22 20.157 19.757 22.4 17 22.4ZM18.707 17.693C19.098 18.084 19.098 18.716 18.707 19.107C18.512 19.302 18.256 19.4 18 19.4C17.744 19.4 17.488 19.302 17.293 19.107L16.293 18.107C16.105 17.919 16 17.665 16 17.4V15.4C16 14.848 16.447 14.4 17 14.4C17.553 14.4 18 14.848 18 15.4V16.986L18.707 17.693ZM24 7.40002V9.40002C24 9.95202 23.553 10.4 23 10.4C22.447 10.4 22 9.95202 22 9.40002V7.40002C22 5.74602 20.654 4.40002 19 4.40002H5C3.346 4.40002 2 5.74602 2 7.40002V8.40002H11C11.552 8.40002 12 8.84802 12 9.40002C12 9.95202 11.552 10.4 11 10.4H2V19.4C2 21.054 3.346 22.4 5 22.4H9C9.552 22.4 10 22.848 10 23.4C10 23.952 9.552 24.4 9 24.4H5C2.243 24.4 0 22.157 0 19.4V7.40002C0 4.64302 2.243 2.40002 5 2.40002H6V1.40002C6 0.848024 6.448 0.400024 7 0.400024C7.552 0.400024 8 0.848024 8 1.40002V2.40002H16V1.40002C16 0.848024 16.447 0.400024 17 0.400024C17.553 0.400024 18 0.848024 18 1.40002V2.40002H19C21.757 2.40002 24 4.64302 24 7.40002Z" fill="#AF7E3C"/>
</g>
<defs>
<clipPath id="clip0_73_3428">
<rect width="24" height="24" fill="white" transform="translate(0 0.400024)"/>
</clipPath>
</defs>
</svg>
