<svg width="18" height="18" viewBox="0 0 18 18" fill="none" xmlns="http://www.w3.org/2000/svg">
<g clip-path="url(#clip0_6774_12999)">
<path d="M9.0105 17.9998H4.5C3.30689 17.9987 2.16299 17.5242 1.31934 16.6805C0.47568 15.8369 0.00119132 14.693 0 13.4998L0 11.3713C3.48131e-05 10.7017 0.149499 10.0406 0.437496 9.4361C0.725492 8.83161 1.14476 8.299 1.66473 7.87711C2.18471 7.45523 2.79227 7.1547 3.44314 6.99744C4.09401 6.84018 4.77177 6.83016 5.427 6.96809L15.0075 8.98484L16.4108 0.626093C16.4437 0.429866 16.5532 0.254753 16.7152 0.139278C16.8773 0.0238021 17.0785 -0.0225772 17.2747 0.0103428C17.471 0.0432628 17.6461 0.152785 17.7616 0.314817C17.877 0.476848 17.9234 0.678116 17.8905 0.874343L16.05 11.8498C15.9718 12.4978 15.8035 13.1317 15.5497 13.7331C14.9919 15.0026 14.0765 16.0821 12.9152 16.8398C11.7539 17.5975 10.3971 18.0006 9.0105 17.9998ZM4.4955 8.37059C3.70063 8.37179 2.93872 8.68838 2.37709 9.25086C1.81545 9.81334 1.5 10.5757 1.5 11.3706V13.4998C1.5 14.2955 1.81607 15.0586 2.37868 15.6212C2.94129 16.1838 3.70435 16.4998 4.5 16.4998H9.0105C10.1055 16.5004 11.177 16.1821 12.0941 15.5839C13.0112 14.9856 13.7343 14.1332 14.175 13.1308C14.3744 12.6488 14.5059 12.1415 14.5658 11.6233L14.76 10.4653L5.118 8.43584C4.91331 8.39264 4.7047 8.37077 4.4955 8.37059Z" fill="#AF7E3C"/>
<path d="M10.8878 12.7934C10.8359 12.7933 10.7841 12.7881 10.7333 12.7776L4.35001 11.4389C4.24779 11.4252 4.14951 11.3905 4.06129 11.3371C3.97307 11.2836 3.89683 11.2126 3.83731 11.1284C3.77779 11.0441 3.73629 10.9485 3.71539 10.8475C3.69449 10.7465 3.69465 10.6423 3.71585 10.5414C3.73705 10.4405 3.77883 10.345 3.8386 10.2609C3.89837 10.1769 3.97483 10.1061 4.0632 10.0529C4.15158 9.99972 4.24997 9.96536 4.35222 9.95193C4.45448 9.93851 4.55841 9.94633 4.65751 9.97488L11.0408 11.3136C11.2215 11.3521 11.3816 11.456 11.4904 11.6053C11.5993 11.7546 11.6492 11.9388 11.6306 12.1226C11.612 12.3064 11.5263 12.4769 11.3897 12.6014C11.2532 12.7259 11.0755 12.7956 10.8908 12.7971L10.8878 12.7934Z" fill="#AF7E3C"/>
<path d="M7.50002 15.2091C7.44758 15.2092 7.39529 15.2036 7.34402 15.1926L3.62252 14.4051C3.42788 14.364 3.25758 14.2472 3.14906 14.0804C3.04055 13.9137 3.00272 13.7106 3.04389 13.516C3.08507 13.3214 3.20188 13.1511 3.36862 13.0426C3.53536 12.934 3.73838 12.8962 3.93302 12.9374L7.65527 13.7249C7.83718 13.7628 7.99856 13.8668 8.10812 14.0169C8.21769 14.167 8.26765 14.3524 8.24832 14.5372C8.22899 14.722 8.14175 14.893 8.0035 15.0172C7.86525 15.1413 7.68583 15.2097 7.50002 15.2091Z" fill="#AF7E3C"/>
</g>
<defs>
<clipPath id="clip0_6774_12999">
<rect width="18" height="18" fill="white"/>
</clipPath>
</defs>
</svg>
