<svg width="25" height="25" viewBox="0 0 25 25" fill="none" xmlns="http://www.w3.org/2000/svg">
<g clip-path="url(#clip0_78_3593)">
<path d="M21.5002 12.824V11.4C21.5002 9.01308 20.552 6.72389 18.8642 5.03606C17.1763 3.34824 14.8871 2.40002 12.5002 2.40002C10.1132 2.40002 7.82406 3.34824 6.13623 5.03606C4.44841 6.72389 3.50019 9.01308 3.50019 11.4V12.824C2.45135 13.2859 1.593 14.094 1.06882 15.1131C0.544637 16.1322 0.386456 17.3005 0.620752 18.4223C0.855049 19.5441 1.4676 20.5514 2.35586 21.2755C3.24413 21.9996 4.35418 22.3966 5.50019 22.4C6.03063 22.4 6.53934 22.1893 6.91441 21.8142C7.28948 21.4392 7.50019 20.9305 7.50019 20.4V14.4C7.50019 13.8696 7.28948 13.3609 6.91441 12.9858C6.53934 12.6107 6.03063 12.4 5.50019 12.4V11.4C5.50019 9.54351 6.23769 7.76303 7.55045 6.45028C8.8632 5.13752 10.6437 4.40002 12.5002 4.40002C14.3567 4.40002 16.1372 5.13752 17.4499 6.45028C18.7627 7.76303 19.5002 9.54351 19.5002 11.4V12.4C18.9698 12.4 18.4611 12.6107 18.086 12.9858C17.7109 13.3609 17.5002 13.8696 17.5002 14.4V20.4H14.5002C14.235 20.4 13.9806 20.5054 13.7931 20.6929C13.6056 20.8805 13.5002 21.1348 13.5002 21.4C13.5002 21.6652 13.6056 21.9196 13.7931 22.1071C13.9806 22.2947 14.235 22.4 14.5002 22.4H19.5002C20.6462 22.3966 21.7563 21.9996 22.6445 21.2755C23.5328 20.5514 24.1453 19.5441 24.3796 18.4223C24.6139 17.3005 24.4558 16.1322 23.9316 15.1131C23.4074 14.094 22.549 13.2859 21.5002 12.824ZM5.50019 20.4C4.70455 20.4 3.94148 20.084 3.37887 19.5213C2.81627 18.9587 2.50019 18.1957 2.50019 17.4C2.50019 16.6044 2.81627 15.8413 3.37887 15.2787C3.94148 14.7161 4.70455 14.4 5.50019 14.4V20.4ZM19.5002 20.4V14.4C20.2958 14.4 21.0589 14.7161 21.6215 15.2787C22.1841 15.8413 22.5002 16.6044 22.5002 17.4C22.5002 18.1957 22.1841 18.9587 21.6215 19.5213C21.0589 20.084 20.2958 20.4 19.5002 20.4Z" fill="#AF7E3C"/>
</g>
<defs>
<clipPath id="clip0_78_3593">
<rect width="24" height="24" fill="white" transform="translate(0.5 0.400024)"/>
</clipPath>
</defs>
</svg>
