<svg width="18" height="19" viewBox="0 0 24 25" fill="none" xmlns="http://www.w3.org/2000/svg">
<g clip-path="url(#clip0_78_3605)">
<path d="M19.95 5.936L16.465 2.451C15.143 1.129 13.385 0.401001 11.515 0.401001H7C4.243 0.400001 2 2.643 2 5.4V19.4C2 22.157 4.243 24.4 7 24.4H17C19.757 24.4 22 22.157 22 19.4V10.885C22 9.015 21.272 7.259 19.95 5.936ZM18.536 7.35C18.854 7.668 19.123 8.021 19.341 8.4H15C14.449 8.4 14 7.951 14 7.4V3.059C14.379 3.277 14.733 3.546 15.05 3.864L18.535 7.349L18.536 7.35ZM20 19.4C20 21.054 18.654 22.4 17 22.4H7C5.346 22.4 4 21.054 4 19.4V5.4C4 3.746 5.346 2.4 7 2.4H11.515C11.678 2.4 11.84 2.408 12 2.423V7.4C12 9.054 13.346 10.4 15 10.4H19.977C19.992 10.56 20 10.722 20 10.885V19.4ZM15.5 13.4H8.5C7.122 13.4 6 14.522 6 15.9V17.9C6 19.278 7.122 20.4 8.5 20.4H15.5C16.878 20.4 18 19.278 18 17.9V15.9C18 14.522 16.878 13.4 15.5 13.4ZM16 17.9C16 18.176 15.776 18.4 15.5 18.4H8.5C8.224 18.4 8 18.176 8 17.9V15.9C8 15.624 8.224 15.4 8.5 15.4H15.5C15.776 15.4 16 15.624 16 15.9V17.9ZM6 10.4C6 9.848 6.448 9.4 7 9.4H9C9.552 9.4 10 9.848 10 10.4C10 10.952 9.552 11.4 9 11.4H7C6.448 11.4 6 10.952 6 10.4ZM6 6.4C6 5.848 6.448 5.4 7 5.4H9C9.552 5.4 10 5.848 10 6.4C10 6.952 9.552 7.4 9 7.4H7C6.448 7.4 6 6.952 6 6.4Z" fill="#AF7E3C"/>
</g>
<defs>
<clipPath id="clip0_78_3605">
<rect width="24" height="24" fill="white" transform="translate(0 0.400024)"/>
</clipPath>
</defs>
</svg>
