<svg width="18" height="19" viewBox="0 0 18 19" fill="none" xmlns="http://www.w3.org/2000/svg">
<g clip-path="url(#clip0_1794_5110)">
<path d="M12.5615 8.65001C13.2793 8.65001 13.9573 8.33576 14.4215 7.78826C14.885 7.24076 15.0838 6.52001 14.966 5.81201L14.4035 2.43701C14.207 1.25726 13.196 0.400757 11.999 0.400757H5.99977C4.80352 0.400757 3.79252 1.25726 3.59527 2.43701L3.03277 5.81201C2.91502 6.52001 3.11302 7.24076 3.57727 7.78826C4.04152 8.33576 4.71877 8.65001 5.43652 8.65001H8.24902V16.9H5.99902C5.58502 16.9 5.24902 17.236 5.24902 17.65C5.24902 18.064 5.58502 18.4 5.99902 18.4H11.999C12.4138 18.4 12.749 18.064 12.749 17.65C12.749 17.236 12.4138 16.9 11.999 16.9H9.74902V8.65001H12.5608H12.5615ZM4.72252 6.81851C4.54402 6.60776 4.46752 6.33101 4.51327 6.05801L5.07577 2.68301C5.15152 2.22926 5.54002 1.90001 6.00052 1.90001H11.9998C12.4603 1.90001 12.8495 2.22926 12.9245 2.68301L13.487 6.05801C13.5328 6.33026 13.4563 6.60701 13.2778 6.81851C13.0993 7.02926 12.8383 7.15001 12.5623 7.15001H5.43727C5.16127 7.15001 4.90177 7.02926 4.72252 6.81851Z" fill="#AF7E3C"/>
</g>
<defs>
<clipPath id="clip0_1794_5110">
<rect width="18" height="18" fill="white" transform="translate(0 0.400024)"/>
</clipPath>
</defs>
</svg>
