<svg width="18" height="19" viewBox="0 0 18 19" fill="none" xmlns="http://www.w3.org/2000/svg">
<g clip-path="url(#clip0_1794_6799)">
<path d="M17.9181 5.24049C17.8734 5.32834 17.8118 5.40651 17.7368 5.47054C17.6619 5.53457 17.5751 5.5832 17.4813 5.61364C17.3875 5.64408 17.2887 5.65573 17.1904 5.64794C17.0922 5.64015 16.9964 5.61307 16.9086 5.56824L10.3139 2.19999C9.90253 2.00091 9.45134 1.89794 8.99437 1.89885C8.53741 1.89976 8.08663 2.00453 7.6761 2.20524L1.0911 5.56524C0.913871 5.65574 0.707946 5.67214 0.518628 5.61081C0.32931 5.54949 0.172107 5.41547 0.0816022 5.23824C-0.00890292 5.06101 -0.0252965 4.85508 0.0360279 4.66576C0.0973523 4.47645 0.231371 4.31924 0.408602 4.22874L7.0041 0.867237C7.62361 0.563306 8.30433 0.404844 8.99437 0.403935C9.68441 0.403025 10.3656 0.559691 10.9859 0.861987L17.5911 4.23174C17.7682 4.32218 17.9021 4.47924 17.9635 4.66841C18.0248 4.85757 18.0085 5.06335 17.9181 5.24049ZM16.5584 10.24C17.011 11.0338 17.2493 11.9317 17.2499 12.8455V13.9C17.2497 14.4265 17.111 14.9436 16.8477 15.3995C16.5844 15.8554 16.2058 16.234 15.7499 16.4972V16.9C15.7499 17.2978 15.5918 17.6793 15.3105 17.9606C15.0292 18.242 14.6477 18.4 14.2499 18.4C13.852 18.4 13.4705 18.242 13.1892 17.9606C12.9079 17.6793 12.7499 17.2978 12.7499 16.9H5.24985C5.24985 17.2978 5.09182 17.6793 4.81051 17.9606C4.52921 18.242 4.14768 18.4 3.74985 18.4C3.35203 18.4 2.9705 18.242 2.68919 17.9606C2.40789 17.6793 2.24985 17.2978 2.24985 16.9V16.4972C1.79392 16.234 1.41528 15.8554 1.15198 15.3995C0.888685 14.9436 0.749997 14.4265 0.749852 13.9V12.8455C0.75041 11.9317 0.988717 11.0338 1.44135 10.24L2.98485 7.53999C3.31353 6.96659 3.78755 6.48997 4.35914 6.15815C4.93073 5.82634 5.57969 5.65106 6.2406 5.64999H11.7591C12.42 5.65106 13.069 5.82634 13.6406 6.15815C14.2122 6.48997 14.6862 6.96659 15.0149 7.53999L16.5584 10.24ZM2.7921 10.9H15.2076L13.7129 8.28399C13.5156 7.93997 13.2311 7.65401 12.8881 7.45493C12.5451 7.25585 12.1557 7.15067 11.7591 7.14999H6.2406C5.84466 7.15133 5.45603 7.25682 5.11375 7.45587C4.77147 7.65492 4.48759 7.94052 4.2906 8.28399L2.7921 10.9ZM15.7499 12.8455C15.7495 12.6966 15.7405 12.5478 15.7229 12.4H14.2499V13.15C14.2499 13.3489 14.1708 13.5397 14.0302 13.6803C13.8895 13.821 13.6988 13.9 13.4999 13.9C13.3009 13.9 13.1102 13.821 12.9695 13.6803C12.8289 13.5397 12.7499 13.3489 12.7499 13.15V12.4H5.24985V13.15C5.24985 13.3489 5.17084 13.5397 5.03018 13.6803C4.88953 13.821 4.69876 13.9 4.49985 13.9C4.30094 13.9 4.11017 13.821 3.96952 13.6803C3.82887 13.5397 3.74985 13.3489 3.74985 13.15V12.4H2.27685C2.25922 12.5478 2.25021 12.6966 2.24985 12.8455V13.9C2.24985 14.2978 2.40789 14.6793 2.68919 14.9606C2.9705 15.242 3.35203 15.4 3.74985 15.4H14.2499C14.6477 15.4 15.0292 15.242 15.3105 14.9606C15.5918 14.6793 15.7499 14.2978 15.7499 13.9V12.8455Z" fill="#AF7E3C"/>
</g>
<defs>
<clipPath id="clip0_1794_6799">
<rect width="18" height="18" fill="white" transform="translate(0 0.400024)"/>
</clipPath>
</defs>
</svg>
