<svg width="18" height="19" viewBox="0 0 18 19" fill="none" xmlns="http://www.w3.org/2000/svg">
<g clip-path="url(#clip0_1794_2357)">
<path d="M17.25 3.40002H9.75V1.90002H11.25C11.4489 1.90002 11.6397 1.82101 11.7803 1.68035C11.921 1.5397 12 1.34894 12 1.15002C12 0.951112 11.921 0.760347 11.7803 0.619694C11.6397 0.479042 11.4489 0.400024 11.25 0.400024H6.75C6.55109 0.400024 6.36032 0.479042 6.21967 0.619694C6.07902 0.760347 6 0.951112 6 1.15002C6 1.34894 6.07902 1.5397 6.21967 1.68035C6.36032 1.82101 6.55109 1.90002 6.75 1.90002H8.25V3.40002H0.75C0.551088 3.40002 0.360322 3.47904 0.21967 3.61969C0.0790176 3.76035 0 3.95111 0 4.15002C0 4.34894 0.0790176 4.5397 0.21967 4.68035C0.360322 4.82101 0.551088 4.90002 0.75 4.90002H1.5V14.65C1.50119 15.6442 1.89666 16.5974 2.59966 17.3004C3.30267 18.0034 4.2558 18.3988 5.25 18.4H12.75C13.7442 18.3988 14.6973 18.0034 15.4003 17.3004C16.1033 16.5974 16.4988 15.6442 16.5 14.65V4.90002H17.25C17.4489 4.90002 17.6397 4.82101 17.7803 4.68035C17.921 4.5397 18 4.34894 18 4.15002C18 3.95111 17.921 3.76035 17.7803 3.61969C17.6397 3.47904 17.4489 3.40002 17.25 3.40002ZM15 14.65C15 15.2468 14.7629 15.8191 14.341 16.241C13.919 16.663 13.3467 16.9 12.75 16.9H5.25C4.65326 16.9 4.08097 16.663 3.65901 16.241C3.23705 15.8191 3 15.2468 3 14.65V4.90002H15V14.65Z" fill="#AF7E3C"/>
</g>
<defs>
<clipPath id="clip0_1794_2357">
<rect width="18" height="18" fill="white" transform="translate(0 0.400024)"/>
</clipPath>
</defs>
</svg>
