<svg width="18" height="19" viewBox="0 0 18 19" fill="none" xmlns="http://www.w3.org/2000/svg">
<path d="M16.5 7.27902V5.65002C16.5 3.16827 14.4818 1.15002 12 1.15002H6C3.51825 1.15002 1.5 3.16827 1.5 5.65002V7.27902C0.627 7.58877 0 8.42202 0 9.40002V12.4C0 13.624 0.5895 14.713 1.5 15.3978V15.4V16.9C1.5 17.314 1.836 17.65 2.25 17.65C2.664 17.65 3 17.314 3 16.9V16.0743C3.24225 16.1238 3.4935 16.15 3.75 16.15H14.25C14.5065 16.15 14.7577 16.1238 15 16.0743V16.9C15 17.314 15.336 17.65 15.75 17.65C16.164 17.65 16.5 17.314 16.5 16.9V15.4V15.3978C17.4105 14.713 18 13.624 18 12.4V9.40002C18 8.42202 17.373 7.58877 16.5 7.27902ZM6 2.65002H12C13.6545 2.65002 15 3.99552 15 5.65002V7.27902C14.127 7.58877 13.5 8.42202 13.5 9.40002V10.9H4.5V9.40002C4.5 8.42202 3.873 7.58877 3 7.27902V5.65002C3 3.99552 4.3455 2.65002 6 2.65002ZM16.5 12.4C16.5 13.6405 15.4905 14.65 14.25 14.65H3.75C2.5095 14.65 1.5 13.6405 1.5 12.4V9.40002C1.5 8.98677 1.83675 8.65002 2.25 8.65002C2.66325 8.65002 3 8.98677 3 9.40002V11.65C3 12.064 3.336 12.4 3.75 12.4H14.25C14.664 12.4 15 12.064 15 11.65V9.40002C15 8.98677 15.3368 8.65002 15.75 8.65002C16.1632 8.65002 16.5 8.98677 16.5 9.40002V12.4Z" fill="#AF7E3C"/>
</svg>
