<svg width="18" height="19" viewBox="0 0 18 19" fill="none" xmlns="http://www.w3.org/2000/svg">
<g clip-path="url(#clip0_1794_2680)">
<path d="M17.724 11.0912C17.5185 10.7327 17.0588 10.609 16.7003 10.816L15.9675 11.2382C15.5138 10.7492 14.9227 10.3937 14.2507 10.2407V9.39998C14.2507 8.98598 13.9155 8.64998 13.5007 8.64998C13.086 8.64998 12.7507 8.98598 12.7507 9.39998V10.2407C12.0787 10.3945 11.487 10.7492 11.034 11.2382L10.3012 10.816C9.942 10.609 9.48375 10.7327 9.2775 11.0912C9.0705 11.4505 9.19425 11.9087 9.55275 12.1157L10.29 12.5402C10.1933 12.8537 10.1265 13.18 10.1265 13.525C10.1265 13.87 10.194 14.1962 10.29 14.5097L9.55275 14.9342C9.1935 15.1405 9.06975 15.5995 9.2775 15.9587C9.48525 16.3202 9.94875 16.4387 10.3012 16.234L11.034 15.8117C11.4878 16.3007 12.0787 16.6562 12.7507 16.8092V17.65C12.7507 18.064 13.086 18.4 13.5007 18.4C13.9155 18.4 14.2507 18.064 14.2507 17.65V16.8092C14.9227 16.6555 15.5145 16.3007 15.9675 15.8117L16.7003 16.234C17.0527 16.4387 17.5163 16.321 17.724 15.9587C17.931 15.5995 17.8072 15.1412 17.4487 14.9342L16.7115 14.5097C16.8083 14.1962 16.875 13.87 16.875 13.525C16.875 13.18 16.8075 12.8537 16.7115 12.5402L17.4487 12.1157C17.808 11.9095 17.9317 11.4505 17.724 11.0912ZM13.5 15.4C12.4657 15.4 11.625 14.5585 11.625 13.525C11.625 12.4915 12.4657 11.65 13.5 11.65C14.5343 11.65 15.375 12.4915 15.375 13.525C15.375 14.5585 14.5343 15.4 13.5 15.4ZM18 7.69298V8.64998C18 9.06398 17.6647 9.39998 17.25 9.39998C16.8353 9.39998 16.5 9.06398 16.5 8.64998V7.69298C16.5 6.94373 16.1295 6.24623 15.5085 5.82773L10.2585 2.28473C9.4935 1.76873 8.5065 1.76873 7.74225 2.28473L2.4915 5.82773C1.8705 6.24623 1.5 6.94373 1.5 7.69298V14.65C1.5 15.8905 2.5095 16.9 3.75 16.9H7.5C7.91475 16.9 8.25 17.236 8.25 17.65C8.25 18.064 7.91475 18.4 7.5 18.4H3.75C1.68225 18.4 0 16.7177 0 14.65V7.69298C0 6.44423 0.618 5.28248 1.65225 4.58423L6.90225 1.04123C8.1765 0.181731 9.8235 0.181731 11.0977 1.04123L16.3478 4.58423C17.382 5.28248 18 6.44423 18 7.69298Z" fill="#AF7E3C"/>
</g>
<defs>
<clipPath id="clip0_1794_2680">
<rect width="18" height="18" fill="white" transform="translate(0 0.400024)"/>
</clipPath>
</defs>
</svg>
