<svg width="18" height="19" viewBox="0 0 18 19" fill="none" xmlns="http://www.w3.org/2000/svg">
<g clip-path="url(#clip0_1794_5124)">
<path d="M16.5623 5.32303L11.3123 1.21003C9.951 0.143531 8.04825 0.143531 6.687 1.21003L1.43775 5.32303C0.52425 6.03778 0 7.11403 0 8.27503V14.65C0 16.7178 1.68225 18.4 3.75 18.4H14.25C16.3177 18.4 18 16.7178 18 14.65V8.27503C18 7.11403 17.4757 6.03853 16.5623 5.32303ZM16.5 14.65C16.5 15.8905 15.4905 16.9 14.25 16.9H3.75C2.5095 16.9 1.5 15.8905 1.5 14.65V8.27503C1.5 7.57828 1.81425 6.93328 2.3625 6.50428L7.6125 2.39128C8.02125 2.07103 8.51025 1.91128 9 1.91128C9.48975 1.91128 9.9795 2.07103 10.3875 2.39128L15.6375 6.50428C16.1858 6.93328 16.5 7.57903 16.5 8.27503V14.65ZM10.125 13.525C10.125 14.146 9.621 14.65 9 14.65C8.379 14.65 7.875 14.146 7.875 13.525C7.875 12.904 8.379 12.4 9 12.4C9.621 12.4 10.125 12.904 10.125 13.525ZM11.652 10.4988C11.9453 10.792 11.9453 11.266 11.652 11.5593C11.5058 11.7055 11.3138 11.779 11.1217 11.779C10.9298 11.779 10.7378 11.7055 10.5915 11.5593C9.714 10.6818 8.28675 10.6818 7.40925 11.5593C7.116 11.8525 6.642 11.8525 6.34875 11.5593C6.0555 11.266 6.0555 10.792 6.34875 10.4988C7.8105 9.03703 10.1903 9.03703 11.652 10.4988ZM13.773 8.37703C14.0662 8.67028 14.0662 9.14428 13.773 9.43753C13.6267 9.58378 13.4347 9.65728 13.2428 9.65728C13.0507 9.65728 12.8588 9.58378 12.7125 9.43753C10.6658 7.39078 7.335 7.39078 5.28825 9.43753C4.995 9.73078 4.521 9.73078 4.22775 9.43753C3.9345 9.14428 3.9345 8.67028 4.22775 8.37703C6.8595 5.74453 11.1413 5.74453 13.773 8.37703Z" fill="#AF7E3C"/>
</g>
<defs>
<clipPath id="clip0_1794_5124">
<rect width="18" height="18" fill="white" transform="translate(0 0.400024)"/>
</clipPath>
</defs>
</svg>
