<svg width="18" height="18" viewBox="0 0 18 18" fill="none" xmlns="http://www.w3.org/2000/svg">
<path d="M15.75 18C14.5095 18 13.5 16.9905 13.5 15.75V9.74996C13.5 9.33671 13.164 8.99996 12.75 8.99996H5.25C4.836 8.99996 4.5 9.33671 4.5 9.74996V15.75C4.5 16.9905 3.4905 18 2.25 18C1.0095 18 0 16.9905 0 15.75V7.29296C0 6.04421 0.618 4.88246 1.65225 4.18421L6.90225 0.641207C8.1765 -0.218293 9.8235 -0.218293 11.0977 0.641207L16.3478 4.18421C17.382 4.88246 18 6.04421 18 7.29296V15.75C18 16.9905 16.9905 18 15.75 18ZM5.25 7.49996H12.75C13.9905 7.49996 15 8.50946 15 9.74996V15.75C15 16.1632 15.336 16.5 15.75 16.5C16.164 16.5 16.5 16.1632 16.5 15.75V7.29296C16.5 6.54371 16.1295 5.84621 15.5085 5.42771L10.2585 1.88471C9.4935 1.36871 8.5065 1.36871 7.74225 1.88471L2.4915 5.42771C1.8705 5.84621 1.5 6.54371 1.5 7.29296V15.75C1.5 16.1632 1.836 16.5 2.25 16.5C2.664 16.5 3 16.1632 3 15.75V9.74996C3 8.50946 4.0095 7.49996 5.25 7.49996ZM8.25 17.25V15.75C8.25 15.336 7.91475 15 7.5 15H6.75C6.33525 15 6 15.336 6 15.75V17.25C6 17.664 6.33525 18 6.75 18H7.5C7.91475 18 8.25 17.664 8.25 17.25ZM8.25 12.75V11.25C8.25 10.836 7.91475 10.5 7.5 10.5H6.75C6.33525 10.5 6 10.836 6 11.25V12.75C6 13.164 6.33525 13.5 6.75 13.5H7.5C7.91475 13.5 8.25 13.164 8.25 12.75ZM12 17.25V15.75C12 15.336 11.6648 15 11.25 15H10.5C10.0852 15 9.75 15.336 9.75 15.75V17.25C9.75 17.664 10.0852 18 10.5 18H11.25C11.6648 18 12 17.664 12 17.25Z" fill="#AF7E3C"/>
</svg>
