<svg width="18" height="19" viewBox="0 0 18 19" fill="none" xmlns="http://www.w3.org/2000/svg">
<g clip-path="url(#clip0_1794_2407)">
<path d="M15.8415 10.15C16.4138 10.1494 16.9625 9.92182 17.3671 9.51715C17.7718 9.11248 17.9994 8.5638 18 7.99152C17.9992 7.38658 17.8557 6.79036 17.5813 6.25126C17.3069 5.71215 16.9092 5.24536 16.4205 4.88877L11.2568 1.13427C10.6017 0.655573 9.81134 0.397583 9 0.397583C8.18866 0.397583 7.39833 0.655573 6.74325 1.13427L1.5795 4.88877C1.09084 5.24536 0.693148 5.71215 0.41871 6.25126C0.144271 6.79036 0.000819994 7.38658 0 7.99152C0.000595616 8.5638 0.2282 9.11248 0.632868 9.51715C1.03754 9.92182 1.58621 10.1494 2.1585 10.15H8.25V17.65C8.25 17.8489 8.32902 18.0397 8.46967 18.1803C8.61032 18.321 8.80109 18.4 9 18.4C9.19891 18.4 9.38968 18.321 9.53033 18.1803C9.67098 18.0397 9.75 17.8489 9.75 17.65V10.15H15.8415ZM11.625 6.45627C11.8702 6.82483 12.0007 7.25782 12 7.70052V8.65002H9.75V3.63477L11.625 6.45627ZM15.5385 6.10002C15.8363 6.31741 16.0786 6.60201 16.2456 6.93069C16.4127 7.25936 16.4999 7.62282 16.5 7.99152C16.4998 8.1661 16.4304 8.33348 16.3069 8.45693C16.1835 8.58038 16.0161 8.64982 15.8415 8.65002H13.5V7.70052C13.5007 6.96234 13.2828 6.24049 12.8738 5.62602L10.9987 2.79852L15.5385 6.10002ZM1.5 7.99152C1.50014 7.62282 1.58729 7.25936 1.75436 6.93069C1.92143 6.60201 2.16371 6.31741 2.4615 6.10002L7.00425 2.80002L5.12925 5.62752C4.71943 6.24123 4.50048 6.96254 4.5 7.70052V8.65002H2.1585C1.98392 8.64982 1.81654 8.58038 1.69309 8.45693C1.56964 8.33348 1.5002 8.1661 1.5 7.99152ZM6 8.65002V7.70052C5.99927 7.25782 6.12977 6.82483 6.375 6.45627L8.25 3.63477V8.65002H6Z" fill="#AF7E3C"/>
<path d="M3 14.65H1.5V12.4C1.5 12.2011 1.42098 12.0103 1.28033 11.8697C1.13968 11.729 0.948912 11.65 0.75 11.65C0.551088 11.65 0.360322 11.729 0.21967 11.8697C0.0790176 12.0103 0 12.2011 0 12.4L0 17.65C0 17.8489 0.0790176 18.0397 0.21967 18.1804C0.360322 18.321 0.551088 18.4 0.75 18.4C0.948912 18.4 1.13968 18.321 1.28033 18.1804C1.42098 18.0397 1.5 17.8489 1.5 17.65V16.15H3C3.19891 16.15 3.38968 16.229 3.53033 16.3697C3.67098 16.5103 3.75 16.7011 3.75 16.9V17.65C3.75 17.8489 3.82902 18.0397 3.96967 18.1804C4.11032 18.321 4.30109 18.4 4.5 18.4C4.69891 18.4 4.88968 18.321 5.03033 18.1804C5.17098 18.0397 5.25 17.8489 5.25 17.65V16.9C5.25 16.3033 5.01295 15.731 4.59099 15.309C4.16903 14.8871 3.59674 14.65 3 14.65Z" fill="#AF7E3C"/>
<path d="M17.25 11.65C17.0511 11.65 16.8603 11.729 16.7197 11.8697C16.579 12.0103 16.5 12.2011 16.5 12.4V14.65H15C14.4033 14.65 13.831 14.8871 13.409 15.309C12.9871 15.731 12.75 16.3033 12.75 16.9V17.65C12.75 17.8489 12.829 18.0397 12.9697 18.1804C13.1103 18.321 13.3011 18.4 13.5 18.4C13.6989 18.4 13.8897 18.321 14.0303 18.1804C14.171 18.0397 14.25 17.8489 14.25 17.65V16.9C14.25 16.7011 14.329 16.5103 14.4697 16.3697C14.6103 16.229 14.8011 16.15 15 16.15H16.5V17.65C16.5 17.8489 16.579 18.0397 16.7197 18.1804C16.8603 18.321 17.0511 18.4 17.25 18.4C17.4489 18.4 17.6397 18.321 17.7803 18.1804C17.921 18.0397 18 17.8489 18 17.65V12.4C18 12.2011 17.921 12.0103 17.7803 11.8697C17.6397 11.729 17.4489 11.65 17.25 11.65Z" fill="#AF7E3C"/>
</g>
<defs>
<clipPath id="clip0_1794_2407">
<rect width="18" height="18" fill="white" transform="translate(0 0.400024)"/>
</clipPath>
</defs>
</svg>
