<?xml version="1.0" encoding="UTF-8" standalone="no"?>
<svg width="300px" height="178px" viewBox="0 0 300 178" version="1.1" xmlns="http://www.w3.org/2000/svg" xmlns:xlink="http://www.w3.org/1999/xlink">
    <!-- Generator: Sketch 41 (35326) - http://www.bohemiancoding.com/sketch -->
    <title>listing-placeholder</title>
    <desc>Created with Sketch.</desc>
    <defs>
        <rect id="path-1" x="0" y="0" width="300" height="177.734375"></rect>
    </defs>
    <g id="Page-1" stroke="none" stroke-width="1" fill="none" fill-rule="evenodd">
        <g id="listing-placeholder">
            <g id="main">
                <g id="No-Data">
                    <g id="Group-3">
                        <g id="Mask" fill="#EEEEEE">
                            <rect id="path-1" x="0" y="0" width="300" height="177.734375"></rect>
                        </g>
                        <g id="Group-Clipped">
                            <mask id="mask-2" fill="white">
                                <use xlink:href="#path-1"></use>
                            </mask>
                            <g id="path-1"></g>
                            <g id="Group" mask="url(#mask-2)">
                                <g transform="translate(107.514451, 47.495936)">
                                    <g>
                                        <path d="M0,0.0588807692 L0,75.0873003 L25.4680356,75.0873003 L25.4680356,57.9062324 L34.2656209,57.9062324 L34.2656209,75.103072 L42.0983447,75.103072 L42.0983447,0.0588807692 L0,0.0588807692 L0,0.0588807692 Z M25.4919154,5.31934677 L34.190905,5.31934677 L34.190905,16.5065677 L25.4919154,16.5065677 L25.4919154,5.31934677 L25.4919154,5.31934677 Z M7.89615905,5.32159986 L16.5960275,5.32159986 L16.5960275,16.516206 L7.89615905,16.516206 L7.89615905,5.32159986 L7.89615905,5.32159986 Z M25.4796094,22.6163237 L34.1775732,22.6163237 L34.1775732,33.8035448 L25.4796094,33.8035448 L25.4796094,22.6163237 L25.4796094,22.6163237 Z M7.8992356,22.6163237 L16.597346,22.6163237 L16.597346,33.8035448 L7.8992356,33.8035448 L7.8992356,22.6163237 L7.8992356,22.6163237 Z M25.4788769,39.8895182 L34.1781593,39.8895182 L34.1781593,51.0768643 L25.4788769,51.0768643 L25.4788769,39.8895182 L25.4788769,39.8895182 Z M7.89864959,39.8895182 L16.5980785,39.8895182 L16.5980785,51.0767391 L7.89864959,51.0767391 L7.89864959,39.8895182 L7.89864959,39.8895182 Z M7.91095575,57.892088 L16.6114102,57.892088 L16.6114102,69.0793091 L7.91095575,69.0793091 L7.91095575,57.892088 L7.91095575,57.892088 Z" id="Fill-1" fill="#CDCDCD"></path>
                                        <path d="M52.7399492,51.0552846 L61.4415756,51.0552846 L61.4415756,39.8679385 L52.7399492,39.8679385 L52.7399492,51.0552846 L52.7399492,51.0552846 Z M78.1263832,39.8693154 L69.4316424,39.8693154 L69.4316424,51.0786917 L78.1263832,51.0786917 L78.1263832,39.8693154 L78.1263832,39.8693154 Z M78.1263832,57.8940408 L69.4316424,57.8940408 L69.4316424,69.1034171 L78.1263832,69.1034171 L78.1263832,57.8940408 L78.1263832,57.8940408 Z M84.3058332,21.4618151 L84.3058332,75.1003934 L61.4943163,75.1003934 L61.4943163,57.9080599 L52.7198785,57.9080599 L52.7198785,75.0867496 L45.6571686,75.0867496 L45.6571686,74.4414895 C45.6571686,61.2370014 45.6603917,48.032388 45.6445694,34.8278998 C45.6439835,34.3413576 45.7846252,34.112794 46.3483646,33.9280405 C58.7488708,29.8628391 71.139415,25.775232 83.5323031,21.6930073 C83.7772543,21.6122714 84.0280656,21.5445536 84.3058332,21.4618151 L84.3058332,21.4618151 L84.3058332,21.4618151 Z" id="Fill-2" fill="#CDCDCD"></path>
                                    </g>
                                </g>
                            </g>
                        </g>
                    </g>
                </g>
            </g>
        </g>
    </g>
</svg>
