<svg width="48" height="49" viewBox="0 0 48 49" fill="none" xmlns="http://www.w3.org/2000/svg">
<g clip-path="url(#clip0_767_565)">
<path d="M39 48.5999H9C4.029 48.5999 0 44.5709 0 39.5999V9.59985C0 4.62885 4.029 0.599854 9 0.599854H39C43.971 0.599854 48 4.62885 48 9.59985V39.5999C48 44.5709 43.971 48.5999 39 48.5999Z" fill="#003462" fill-opacity="0.1"/>
<path d="M24.0044 18.4377C20.6009 18.4377 17.8469 21.1962 17.8469 24.5952C17.8469 27.9972 20.6054 30.7527 24.0044 30.7527C27.4079 30.7527 30.1619 27.9942 30.1619 24.5952C30.1619 21.1917 27.4034 18.4377 24.0044 18.4377ZM24.0044 28.5927C21.7964 28.5927 20.0069 26.8032 20.0069 24.5952C20.0069 22.3872 21.7964 20.5977 24.0044 20.5977C26.2124 20.5977 28.0019 22.3857 28.0019 24.5952C28.0019 26.8032 26.2124 28.5927 24.0044 28.5927Z" fill="#003462"/>
<path d="M28.9485 12.6748C26.7405 12.5713 21.2715 12.5758 19.0605 12.6748C17.118 12.7663 15.405 13.2358 14.025 14.6158C11.7165 16.9243 12.012 20.0338 12.012 24.5953C12.012 29.2633 11.7525 32.3023 14.025 34.5748C16.341 36.8908 19.497 36.5878 24.0045 36.5878C29.529 36.5878 35.574 37.1173 35.925 29.5393C36.0285 27.3298 36.024 21.8623 35.925 19.6528C35.727 15.4393 33.465 12.8848 28.9485 12.6748ZM32.442 33.0478C30.9285 34.5613 28.83 34.4263 23.973 34.4263C18.9735 34.4263 16.968 34.4998 15.504 33.0328C13.818 31.3558 14.124 28.6618 14.124 24.5803C14.124 14.6053 14.6955 14.7328 23.958 14.7328L24.003 14.7628C33.936 14.7628 33.834 15.4063 33.834 24.5953C33.8355 29.5363 33.93 31.5538 32.442 33.0478Z" fill="#003462"/>
<path d="M30.4065 19.6333C31.201 19.6333 31.845 18.9893 31.845 18.1948C31.845 17.4004 31.201 16.7563 30.4065 16.7563C29.6121 16.7563 28.968 17.4004 28.968 18.1948C28.968 18.9893 29.6121 19.6333 30.4065 19.6333Z" fill="#003462"/>
</g>
<defs>
<clipPath id="clip0_767_565">
<rect width="48" height="48" fill="white" transform="translate(0 0.599854)"/>
</clipPath>
</defs>
</svg>
