<svg width="48" height="49" viewBox="0 0 48 49" fill="none" xmlns="http://www.w3.org/2000/svg">
<g clip-path="url(#clip0_767_578)">
<path d="M39 48.5999H9C4.029 48.5999 0 44.5709 0 39.5999V9.59985C0 4.62885 4.029 0.599854 9 0.599854H39C43.971 0.599854 48 4.62885 48 9.59985V39.5999C48 44.5709 43.971 48.5999 39 48.5999Z" fill="#003462" fill-opacity="0.1"/>
<path d="M35.994 36.5998L36 36.5983V27.7963C36 23.4898 35.073 20.1733 30.039 20.1733C27.6195 20.1733 25.995 21.5008 25.332 22.7608H25.263V20.5753H20.49V36.5983H25.461V28.6648C25.461 26.5753 25.857 24.5563 28.4445 24.5563C30.993 24.5563 31.032 26.9398 31.032 28.7998V36.5998H35.994Z" fill="#003462"/>
<path d="M12.396 20.5769H17.3715V36.5999H12.396V20.5769Z" fill="#003462"/>
<path d="M14.8815 12.5999C13.2915 12.5999 12 13.8914 12 15.4814C12 17.0729 13.2915 18.3899 14.8815 18.3899C16.4715 18.3899 17.763 17.0729 17.763 15.4814C17.763 13.8914 16.4715 12.5999 14.8815 12.5999Z" fill="#003462"/>
</g>
<defs>
<clipPath id="clip0_767_578">
<rect width="48" height="48" fill="white" transform="translate(0 0.599854)"/>
</clipPath>
</defs>
</svg>
