<svg width="48" height="49" viewBox="0 0 48 49" fill="none" xmlns="http://www.w3.org/2000/svg">
<g clip-path="url(#clip0_767_570)">
<path d="M39 48.5999H9C4.029 48.5999 0 44.5709 0 39.5999V9.59985C0 4.62885 4.029 0.599854 9 0.599854H39C43.971 0.599854 48 4.62885 48 9.59985V39.5999C48 44.5709 43.971 48.5999 39 48.5999Z" fill="#003462" fill-opacity="0.1"/>
<path d="M25.712 23.2335L32.5885 15.4124H30.9596L24.9861 22.202L20.2187 15.4124H14.7188L21.9296 25.6804L14.7188 33.8811H16.3477L22.6517 26.7095L27.6875 33.8811H33.1875M16.9356 16.6143H19.4381L30.9583 32.7382H28.4552" fill="#003462"/>
</g>
<defs>
<clipPath id="clip0_767_570">
<rect width="48" height="48" fill="white" transform="translate(0 0.599854)"/>
</clipPath>
</defs>
</svg>
