<svg width="48" height="49" viewBox="0 0 48 49" fill="none" xmlns="http://www.w3.org/2000/svg">
<g clip-path="url(#clip0_767_573)">
<path d="M39 48.5999H9C4.029 48.5999 0 44.5709 0 39.5999V9.59985C0 4.62885 4.029 0.599854 9 0.599854H39C43.971 0.599854 48 4.62885 48 9.59985V39.5999C48 44.5709 43.971 48.5999 39 48.5999Z" fill="#003462" fill-opacity="0.1"/>
<g clip-path="url(#clip1_767_573)">
<path d="M36.037 18.5133C35.748 17.4256 34.8969 16.5682 33.8155 16.2771C31.8568 15.7495 24 15.7495 24 15.7495C24 15.7495 16.1432 15.7495 14.1835 16.2771C13.1031 16.5682 12.252 17.4245 11.963 18.5133C11.4375 20.4856 11.4375 24.5998 11.4375 24.5998C11.4375 24.5998 11.4375 28.714 11.963 30.6863C12.252 31.774 13.1031 32.6314 14.1845 32.9225C16.1432 33.4501 24 33.4501 24 33.4501C24 33.4501 31.8568 33.4501 33.8165 32.9225C34.8969 32.6314 35.748 31.7751 36.038 30.6863C36.5625 28.714 36.5625 24.5998 36.5625 24.5998C36.5625 24.5998 36.5625 20.4856 36.037 18.5133ZM21.431 28.3361V20.8635L27.997 24.5998L21.431 28.3361Z" fill="#003462"/>
</g>
</g>
<defs>
<clipPath id="clip0_767_573">
<rect width="48" height="48" fill="white" transform="translate(0 0.599854)"/>
</clipPath>
<clipPath id="clip1_767_573">
<rect width="25.125" height="25.125" fill="white" transform="translate(11.4375 12.0374)"/>
</clipPath>
</defs>
</svg>
