<svg width="194" height="148" viewBox="0 0 194 148" fill="none" xmlns="http://www.w3.org/2000/svg">
<circle cx="93.3705" cy="67.1341" r="67.1341" fill="#FAFAFA"/>
<circle cx="93.3711" cy="67.1341" r="52.4727" fill="#EFEFEF"/>
<path d="M93.7196 133.319C87.5558 139.618 78.959 143.528 69.4491 143.528C58.0979 143.528 48.0478 137.958 41.883 129.402C38.8399 137.648 30.9098 143.528 21.6064 143.528C9.67352 143.528 0 133.855 0 121.922C0 109.989 9.67352 100.315 21.6064 100.315C27.0058 100.315 31.9426 102.296 35.73 105.57C37.7117 88.706 52.0525 75.6224 69.4491 75.6224C81.1703 75.6224 91.5043 81.5618 97.6056 90.5952C102.686 86.5368 109.127 84.1106 116.134 84.1106C129.064 84.1106 140.065 92.3709 144.148 103.902C147.26 102.111 150.869 101.087 154.717 101.087C166.015 101.087 175.25 109.916 175.901 121.05C177.118 120.615 178.429 120.378 179.796 120.378C186.189 120.378 191.371 125.561 191.371 131.953C191.371 138.346 186.189 143.528 179.796 143.528C175.387 143.528 171.553 141.063 169.599 137.435C165.769 141.203 160.515 143.528 154.717 143.528C147.566 143.528 141.24 139.99 137.396 134.569C132.001 140.097 124.468 143.528 116.134 143.528C107.188 143.528 99.1661 139.574 93.7196 133.319Z" fill="#FAFAFA"/>
<path d="M191.371 130.953C191.371 124.561 186.189 119.378 179.796 119.378C178.429 119.378 177.118 119.615 175.901 120.05C175.25 108.916 166.015 100.087 154.717 100.087C150.869 100.087 147.26 101.111 144.148 102.902C140.065 91.3709 129.065 83.1106 116.134 83.1106C109.127 83.1106 102.686 85.5368 97.6056 89.5952C91.5043 80.5618 81.1703 74.6224 69.4491 74.6224C52.0525 74.6224 37.7118 87.706 35.73 104.57C31.9426 101.296 27.0058 99.3154 21.6064 99.3154C14.4403 99.3154 8.08892 102.804 4.1582 108.176" stroke="#AF7E3C" stroke-width="4" stroke-linecap="round"/>
<circle cx="120.94" cy="34.7593" r="2.31497" stroke="#003462" stroke-width="3.20416"/>
<circle cx="161.991" cy="79.1055" r="1.54331" stroke="#003462" stroke-width="3.20416"/>
<circle cx="26.285" cy="73.684" r="3.47245" stroke="#003462" stroke-width="3.20416"/>
<circle cx="91.4414" cy="80.6381" r="21.9922" fill="#FAFAFA"/>
<circle cx="91.5947" cy="81.4918" r="24.5716" transform="rotate(45 91.5947 81.4918)" stroke="#003462" stroke-width="7"/>
<rect width="18.5461" height="3.19761" rx="1.59881" transform="matrix(-0.707107 -0.707107 -0.707107 0.707107 99.2832 85.9317)" fill="#AF7E3C"/>
<rect width="18.5461" height="3.19761" rx="1.5988" transform="matrix(-0.707107 0.707107 0.707107 0.707107 97.0215 72.8176)" fill="#AF7E3C"/>
<rect x="112.589" y="91.136" width="43.013" height="15.3941" rx="7.69705" transform="rotate(45 112.589 91.136)" fill="#003462"/>
<path d="M115.365 104.572L132.887 122.094" stroke="white" stroke-width="3" stroke-linecap="round"/>
</svg>
