<svg width="120" height="41" viewBox="0 0 120 41" fill="none" xmlns="http://www.w3.org/2000/svg">
<g clip-path="url(#clip0_887_3605)">
<path d="M110.135 0.400032H9.53468C9.16798 0.400032 8.80568 0.400032 8.43995 0.402032C8.1338 0.404032 7.83009 0.409842 7.521 0.414732C6.84951 0.422634 6.17961 0.481709 5.5171 0.591442C4.85552 0.703565 4.21467 0.914948 3.61622 1.21844C3.0185 1.5245 2.47235 1.9222 1.99757 2.3971C1.5203 2.87067 1.12246 3.41805 0.81935 4.01819C0.5154 4.61714 0.304641 5.25897 0.19435 5.92151C0.0830109 6.58322 0.0230984 7.25255 0.01515 7.92351C0.00587 8.23011 0.00489 8.53773 0 8.84437V31.9586C0.00489 32.2691 0.00587 32.5699 0.01515 32.8805C0.0231008 33.5515 0.0830134 34.2208 0.19435 34.8824C0.304336 35.5454 0.515108 36.1876 0.81935 36.7867C1.12233 37.3849 1.52022 37.9301 1.99757 38.401C2.47054 38.878 3.01705 39.276 3.61622 39.5797C4.21467 39.884 4.85545 40.0967 5.5171 40.2105C6.17972 40.3194 6.84956 40.3785 7.521 40.3873C7.83009 40.3941 8.1338 40.398 8.43995 40.398C8.80567 40.4 9.168 40.4 9.53468 40.4H110.135C110.494 40.4 110.859 40.4 111.219 40.398C111.523 40.398 111.836 40.3941 112.141 40.3873C112.811 40.379 113.479 40.3199 114.141 40.2105C114.804 40.0959 115.448 39.8833 116.049 39.5797C116.647 39.2758 117.193 38.8779 117.666 38.401C118.142 37.9283 118.541 37.3835 118.848 36.7867C119.15 36.1871 119.358 35.545 119.467 34.8824C119.578 34.2207 119.64 33.5515 119.652 32.8805C119.656 32.5699 119.656 32.2691 119.656 31.9586C119.664 31.5953 119.664 31.234 119.664 30.8648V9.93616C119.664 9.56995 119.664 9.20667 119.656 8.84437C119.656 8.53773 119.656 8.23011 119.652 7.92347C119.64 7.25245 119.578 6.58327 119.467 5.92147C119.358 5.25931 119.149 4.61754 118.848 4.01815C118.23 2.81523 117.252 1.83606 116.049 1.21835C115.448 0.9156 114.804 0.704273 114.141 0.591352C113.48 0.481135 112.811 0.42204 112.141 0.414592C111.836 0.409712 111.523 0.403852 111.219 0.401902C110.859 0.399902 110.494 0.400032 110.135 0.400032Z" fill="#003462"/>
<path d="M8.44487 39.5249C8.14019 39.5249 7.84287 39.521 7.54058 39.5142C6.91436 39.506 6.2896 39.4515 5.67144 39.3511C5.09503 39.2518 4.53664 39.0672 4.0147 38.8032C3.49754 38.5414 3.02585 38.1982 2.6177 37.7866C2.20364 37.3799 1.85891 36.9081 1.59719 36.3901C1.33258 35.8687 1.14945 35.3098 1.05419 34.7329C0.951311 34.113 0.895651 33.4862 0.887687 32.8579C0.881347 32.647 0.873047 31.9448 0.873047 31.9448V8.84424C0.873047 8.84424 0.881887 8.15283 0.887737 7.9497C0.895363 7.32238 0.950699 6.69656 1.05327 6.07763C1.14871 5.49915 1.33197 4.93865 1.59673 4.41553C1.85749 3.89785 2.2003 3.42576 2.61187 3.01758C3.02297 2.60552 3.49617 2.26051 4.01421 1.99511C4.53495 1.732 5.09228 1.54863 5.66753 1.45117C6.28772 1.34974 6.91465 1.2949 7.54304 1.28711L8.44536 1.2749H111.214L112.127 1.2876C112.75 1.295 113.371 1.34935 113.985 1.45019C114.566 1.54888 115.13 1.73352 115.656 1.99804C116.694 2.53289 117.539 3.37907 118.071 4.41797C118.332 4.93748 118.512 5.49341 118.607 6.06689C118.71 6.69089 118.768 7.32164 118.78 7.9541C118.783 8.2373 118.783 8.5415 118.783 8.84424C118.791 9.21924 118.791 9.57617 118.791 9.93603V30.8647C118.791 31.228 118.791 31.5825 118.783 31.9399C118.783 32.2651 118.783 32.563 118.779 32.8696C118.768 33.4908 118.711 34.1103 118.608 34.7231C118.515 35.3042 118.333 35.8674 118.068 36.3931C117.805 36.9055 117.462 37.3732 117.053 37.7788C116.644 38.1926 116.172 38.5378 115.653 38.8013C115.128 39.0673 114.566 39.2526 113.985 39.3511C113.367 39.4521 112.742 39.5066 112.116 39.5142C111.823 39.521 111.517 39.5249 111.219 39.5249L110.135 39.5269L8.44487 39.5249Z" fill="#003462"/>
<path d="M24.7689 20.7005C24.7796 19.8658 25.0013 19.0474 25.4134 18.3215C25.8254 17.5955 26.4143 16.9856 27.1254 16.5484C26.6737 15.9033 26.0777 15.3723 25.3849 14.9978C24.6921 14.6232 23.9215 14.4154 23.1343 14.3907C21.455 14.2145 19.8271 15.3956 18.9714 15.3956C18.0991 15.3956 16.7816 14.4082 15.3629 14.4374C14.4452 14.4671 13.5509 14.7339 12.767 15.212C11.9831 15.69 11.3364 16.363 10.89 17.1653C8.95595 20.5137 10.3985 25.4348 12.2511 28.1414C13.178 29.4667 14.2613 30.9472 15.6788 30.8947C17.0658 30.8371 17.5839 30.0102 19.2582 30.0102C20.9169 30.0102 21.403 30.8947 22.8492 30.8613C24.3376 30.8371 25.2753 29.5301 26.1697 28.1922C26.8357 27.2478 27.3481 26.2041 27.6881 25.0996C26.8234 24.7339 26.0855 24.1217 25.5664 23.3394C25.0472 22.5571 24.7699 21.6393 24.7689 20.7005Z" fill="white"/>
<path d="M22.0372 12.6107C22.8487 11.6365 23.2485 10.3843 23.1517 9.12012C21.9119 9.25034 20.7666 9.8429 19.9441 10.7797C19.542 11.2374 19.234 11.7698 19.0378 12.3466C18.8415 12.9234 18.7609 13.5332 18.8004 14.1411C19.4206 14.1475 20.0341 14.0131 20.5947 13.748C21.1554 13.4829 21.6486 13.0941 22.0372 12.6107Z" fill="white"/>
<path d="M42.3022 27.5396H37.5688L36.4321 30.896H34.4272L38.9106 18.478H40.9936L45.477 30.896H43.438L42.3022 27.5396ZM38.0591 25.9907H41.8111L39.9615 20.5435H39.9097L38.0591 25.9907Z" fill="white"/>
<path d="M55.1597 26.3696C55.1597 29.1831 53.6538 30.9907 51.3814 30.9907C50.8057 31.0208 50.2332 30.8882 49.7294 30.6081C49.2256 30.3279 48.8109 29.9116 48.5327 29.4067H48.4897V33.8911H46.6313V21.8422H48.4302V23.3481H48.4644C48.7553 22.8456 49.1771 22.4315 49.6847 22.1496C50.1923 21.8678 50.7669 21.7288 51.3472 21.7475C53.645 21.7475 55.1597 23.5639 55.1597 26.3696ZM53.2495 26.3696C53.2495 24.5366 52.3023 23.3315 50.857 23.3315C49.437 23.3315 48.482 24.562 48.482 26.3696C48.482 28.1938 49.437 29.4155 50.857 29.4155C52.3023 29.4155 53.2495 28.2192 53.2495 26.3696Z" fill="white"/>
<path d="M65.1245 26.3696C65.1245 29.1831 63.6187 30.9907 61.3462 30.9907C60.7706 31.0208 60.1981 30.8882 59.6943 30.6081C59.1905 30.3279 58.7758 29.9116 58.4976 29.4067H58.4546V33.8911H56.5962V21.8422H58.395V23.3481H58.4292C58.7201 22.8456 59.1419 22.4314 59.6495 22.1496C60.1571 21.8678 60.7317 21.7288 61.312 21.7475C63.6099 21.7475 65.1245 23.5639 65.1245 26.3696ZM63.2144 26.3696C63.2144 24.5366 62.2671 23.3315 60.8218 23.3315C59.4019 23.3315 58.4468 24.562 58.4468 26.3696C58.4468 28.1938 59.4019 29.4155 60.8218 29.4155C62.2671 29.4155 63.2144 28.2192 63.2144 26.3696Z" fill="white"/>
<path d="M71.7105 27.4361C71.8482 28.6675 73.0445 29.4761 74.6792 29.4761C76.2456 29.4761 77.3726 28.6675 77.3726 27.5571C77.3726 26.5933 76.6929 26.0161 75.0835 25.6206L73.4742 25.2329C71.1939 24.6821 70.1353 23.6157 70.1353 21.8853C70.1353 19.7427 72.0025 18.271 74.6538 18.271C77.2778 18.271 79.0767 19.7427 79.1372 21.8853H77.2612C77.1489 20.646 76.1245 19.898 74.6274 19.898C73.1304 19.898 72.106 20.6548 72.106 21.7564C72.106 22.6343 72.7603 23.1509 74.3608 23.5464L75.729 23.8823C78.2769 24.4848 79.3355 25.5083 79.3355 27.3247C79.3355 29.6479 77.4849 31.103 74.5415 31.103C71.7876 31.103 69.9282 29.6821 69.8081 27.436L71.7105 27.4361Z" fill="white"/>
<path d="M83.3462 19.6997V21.8423H85.0679V23.314H83.3462V28.3052C83.3462 29.0806 83.6909 29.4419 84.4477 29.4419C84.6521 29.4383 84.8562 29.424 85.0591 29.3989V30.8618C84.7188 30.9254 84.3729 30.9542 84.0268 30.9477C82.1938 30.9477 81.479 30.2592 81.479 28.5034V23.314H80.1626V21.8423H81.479V19.6997H83.3462Z" fill="white"/>
<path d="M86.0649 26.3696C86.0649 23.521 87.7427 21.731 90.3589 21.731C92.9839 21.731 94.6538 23.521 94.6538 26.3696C94.6538 29.2261 92.9927 31.0083 90.3589 31.0083C87.726 31.0083 86.0649 29.2261 86.0649 26.3696ZM92.7602 26.3696C92.7602 24.4155 91.8647 23.2622 90.3589 23.2622C88.853 23.2622 87.9585 24.4243 87.9585 26.3696C87.9585 28.3315 88.853 29.4761 90.3589 29.4761C91.8647 29.4761 92.7602 28.3315 92.7602 26.3696Z" fill="white"/>
<path d="M96.186 21.8424H97.9585V23.3834H98.0015C98.1214 22.9021 98.4034 22.4768 98.8 22.1789C99.1966 21.881 99.6836 21.7287 100.179 21.7477C100.393 21.7469 100.607 21.7702 100.816 21.817V23.5553C100.546 23.4727 100.264 23.4347 99.981 23.443C99.711 23.432 99.4418 23.4796 99.192 23.5825C98.9421 23.6854 98.7175 23.8411 98.5335 24.039C98.3496 24.2369 98.2106 24.4723 98.1262 24.729C98.0417 24.9856 98.0139 25.2575 98.0444 25.526V30.8961H96.186L96.186 21.8424Z" fill="white"/>
<path d="M109.384 28.2368C109.134 29.8804 107.534 31.0083 105.486 31.0083C102.852 31.0083 101.217 29.2436 101.217 26.4126C101.217 23.5728 102.861 21.731 105.408 21.731C107.913 21.731 109.488 23.4517 109.488 26.1968V26.8335H103.093V26.9458C103.064 27.279 103.105 27.6147 103.216 27.9305C103.326 28.2463 103.502 28.5351 103.732 28.7777C103.963 29.0202 104.242 29.211 104.552 29.3373C104.861 29.4636 105.195 29.5226 105.529 29.5102C105.968 29.5514 106.409 29.4497 106.785 29.2202C107.162 28.9908 107.455 28.6459 107.62 28.2368L109.384 28.2368ZM103.102 25.5347H107.628C107.645 25.2351 107.6 24.9353 107.495 24.6541C107.39 24.3728 107.229 24.1163 107.02 23.9005C106.812 23.6848 106.561 23.5144 106.283 23.4002C106.006 23.286 105.708 23.2304 105.408 23.2368C105.105 23.235 104.805 23.2932 104.525 23.4079C104.245 23.5226 103.99 23.6917 103.776 23.9053C103.562 24.119 103.392 24.3729 103.276 24.6526C103.16 24.9322 103.101 25.232 103.102 25.5347Z" fill="white"/>
<path d="M37.8262 9.13079C38.2158 9.10284 38.6067 9.1617 38.9709 9.30313C39.335 9.44456 39.6632 9.66504 39.9317 9.94867C40.2003 10.2323 40.4026 10.572 40.524 10.9433C40.6454 11.3145 40.6829 11.7081 40.6338 12.0956C40.6338 14.0019 39.6035 15.0976 37.8262 15.0976H35.6709V9.13079H37.8262ZM36.5976 14.2538H37.7226C38.0011 14.2704 38.2797 14.2248 38.5382 14.1202C38.7967 14.0156 39.0287 13.8546 39.2172 13.649C39.4057 13.4435 39.546 13.1985 39.6278 12.9319C39.7097 12.6652 39.7311 12.3837 39.6904 12.1078C39.7281 11.833 39.7046 11.5532 39.6215 11.2885C39.5383 11.0239 39.3977 10.7809 39.2096 10.5769C39.0216 10.373 38.7907 10.2132 38.5337 10.109C38.2766 10.0047 37.9996 9.95863 37.7226 9.974H36.5976V14.2538Z" fill="white"/>
<path d="M41.6807 12.8442C41.6524 12.5483 41.6862 12.2497 41.7801 11.9676C41.8739 11.6856 42.0257 11.4262 42.2256 11.2062C42.4256 10.9863 42.6693 10.8105 42.9411 10.6902C43.213 10.5699 43.507 10.5078 43.8042 10.5078C44.1015 10.5078 44.3955 10.5699 44.6673 10.6902C44.9392 10.8105 45.1829 10.9863 45.3828 11.2062C45.5828 11.4262 45.7345 11.6856 45.8284 11.9676C45.9222 12.2497 45.9561 12.5483 45.9278 12.8442C45.9566 13.1404 45.9232 13.4394 45.8296 13.7219C45.736 14.0044 45.5843 14.2643 45.3843 14.4847C45.1843 14.7051 44.9404 14.8812 44.6683 15.0018C44.3962 15.1223 44.1019 15.1846 43.8042 15.1846C43.5066 15.1846 43.2123 15.1223 42.9402 15.0018C42.668 14.8812 42.4241 14.7051 42.2241 14.4847C42.0242 14.2643 41.8725 14.0044 41.7789 13.7219C41.6853 13.4394 41.6519 13.1404 41.6807 12.8442ZM45.0137 12.8442C45.0137 11.8681 44.5752 11.2973 43.8057 11.2973C43.0332 11.2973 42.5987 11.8681 42.5987 12.8442C42.5987 13.8281 43.0333 14.3945 43.8057 14.3945C44.5752 14.3945 45.0137 13.8242 45.0137 12.8442Z" fill="white"/>
<path d="M51.5732 15.0977H50.6514L49.7207 11.7812H49.6504L48.7236 15.0977H47.8105L46.5693 10.5947H47.4707L48.2773 14.0307H48.3438L49.2695 10.5947H50.1221L51.0479 14.0307H51.1182L51.9209 10.5947H52.8096L51.5732 15.0977Z" fill="white"/>
<path d="M53.8535 10.5948H54.709V11.3101H54.7754C54.888 11.0532 55.0781 10.8378 55.3189 10.694C55.5598 10.5502 55.8395 10.4851 56.1191 10.5079C56.3382 10.4914 56.5582 10.5244 56.7628 10.6045C56.9674 10.6846 57.1514 10.8097 57.3011 10.9706C57.4508 11.1314 57.5623 11.3239 57.6275 11.5337C57.6927 11.7435 57.7099 11.9653 57.6777 12.1827V15.0977H56.7891V12.4058C56.7891 11.6822 56.4746 11.3223 55.8174 11.3223C55.6686 11.3154 55.5201 11.3407 55.3821 11.3965C55.244 11.4524 55.1197 11.5374 55.0175 11.6458C54.9154 11.7542 54.8379 11.8833 54.7904 12.0245C54.7429 12.1656 54.7264 12.3153 54.7422 12.4634V15.0977H53.8535L53.8535 10.5948Z" fill="white"/>
<path d="M59.0938 8.83691H59.9824V15.0977H59.0938V8.83691Z" fill="white"/>
<path d="M61.2178 12.8443C61.1895 12.5483 61.2234 12.2498 61.3172 11.9677C61.4111 11.6856 61.5629 11.4262 61.7628 11.2063C61.9628 10.9863 62.2065 10.8105 62.4784 10.6902C62.7503 10.5699 63.0443 10.5078 63.3416 10.5078C63.6389 10.5078 63.9329 10.5699 64.2047 10.6902C64.4766 10.8105 64.7203 10.9863 64.9203 11.2063C65.1203 11.4262 65.272 11.6856 65.3659 11.9677C65.4598 12.2498 65.4936 12.5483 65.4653 12.8443C65.4942 13.1405 65.4607 13.4395 65.3671 13.722C65.2734 14.0045 65.1217 14.2644 64.9217 14.4848C64.7217 14.7052 64.4778 14.8813 64.2057 15.0018C63.9335 15.1224 63.6392 15.1846 63.3416 15.1846C63.0439 15.1846 62.7496 15.1224 62.4775 15.0018C62.2053 14.8813 61.9614 14.7052 61.7614 14.4848C61.5614 14.2644 61.4097 14.0045 61.3161 13.722C61.2225 13.4395 61.189 13.1405 61.2178 12.8443ZM64.5508 12.8443C64.5508 11.8682 64.1123 11.2974 63.3428 11.2974C62.5703 11.2974 62.1358 11.8682 62.1358 12.8443C62.1358 13.8282 62.5704 14.3946 63.3428 14.3946C64.1123 14.3946 64.5508 13.8243 64.5508 12.8443Z" fill="white"/>
<path d="M66.4009 13.8242C66.4009 13.0137 67.0044 12.5464 68.0757 12.48L69.2954 12.4097V12.021C69.2954 11.5454 68.981 11.2769 68.3735 11.2769C67.8774 11.2769 67.5337 11.459 67.4351 11.7773H66.5747C66.6655 11.0039 67.3931 10.5078 68.4146 10.5078C69.5435 10.5078 70.1802 11.0698 70.1802 12.021V15.0977H69.3247V14.4648H69.2544C69.1117 14.6918 68.9113 14.8769 68.6737 15.0011C68.436 15.1253 68.1697 15.1842 67.9019 15.1718C67.7128 15.1915 67.5218 15.1713 67.341 15.1126C67.1602 15.0539 66.9938 14.958 66.8524 14.831C66.711 14.7041 66.5977 14.5489 66.52 14.3755C66.4422 14.2021 66.4016 14.0143 66.4009 13.8242ZM69.2954 13.4394V13.063L68.1958 13.1333C67.5757 13.1748 67.2944 13.3857 67.2944 13.7827C67.2944 14.188 67.646 14.4238 68.1294 14.4238C68.2711 14.4382 68.4142 14.4238 68.5502 14.3818C68.6862 14.3397 68.8123 14.2706 68.9211 14.1788C69.0299 14.087 69.1191 13.9742 69.1834 13.8472C69.2477 13.7201 69.2858 13.5815 69.2954 13.4394Z" fill="white"/>
<path d="M71.3481 12.8443C71.3481 11.4214 72.0796 10.52 73.2173 10.52C73.4987 10.5071 73.778 10.5745 74.0225 10.7144C74.267 10.8543 74.4667 11.0609 74.5981 11.31H74.6646V8.83691H75.5532V15.0977H74.7017V14.3862H74.6314C74.4897 14.6337 74.2831 14.8377 74.0339 14.9762C73.7846 15.1147 73.5022 15.1824 73.2173 15.1719C72.0718 15.1719 71.3481 14.2705 71.3481 12.8443ZM72.2661 12.8443C72.2661 13.7993 72.7163 14.374 73.4693 14.374C74.2183 14.374 74.6812 13.791 74.6812 12.8482C74.6812 11.9097 74.2134 11.3184 73.4693 11.3184C72.7212 11.3184 72.2661 11.897 72.2661 12.8443Z" fill="white"/>
<path d="M79.23 12.8442C79.2017 12.5483 79.2356 12.2497 79.3294 11.9676C79.4232 11.6856 79.575 11.4262 79.7749 11.2062C79.9749 10.9863 80.2186 10.8105 80.4904 10.6902C80.7623 10.5699 81.0563 10.5078 81.3536 10.5078C81.6508 10.5078 81.9448 10.5699 82.2167 10.6902C82.4885 10.8105 82.7322 10.9863 82.9322 11.2062C83.1321 11.4262 83.2839 11.6856 83.3777 11.9676C83.4715 12.2497 83.5054 12.5483 83.4771 12.8442C83.5059 13.1404 83.4725 13.4394 83.3789 13.7219C83.2853 14.0044 83.1336 14.2643 82.9336 14.4847C82.7336 14.7051 82.4897 14.8812 82.2176 15.0018C81.9455 15.1223 81.6512 15.1846 81.3536 15.1846C81.0559 15.1846 80.7616 15.1223 80.4895 15.0018C80.2173 14.8812 79.9735 14.7051 79.7735 14.4847C79.5735 14.2643 79.4218 14.0044 79.3282 13.7219C79.2346 13.4394 79.2012 13.1404 79.23 12.8442ZM82.563 12.8442C82.563 11.8681 82.1245 11.2973 81.355 11.2973C80.5826 11.2973 80.148 11.8681 80.148 12.8442C80.148 13.8281 80.5826 14.3945 81.355 14.3945C82.1245 14.3945 82.563 13.8242 82.563 12.8442Z" fill="white"/>
<path d="M84.6694 10.5948H85.5249V11.3101H85.5913C85.704 11.0532 85.894 10.8378 86.1348 10.694C86.3757 10.5502 86.6555 10.4851 86.9351 10.5079C87.1542 10.4914 87.3742 10.5244 87.5788 10.6045C87.7834 10.6846 87.9673 10.8097 88.117 10.9706C88.2667 11.1314 88.3783 11.3239 88.4435 11.5337C88.5087 11.7435 88.5258 11.9653 88.4937 12.1827V15.0977H87.605V12.4058C87.605 11.6822 87.2905 11.3223 86.6333 11.3223C86.4846 11.3154 86.336 11.3407 86.198 11.3965C86.0599 11.4524 85.9356 11.5374 85.8335 11.6458C85.7313 11.7542 85.6539 11.8833 85.6063 12.0245C85.5588 12.1656 85.5423 12.3153 85.5581 12.4634V15.0977H84.6694V10.5948Z" fill="white"/>
<path d="M93.5151 9.47363V10.6152H94.4907V11.3638H93.5151V13.6792C93.5151 14.1509 93.7095 14.3574 94.1519 14.3574C94.2651 14.3571 94.3783 14.3502 94.4907 14.3369V15.0771C94.3311 15.1057 94.1694 15.1209 94.0073 15.1226C93.019 15.1226 92.6255 14.7749 92.6255 13.9067V11.3637H91.9106V10.6152H92.6255V9.47363H93.5151Z" fill="white"/>
<path d="M95.7046 8.83691H96.5854V11.3184H96.6558C96.7739 11.059 96.9691 10.8425 97.2148 10.6981C97.4605 10.5538 97.7447 10.4887 98.0288 10.5117C98.2467 10.4999 98.4646 10.5363 98.6669 10.6183C98.8692 10.7003 99.0508 10.826 99.199 10.9863C99.3471 11.1467 99.458 11.3377 99.5238 11.5459C99.5896 11.754 99.6086 11.9741 99.5795 12.1904V15.0977H98.69V12.4097C98.69 11.6904 98.355 11.3262 97.7271 11.3262C97.5743 11.3136 97.4207 11.3346 97.2769 11.3877C97.1332 11.4407 97.0027 11.5246 96.8947 11.6333C96.7867 11.742 96.7038 11.8731 96.6517 12.0172C96.5997 12.1613 96.5797 12.3151 96.5933 12.4678V15.0976H95.7046L95.7046 8.83691Z" fill="white"/>
<path d="M104.761 13.8819C104.641 14.2934 104.379 14.6494 104.022 14.8876C103.666 15.1257 103.236 15.2309 102.81 15.1846C102.513 15.1925 102.219 15.1356 101.946 15.0181C101.674 14.9006 101.43 14.7252 101.232 14.504C101.034 14.2829 100.887 14.0213 100.8 13.7375C100.713 13.4537 100.689 13.1544 100.73 12.8604C100.691 12.5655 100.715 12.2656 100.801 11.9809C100.888 11.6963 101.034 11.4335 101.231 11.2104C101.428 10.9874 101.671 10.8092 101.942 10.688C102.214 10.5668 102.509 10.5054 102.806 10.5079C104.059 10.5079 104.815 11.3639 104.815 12.7779V13.088H101.635V13.1378C101.621 13.303 101.642 13.4694 101.696 13.6261C101.75 13.7829 101.837 13.9266 101.95 14.048C102.062 14.1695 102.2 14.266 102.352 14.3314C102.504 14.3968 102.669 14.4296 102.835 14.4278C103.047 14.4533 103.262 14.415 103.453 14.3178C103.644 14.2206 103.802 14.0689 103.906 13.8819L104.761 13.8819ZM101.635 12.4307H103.91C103.921 12.2796 103.9 12.1278 103.849 11.9851C103.798 11.8424 103.718 11.7119 103.614 11.602C103.509 11.4922 103.383 11.4054 103.243 11.3472C103.103 11.289 102.953 11.2608 102.801 11.2642C102.648 11.2623 102.495 11.2912 102.353 11.3491C102.21 11.4071 102.081 11.4929 101.972 11.6016C101.864 11.7103 101.778 11.8397 101.72 11.9821C101.662 12.1245 101.633 12.277 101.635 12.4307Z" fill="white"/>
</g>
<defs>
<clipPath id="clip0_887_3605">
<rect width="119.664" height="40" fill="white" transform="translate(0 0.399902)"/>
</clipPath>
</defs>
</svg>
