<svg width="8" height="15" viewBox="0 0 8 15" fill="none" xmlns="http://www.w3.org/2000/svg">
<path d="M0.62905 0.689843C0.535321 0.782806 0.460927 0.893406 0.410158 1.01527C0.359389 1.13713 0.333251 1.26783 0.333251 1.39984C0.333251 1.53185 0.359389 1.66256 0.410158 1.78442C0.460927 1.90628 0.535321 2.01688 0.62905 2.10984L5.20905 6.68984C5.30278 6.78281 5.37717 6.89341 5.42794 7.01527C5.47871 7.13712 5.50485 7.26783 5.50485 7.39984C5.50485 7.53185 5.47871 7.66256 5.42794 7.78442C5.37717 7.90628 5.30278 8.01688 5.20905 8.10984L0.62905 12.6898C0.535322 12.7828 0.460927 12.8934 0.410159 13.0153C0.35939 13.1371 0.333252 13.2678 0.333252 13.3998C0.333252 13.5319 0.35939 13.6626 0.410159 13.7844C0.460927 13.9063 0.535322 14.0169 0.62905 14.1098C0.816413 14.2961 1.06986 14.4006 1.33405 14.4006C1.59824 14.4006 1.85169 14.2961 2.03905 14.1098L6.62905 9.51984C7.19085 8.95734 7.50641 8.19484 7.50641 7.39984C7.50641 6.60484 7.19085 5.84234 6.62905 5.27984L2.03905 0.689843C1.85169 0.503592 1.59824 0.399049 1.33405 0.399049C1.06986 0.399049 0.816412 0.503592 0.62905 0.689843Z" fill="white"/>
</svg>
