<svg width="21" height="20" viewBox="0 0 21 20" fill="none" xmlns="http://www.w3.org/2000/svg">
<g clip-path="url(#clip0_171_5980)">
<path d="M19.6666 13.3334H2.73414L2.74581 13.3209L4.61581 11.4168C4.69763 11.3399 4.76308 11.2473 4.80822 11.1445C4.85336 11.0417 4.87727 10.9308 4.8785 10.8186C4.87974 10.7063 4.85828 10.595 4.81541 10.4912C4.77254 10.3874 4.70914 10.2934 4.62903 10.2148C4.54892 10.1361 4.45374 10.0745 4.34921 10.0335C4.24467 9.99254 4.13294 9.97313 4.02072 9.97643C3.9085 9.97973 3.79811 10.0057 3.69616 10.0527C3.59422 10.0997 3.50283 10.1669 3.42747 10.2501L1.56164 12.1476C1.42581 12.2834 1.23581 12.4918 1.04164 12.7109C0.692959 13.1052 0.500488 13.6133 0.500488 14.1397C0.500488 14.666 0.692959 15.1742 1.04164 15.5684C1.23581 15.7868 1.42581 15.9951 1.55664 16.1268L3.42747 18.0301C3.58431 18.1774 3.79206 18.2584 4.00723 18.256C4.2224 18.2537 4.42832 18.1681 4.58187 18.0174C4.73543 17.8666 4.82471 17.6623 4.83104 17.4472C4.83736 17.2321 4.76024 17.0229 4.61581 16.8634L2.78664 15.0001H19.6666C19.8877 15.0001 20.0996 14.9123 20.2559 14.756C20.4122 14.5997 20.5 14.3878 20.5 14.1668C20.5 13.9457 20.4122 13.7338 20.2559 13.5775C20.0996 13.4212 19.8877 13.3334 19.6666 13.3334Z" fill="white"/>
<path d="M1.33333 6.66666H18.2125L16.3842 8.52749C16.3023 8.60436 16.2369 8.69698 16.1918 8.79977C16.1466 8.90256 16.1227 9.01341 16.1215 9.12568C16.1202 9.23794 16.1417 9.34929 16.1846 9.45305C16.2274 9.55681 16.2908 9.65084 16.3709 9.72949C16.4511 9.80814 16.5462 9.8698 16.6508 9.91075C16.7553 9.9517 16.867 9.97112 16.9793 9.96781C17.0915 9.96451 17.2019 9.93857 17.3038 9.89155C17.4058 9.84452 17.4971 9.77738 17.5725 9.69416L19.4383 7.79499C19.5742 7.65916 19.7642 7.45083 19.9583 7.23249C20.307 6.83823 20.4995 6.33007 20.4995 5.80374C20.4995 5.27741 20.307 4.76925 19.9583 4.37499C19.7642 4.15583 19.5742 3.94749 19.4433 3.81666L17.5725 1.91666C17.4157 1.76932 17.2079 1.68836 16.9927 1.69072C16.7776 1.69309 16.5717 1.7786 16.4181 1.92936C16.2645 2.08011 16.1753 2.28442 16.1689 2.49951C16.1626 2.71461 16.2397 2.92381 16.3842 3.08333L18.26 4.99166L18.2667 4.99999H1.33333C1.11232 4.99999 0.900358 5.08779 0.744078 5.24407C0.587797 5.40035 0.5 5.61231 0.5 5.83333C0.5 6.05434 0.587797 6.2663 0.744078 6.42258C0.900358 6.57886 1.11232 6.66666 1.33333 6.66666Z" fill="white"/>
</g>
<defs>
<clipPath id="clip0_171_5980">
<rect width="20" height="20" fill="white" transform="translate(0.5)"/>
</clipPath>
</defs>
</svg>
