<svg width="24" height="25" viewBox="0 0 24 25" fill="none" xmlns="http://www.w3.org/2000/svg">
<path d="M23.0001 16.3999H2.68112L2.69512 16.3849L4.93912 14.0999C5.0373 14.0077 5.11584 13.8965 5.17001 13.7732C5.22418 13.6498 5.25287 13.5168 5.25435 13.3821C5.25583 13.2474 5.23008 13.1138 5.17863 12.9892C5.12719 12.8647 5.05112 12.7519 4.95498 12.6575C4.85885 12.5631 4.74463 12.4891 4.61919 12.44C4.49375 12.3909 4.35968 12.3676 4.22502 12.3715C4.09035 12.3755 3.95788 12.4066 3.83554 12.463C3.71321 12.5195 3.60354 12.6 3.51312 12.6999L1.27412 14.9769C1.11112 15.1399 0.883116 15.3899 0.650116 15.6529C0.231697 16.126 0.000732422 16.7358 0.000732422 17.3674C0.000732422 17.999 0.231697 18.6088 0.650116 19.0819C0.883116 19.3439 1.11112 19.5939 1.26812 19.7519L3.51312 22.0359C3.70131 22.2127 3.95061 22.3099 4.20882 22.307C4.46703 22.3042 4.71413 22.2016 4.8984 22.0207C5.08266 21.8398 5.1898 21.5946 5.19739 21.3365C5.20498 21.0784 5.11243 20.8273 4.93912 20.6359L2.74412 18.3999H23.0001C23.2653 18.3999 23.5197 18.2946 23.7072 18.107C23.8948 17.9195 24.0001 17.6651 24.0001 17.3999C24.0001 17.1347 23.8948 16.8803 23.7072 16.6928C23.5197 16.5053 23.2653 16.3999 23.0001 16.3999Z" fill="#003462"/>
<path d="M1 8.39989H21.255L19.061 10.6329C18.9628 10.7251 18.8843 10.8363 18.8301 10.9596C18.7759 11.083 18.7473 11.216 18.7458 11.3507C18.7443 11.4854 18.77 11.6191 18.8215 11.7436C18.8729 11.8681 18.949 11.9809 19.0451 12.0753C19.1413 12.1697 19.2555 12.2437 19.3809 12.2928C19.5064 12.3419 19.6404 12.3652 19.7751 12.3613C19.9098 12.3573 20.0422 12.3262 20.1646 12.2698C20.2869 12.2133 20.3966 12.1328 20.487 12.0329L22.726 9.75389C22.889 9.59089 23.117 9.34089 23.35 9.07889C23.7684 8.60578 23.9994 7.99599 23.9994 7.36439C23.9994 6.7328 23.7684 6.12301 23.35 5.64989C23.117 5.38689 22.889 5.13689 22.732 4.97989L20.487 2.69989C20.2988 2.52308 20.0495 2.42593 19.7913 2.42877C19.5331 2.43161 19.286 2.53422 19.1017 2.71513C18.9175 2.89603 18.8103 3.1412 18.8027 3.39932C18.7951 3.65743 18.8877 3.90847 19.061 4.09989L21.312 6.38989L21.32 6.39989H1C0.734784 6.39989 0.48043 6.50525 0.292893 6.69279C0.105357 6.88032 0 7.13468 0 7.39989C0 7.66511 0.105357 7.91946 0.292893 8.107C0.48043 8.29454 0.734784 8.39989 1 8.39989Z" fill="#003462"/>
</svg>
