<svg width="32" height="32" viewBox="0 0 32 32" fill="none" xmlns="http://www.w3.org/2000/svg">
<path d="M30.6668 21.3334H3.57482L3.59349 21.3134L6.58549 18.2668C6.71641 18.1438 6.82112 17.9956 6.89335 17.8311C6.96557 17.6667 7.00382 17.4893 7.0058 17.3097C7.00777 17.13 6.97344 16.9519 6.90484 16.7859C6.83625 16.6198 6.73482 16.4694 6.60664 16.3436C6.47846 16.2177 6.32617 16.1191 6.15892 16.0535C5.99167 15.988 5.8129 15.957 5.63335 15.9622C5.4538 15.9675 5.27717 16.009 5.11406 16.0843C4.95095 16.1595 4.80472 16.2669 4.68415 16.4001L1.69882 19.4361C1.48149 19.6534 1.17749 19.9868 0.866821 20.3374C0.30893 20.9682 0.000976563 21.7813 0.000976562 22.6234C0.000976562 23.4656 0.30893 24.2786 0.866821 24.9094C1.17749 25.2588 1.48149 25.5921 1.69082 25.8028L4.68415 28.8481C4.93509 29.0838 5.26748 29.2134 5.61176 29.2096C5.95604 29.2058 6.28551 29.069 6.53119 28.8278C6.77688 28.5866 6.91973 28.2597 6.92985 27.9155C6.93998 27.5714 6.81658 27.2367 6.58549 26.9814L3.65882 24.0001H30.6668C31.0204 24.0001 31.3596 23.8596 31.6096 23.6096C31.8597 23.3595 32.0002 23.0204 32.0002 22.6668C32.0002 22.3131 31.8597 21.974 31.6096 21.724C31.3596 21.4739 31.0204 21.3334 30.6668 21.3334Z" fill="white"/>
<path d="M1.33333 10.6667H28.34L25.4147 13.644C25.2838 13.767 25.179 13.9152 25.1068 14.0796C25.0346 14.2441 24.9963 14.4215 24.9944 14.6011C24.9924 14.7807 25.0267 14.9589 25.0953 15.1249C25.1639 15.2909 25.2653 15.4413 25.3935 15.5672C25.5217 15.693 25.674 15.7917 25.8412 15.8572C26.0085 15.9227 26.1873 15.9538 26.3668 15.9485C26.5464 15.9432 26.723 15.9017 26.8861 15.8265C27.0492 15.7512 27.1954 15.6438 27.316 15.5107L30.3013 12.472C30.5187 12.2547 30.8227 11.9213 31.1333 11.572C31.6912 10.9412 31.9992 10.1281 31.9992 9.28599C31.9992 8.44386 31.6912 7.63081 31.1333 6.99999C30.8227 6.64932 30.5187 6.31599 30.3093 6.10665L27.316 3.06665C27.0651 2.83091 26.7327 2.70137 26.3884 2.70516C26.0441 2.70895 25.7146 2.84576 25.469 3.08697C25.2233 3.32817 25.0804 3.65507 25.0703 3.99922C25.0602 4.34337 25.1836 4.67809 25.4147 4.93332L28.416 7.98665L28.4267 7.99999H1.33333C0.979711 7.99999 0.640573 8.14046 0.390524 8.39051C0.140476 8.64056 0 8.9797 0 9.33332C0 9.68694 0.140476 10.0261 0.390524 10.2761C0.640573 10.5262 0.979711 10.6667 1.33333 10.6667Z" fill="white"/>
</svg>
