<svg width="18" height="19" viewBox="0 0 18 19" fill="none" xmlns="http://www.w3.org/2000/svg">
<g clip-path="url(#clip0_1360_2891)">
<path d="M15.75 3.40002H13.425C13.2509 2.55358 12.7904 1.79303 12.1209 1.24656C11.4515 0.700092 10.6142 0.401115 9.75 0.400024L8.25 0.400024C7.38585 0.401115 6.54849 0.700092 5.87906 1.24656C5.20964 1.79303 4.74907 2.55358 4.575 3.40002H2.25C2.05109 3.40002 1.86032 3.47904 1.71967 3.61969C1.57902 3.76035 1.5 3.95111 1.5 4.15002C1.5 4.34894 1.57902 4.5397 1.71967 4.68035C1.86032 4.82101 2.05109 4.90002 2.25 4.90002H3V14.65C3.00119 15.6442 3.39666 16.5974 4.09966 17.3004C4.80267 18.0034 5.7558 18.3988 6.75 18.4H11.25C12.2442 18.3988 13.1973 18.0034 13.9003 17.3004C14.6033 16.5974 14.9988 15.6442 15 14.65V4.90002H15.75C15.9489 4.90002 16.1397 4.82101 16.2803 4.68035C16.421 4.5397 16.5 4.34894 16.5 4.15002C16.5 3.95111 16.421 3.76035 16.2803 3.61969C16.1397 3.47904 15.9489 3.40002 15.75 3.40002ZM8.25 1.90002H9.75C10.2152 1.90059 10.6688 2.04506 11.0487 2.31361C11.4286 2.58216 11.7161 2.96164 11.8717 3.40002H6.12825C6.28394 2.96164 6.57143 2.58216 6.95129 2.31361C7.33115 2.04506 7.78479 1.90059 8.25 1.90002ZM13.5 14.65C13.5 15.2468 13.2629 15.8191 12.841 16.241C12.419 16.663 11.8467 16.9 11.25 16.9H6.75C6.15326 16.9 5.58097 16.663 5.15901 16.241C4.73705 15.8191 4.5 15.2468 4.5 14.65V4.90002H13.5V14.65Z" fill="#003462"/>
<path d="M7.5 13.9C7.69891 13.9 7.88968 13.821 8.03033 13.6804C8.17098 13.5397 8.25 13.3489 8.25 13.15V8.65002C8.25 8.45111 8.17098 8.26035 8.03033 8.11969C7.88968 7.97904 7.69891 7.90002 7.5 7.90002C7.30109 7.90002 7.11032 7.97904 6.96967 8.11969C6.82902 8.26035 6.75 8.45111 6.75 8.65002V13.15C6.75 13.3489 6.82902 13.5397 6.96967 13.6804C7.11032 13.821 7.30109 13.9 7.5 13.9Z" fill="#003462"/>
<path d="M10.5 13.9C10.6989 13.9 10.8897 13.821 11.0303 13.6804C11.171 13.5397 11.25 13.3489 11.25 13.15V8.65002C11.25 8.45111 11.171 8.26035 11.0303 8.11969C10.8897 7.97904 10.6989 7.90002 10.5 7.90002C10.3011 7.90002 10.1103 7.97904 9.96967 8.11969C9.82902 8.26035 9.75 8.45111 9.75 8.65002V13.15C9.75 13.3489 9.82902 13.5397 9.96967 13.6804C10.1103 13.821 10.3011 13.9 10.5 13.9Z" fill="#003462"/>
</g>
<defs>
<clipPath id="clip0_1360_2891">
<rect width="18" height="18" fill="white" transform="translate(0 0.400024)"/>
</clipPath>
</defs>
</svg>
