<svg width="16" height="16" viewBox="0 0 16 16" fill="none" xmlns="http://www.w3.org/2000/svg">
<g clip-path="url(#clip0_3863_2188)">
<path d="M13.4 3.20005H11.54C11.4007 2.5229 11.0323 1.91446 10.4968 1.47728C9.96121 1.0401 9.29132 0.800922 8.6 0.800049L7.4 0.800049C6.70868 0.800922 6.03879 1.0401 5.50325 1.47728C4.96771 1.91446 4.59926 2.5229 4.46 3.20005H2.6C2.44087 3.20005 2.28826 3.26326 2.17574 3.37578C2.06321 3.48831 2 3.64092 2 3.80005C2 3.95918 2.06321 4.11179 2.17574 4.22431C2.28826 4.33683 2.44087 4.40005 2.6 4.40005H3.2V12.2C3.20095 12.9954 3.51733 13.7579 4.07973 14.3203C4.64213 14.8827 5.40464 15.1991 6.2 15.2H9.8C10.5954 15.1991 11.3579 14.8827 11.9203 14.3203C12.4827 13.7579 12.799 12.9954 12.8 12.2V4.40005H13.4C13.5591 4.40005 13.7117 4.33683 13.8243 4.22431C13.9368 4.11179 14 3.95918 14 3.80005C14 3.64092 13.9368 3.48831 13.8243 3.37578C13.7117 3.26326 13.5591 3.20005 13.4 3.20005ZM7.4 2.00005H8.6C8.97216 2.0005 9.33508 2.11607 9.63897 2.33091C9.94286 2.54576 10.1729 2.84934 10.2974 3.20005H5.7026C5.82715 2.84934 6.05714 2.54576 6.36103 2.33091C6.66492 2.11607 7.02784 2.0005 7.4 2.00005ZM11.6 12.2C11.6 12.6774 11.4104 13.1353 11.0728 13.4728C10.7352 13.8104 10.2774 14 9.8 14H6.2C5.72261 14 5.26477 13.8104 4.92721 13.4728C4.58964 13.1353 4.4 12.6774 4.4 12.2V4.40005H11.6V12.2Z" fill="#003462"/>
<path d="M6.8002 11.6C6.95933 11.6 7.11194 11.5368 7.22446 11.4243C7.33698 11.3118 7.4002 11.1592 7.4002 11V7.40005C7.4002 7.24092 7.33698 7.08831 7.22446 6.97578C7.11194 6.86326 6.95933 6.80005 6.8002 6.80005C6.64107 6.80005 6.48845 6.86326 6.37593 6.97578C6.26341 7.08831 6.2002 7.24092 6.2002 7.40005V11C6.2002 11.1592 6.26341 11.3118 6.37593 11.4243C6.48845 11.5368 6.64107 11.6 6.8002 11.6Z" fill="#003462"/>
<path d="M9.2001 11.6C9.35923 11.6 9.51184 11.5368 9.62436 11.4243C9.73688 11.3118 9.8001 11.1592 9.8001 11V7.40005C9.8001 7.24092 9.73688 7.08831 9.62436 6.97578C9.51184 6.86326 9.35923 6.80005 9.2001 6.80005C9.04097 6.80005 8.88836 6.86326 8.77583 6.97578C8.66331 7.08831 8.6001 7.24092 8.6001 7.40005V11C8.6001 11.1592 8.66331 11.3118 8.77583 11.4243C8.88836 11.5368 9.04097 11.6 9.2001 11.6Z" fill="black"/>
</g>
<defs>
<clipPath id="clip0_3863_2188">
<rect width="14.4" height="14.4" fill="white" transform="translate(0.799805 0.800049)"/>
</clipPath>
</defs>
</svg>
