<svg width="18" height="19" viewBox="0 0 18 19" fill="none" xmlns="http://www.w3.org/2000/svg">
<g clip-path="url(#clip0_4730_5721)">
<path d="M13.992 0.898238L4.84802 10.0422C4.49877 10.3896 4.2219 10.8028 4.03343 11.2579C3.84495 11.713 3.74862 12.2009 3.75001 12.6935V13.7007C3.75001 13.8997 3.82903 14.0904 3.96968 14.2311C4.11034 14.3717 4.3011 14.4507 4.50001 14.4507H5.50726C5.99984 14.4521 6.48779 14.3558 6.94288 14.1673C7.39797 13.9789 7.81116 13.702 8.15851 13.3527L17.3025 4.20874C17.7408 3.76937 17.987 3.17409 17.987 2.55349C17.987 1.93288 17.7408 1.33761 17.3025 0.898238C16.8568 0.472158 16.2639 0.234375 15.6473 0.234375C15.0306 0.234375 14.4378 0.472158 13.992 0.898238ZM16.242 3.14824L7.09801 12.2922C6.67511 12.7126 6.10352 12.9492 5.50726 12.9507H5.25001V12.6935C5.25158 12.0972 5.48819 11.5256 5.90851 11.1027L15.0525 1.95874C15.2127 1.8057 15.4257 1.72031 15.6473 1.72031C15.8688 1.72031 16.0818 1.8057 16.242 1.95874C16.3995 2.11662 16.4879 2.33051 16.4879 2.55349C16.4879 2.77647 16.3995 2.99035 16.242 3.14824Z" fill="#003462"/>
<path d="M17.25 6.93542C17.0511 6.93542 16.8603 7.01444 16.7197 7.15509C16.579 7.29574 16.5 7.48651 16.5 7.68542V11.4512H13.5C12.9033 11.4512 12.331 11.6882 11.909 12.1102C11.4871 12.5321 11.25 13.1044 11.25 13.7012V16.7012H3.75C3.15326 16.7012 2.58097 16.4641 2.15901 16.0422C1.73705 15.6202 1.5 15.0479 1.5 14.4512V3.95117C1.5 3.35443 1.73705 2.78214 2.15901 2.36018C2.58097 1.93823 3.15326 1.70117 3.75 1.70117H10.5315C10.7304 1.70117 10.9212 1.62215 11.0618 1.4815C11.2025 1.34085 11.2815 1.15008 11.2815 0.951172C11.2815 0.75226 11.2025 0.561494 11.0618 0.420842C10.9212 0.28019 10.7304 0.201172 10.5315 0.201172L3.75 0.201172C2.7558 0.202363 1.80267 0.597833 1.09967 1.30084C0.396662 2.00384 0.00119089 2.95698 0 3.95117L0 14.4512C0.00119089 15.4454 0.396662 16.3985 1.09967 17.1015C1.80267 17.8045 2.7558 18.2 3.75 18.2012H12.2573C12.7499 18.2026 13.238 18.1063 13.6932 17.9178C14.1484 17.7293 14.5618 17.4524 14.9093 17.1032L16.9013 15.1097C17.2506 14.7623 17.5275 14.3492 17.7161 13.8941C17.9047 13.439 18.0012 12.951 18 12.4584V7.68542C18 7.48651 17.921 7.29574 17.7803 7.15509C17.6397 7.01444 17.4489 6.93542 17.25 6.93542ZM13.8488 16.0427C13.5473 16.3434 13.166 16.5516 12.75 16.6427V13.7012C12.75 13.5023 12.829 13.3115 12.9697 13.1708C13.1103 13.0302 13.3011 12.9512 13.5 12.9512H16.4438C16.351 13.3663 16.143 13.7469 15.8438 14.0492L13.8488 16.0427Z" fill="#003462"/>
</g>
<defs>
<clipPath id="clip0_4730_5721">
<rect width="18" height="18" fill="white" transform="translate(0 0.201172)"/>
</clipPath>
</defs>
</svg>
