<svg width="16" height="16" viewBox="0 0 16 16" fill="none" xmlns="http://www.w3.org/2000/svg">
<g clip-path="url(#clip0_10469_16549)">
<path d="M15.8806 7.454C15.2953 6.174 13 2 7.99998 2C2.99998 2 0.704642 6.174 0.119309 7.454C0.0407341 7.62553 6.10352e-05 7.81199 6.10352e-05 8.00067C6.10352e-05 8.18934 0.0407341 8.3758 0.119309 8.54733C0.704642 9.826 2.99998 14 7.99998 14C13 14 15.2953 9.826 15.8806 8.546C15.9591 8.37466 15.9997 8.18843 15.9997 8C15.9997 7.81157 15.9591 7.62534 15.8806 7.454ZM7.99998 12.6667C3.79531 12.6667 1.83331 9.08933 1.33331 8.00733C1.83331 6.91067 3.79531 3.33333 7.99998 3.33333C12.1946 3.33333 14.1573 6.89533 14.6666 8C14.1573 9.10467 12.1946 12.6667 7.99998 12.6667Z" fill="#003462"/>
<path d="M7.99996 4.66675C7.34069 4.66675 6.69622 4.86224 6.14806 5.22852C5.5999 5.59479 5.17265 6.11538 4.92036 6.72447C4.66807 7.33356 4.60206 8.00378 4.73068 8.65038C4.85929 9.29699 5.17676 9.89093 5.64294 10.3571C6.10911 10.8233 6.70306 11.1407 7.34966 11.2694C7.99626 11.398 8.66649 11.332 9.27557 11.0797C9.88466 10.8274 10.4053 10.4001 10.7715 9.85198C11.1378 9.30382 11.3333 8.65935 11.3333 8.00008C11.3322 7.11635 10.9807 6.26912 10.3558 5.64423C9.73092 5.01934 8.88369 4.66781 7.99996 4.66675ZM7.99996 10.0001C7.6044 10.0001 7.21772 9.88278 6.88882 9.66302C6.55992 9.44326 6.30358 9.1309 6.1522 8.76545C6.00083 8.4 5.96122 7.99786 6.03839 7.6099C6.11556 7.22194 6.30604 6.86557 6.58575 6.58587C6.86545 6.30616 7.22182 6.11568 7.60978 6.03851C7.99774 5.96134 8.39988 6.00095 8.76533 6.15232C9.13078 6.3037 9.44314 6.56004 9.6629 6.88894C9.88266 7.21784 9.99996 7.60452 9.99996 8.00008C9.99996 8.53051 9.78925 9.03922 9.41417 9.4143C9.0391 9.78937 8.53039 10.0001 7.99996 10.0001Z" fill="#003462"/>
</g>
<defs>
<clipPath id="clip0_10469_16549">
<rect width="16" height="16" fill="white"/>
</clipPath>
</defs>
</svg>
