<svg width="18" height="18" viewBox="0 0 18 18" fill="none" xmlns="http://www.w3.org/2000/svg">
<g clip-path="url(#clip0_4529_3385)">
<path d="M8.058 9.95927L8.1945 10.3058L5.94825 16.0238C5.7975 16.413 5.35125 16.5983 4.97625 16.4475C4.59 16.296 4.40025 15.861 4.5525 15.4755L6.2205 11.229C6.86025 10.8608 7.4715 10.3103 8.058 9.95927ZM17.7652 4.44452C17.5155 4.04852 17.1052 3.79652 16.6395 3.75302C16.287 3.72077 15.7387 3.63452 15.5587 3.57377C14.7007 3.21002 13.827 2.02802 12.873 1.71677C12.4237 1.55252 11.8845 1.48277 11.2582 1.50377C10.6905 1.52552 10.1812 1.79477 9.84825 2.21327C9.8505 2.21927 9.85425 2.22452 9.85575 2.23052L10.611 4.15202L10.965 3.25127C11.0175 3.10652 11.1547 3.00827 11.3145 3.00227C11.73 2.98502 12.0952 3.02852 12.3592 3.12527C13.2277 3.51302 14.0985 4.69577 15.075 4.99277C15.4747 5.12927 16.2465 5.22152 16.5172 5.21177L14.9977 8.65277C14.7765 9.18677 14.0857 8.97527 13.695 8.84702C13.1962 8.66252 12.54 8.09402 12.0195 7.73552L12.9735 10.1633C13.3747 10.3583 13.7932 10.443 14.2725 10.4948C15.1522 10.5735 16.0057 10.0845 16.371 9.25877L17.9085 5.77352C18.072 5.32952 18.0195 4.84502 17.7675 4.44527L17.7652 4.44452ZM13.4475 15.4755C13.599 15.861 13.4092 16.2968 13.0237 16.4475C12.6487 16.5983 12.2025 16.413 12.0517 16.0238L9.0795 8.45777C8.69925 8.40227 8.04825 8.36027 7.59 8.52827C7.242 8.65502 6.813 8.97677 6.3975 9.28802C5.57925 9.93002 4.7805 10.4235 3.72825 10.4948C2.83725 10.581 1.995 10.0838 1.62975 9.25877L0.110246 5.81777C-0.0705042 5.32877 -0.0187542 4.84502 0.233996 4.44452C0.483746 4.04852 0.893996 3.79652 1.359 3.75302C2.37675 3.68627 2.80125 3.48677 3.56475 2.77502C4.49025 1.91027 5.40075 1.41677 6.74025 1.50377C7.51425 1.53377 8.18325 2.01902 8.44425 2.74127L13.4475 15.4755ZM8.4705 6.90902L7.04175 3.27077C6.96225 3.03302 6.73275 2.98427 6.51825 3.00002C5.62125 2.97677 5.2425 3.30302 4.54275 3.91277C3.771 4.72877 2.53425 5.24102 1.497 5.24702L3.00225 8.65352C3.105 8.88677 3.34125 9.02777 3.58425 9.00227C4.37175 8.94452 4.815 8.60102 5.4975 8.08802C6 7.71227 6.51825 7.32302 7.0755 7.11977C7.533 6.95252 8.03175 6.90077 8.4705 6.90977V6.90902Z" fill="#AF7E3C"/>
</g>
<defs>
<clipPath id="clip0_4529_3385">
<rect width="18" height="18" fill="white"/>
</clipPath>
</defs>
</svg>
