<svg width="135" height="41" viewBox="0 0 135 41" fill="none" xmlns="http://www.w3.org/2000/svg">
<g clip-path="url(#clip0_1090_3961)">
<path d="M129.998 40.3999H5.00256C2.25261 40.3999 0.00268555 38.1499 0.00268555 35.4V5.40054C0.00268555 2.65057 2.25261 0.400635 5.00256 0.400635H129.998C132.748 0.400635 134.997 2.65057 134.997 5.40054V35.4C134.997 38.1499 132.748 40.3999 129.998 40.3999Z" fill="#003462"/>
<path d="M129.998 0.400635H5.00256C2.25261 0.400635 0.00268555 2.65057 0.00268555 5.40054V35.4C0.00268555 38.1499 2.25261 40.3999 5.00256 40.3999H129.998C132.748 40.3999 134.997 38.1499 134.997 35.4V5.40054C134.997 2.65057 132.748 0.400635 129.998 0.400635ZM129.998 1.20021C132.313 1.20021 134.197 3.0846 134.197 5.40054V35.4C134.197 37.7159 132.314 39.6003 129.998 39.6003H5.00256C2.68664 39.6003 0.803086 37.7159 0.803086 35.4V5.40054C0.803086 3.0846 2.68664 1.20021 5.00256 1.20021H129.998Z" fill="#003462"/>
<path d="M106.935 30.4001H108.801V17.8982H106.935V30.4001ZM123.742 22.402L121.603 27.8219H121.539L119.319 22.402H117.309L120.639 29.9771L118.74 34.191H120.686L125.817 22.4024L123.742 22.402ZM113.159 28.98C112.549 28.98 111.696 28.6741 111.696 27.9183C111.696 26.9534 112.758 26.5835 113.674 26.5835C114.494 26.5835 114.881 26.7601 115.379 27.0015C115.234 28.1597 114.237 28.98 113.159 28.98ZM113.385 22.1286C112.034 22.1286 110.635 22.7239 110.056 24.0427L111.712 24.734C112.066 24.0427 112.725 23.8177 113.417 23.8177C114.382 23.8177 115.363 24.3962 115.379 25.4258V25.5543C115.041 25.3613 114.317 25.072 113.433 25.072C111.647 25.072 109.83 26.0527 109.83 27.8863C109.83 29.5589 111.294 30.6366 112.934 30.6366C114.188 30.6366 114.881 30.0737 115.314 29.414H115.379V30.3796H117.181V25.5863C117.181 23.3668 115.523 22.1286 113.385 22.1286ZM101.853 23.9239H99.1993V19.6389H101.853C103.248 19.6389 104.04 20.7936 104.04 21.7813C104.04 22.7501 103.248 23.9239 101.853 23.9239ZM101.805 17.8985H97.3342V30.4004H99.1994V25.6642H101.805C103.873 25.6642 105.906 24.1673 105.906 21.7818C105.906 19.3967 103.873 17.8985 101.805 17.8985ZM77.425 28.9821C76.1359 28.9821 75.0571 27.9024 75.0571 26.4208C75.0571 24.922 76.1359 23.8271 77.425 23.8271C78.6977 23.8271 79.6965 24.9221 79.6965 26.4208C79.6965 27.9024 78.6977 28.9821 77.425 28.9821ZM79.5676 23.1019H79.5031C79.0844 22.6026 78.2785 22.1514 77.2641 22.1514C75.1372 22.1514 73.188 24.0205 73.188 26.4208C73.188 28.8048 75.1372 30.6575 77.2641 30.6575C78.2785 30.6575 79.0843 30.2063 79.5031 29.6911H79.5676V30.3028C79.5676 31.9305 78.6977 32.8 77.2961 32.8C76.1527 32.8 75.4438 31.9785 75.1536 31.2859L73.5268 31.9624C73.9935 33.0897 75.2337 34.4757 77.2962 34.4757C79.4875 34.4757 81.3402 33.1866 81.3402 30.0449V22.4091H79.5676L79.5676 23.1019ZM82.6292 30.3997H84.4972V17.8979H82.6292V30.3997ZM87.2522 26.2756C87.2041 24.6322 88.5256 23.7947 89.4756 23.7947C90.217 23.7947 90.8446 24.1654 91.0549 24.6967L87.2522 26.2756ZM93.0517 24.8576C92.6974 23.9077 91.6181 22.1514 89.4111 22.1514C87.2197 22.1514 85.3995 23.8752 85.3995 26.4045C85.3995 28.7888 87.2041 30.6575 89.6201 30.6575C91.5693 30.6575 92.6974 29.4658 93.1649 28.7728L91.7149 27.806C91.2314 28.515 90.5713 28.9822 89.6201 28.9822C88.6702 28.9822 87.9932 28.5471 87.5589 27.6932L93.245 25.3413L93.0517 24.8576ZM47.7449 23.4565V25.2607H52.0623C51.9334 26.2756 51.5951 27.0166 51.0795 27.5322C50.451 28.1603 49.4683 28.8533 47.7448 28.8533C45.0866 28.8533 43.0086 26.7107 43.0086 24.0526C43.0086 21.3944 45.0866 19.2516 47.7448 19.2516C49.1787 19.2516 50.2256 19.8155 50.9989 20.5405L52.272 19.2675C51.1923 18.2366 49.7587 17.4473 47.7448 17.4473C44.1034 17.4473 41.0426 20.4116 41.0426 24.0526C41.0426 27.6932 44.1034 30.6575 47.7448 30.6575C49.71 30.6575 51.1924 30.0131 52.3521 28.8049C53.5443 27.6127 53.9149 25.9373 53.9149 24.5839C53.9149 24.1655 53.8824 23.7788 53.818 23.4565H47.7449ZM58.8239 28.9821C57.5348 28.9821 56.4232 27.9188 56.4232 26.4045C56.4232 24.874 57.5348 23.8272 58.8239 23.8272C60.1125 23.8272 61.2241 24.874 61.2241 26.4045C61.2241 27.9188 60.1125 28.9821 58.8239 28.9821ZM58.8239 22.1514C56.4712 22.1514 54.5544 23.9396 54.5544 26.4045C54.5544 28.8533 56.4712 30.6575 58.8239 30.6575C61.1758 30.6575 63.0929 28.8533 63.0929 26.4045C63.0929 23.9396 61.1758 22.1514 58.8239 22.1514ZM68.1367 28.9821C66.8485 28.9821 65.7364 27.9188 65.7364 26.4045C65.7364 24.874 66.8485 23.8272 68.1367 23.8272C69.4258 23.8272 70.537 24.874 70.537 26.4045C70.537 27.9188 69.4258 28.9821 68.1367 28.9821ZM68.1367 22.1514C65.7848 22.1514 63.868 23.9396 63.868 26.4045C63.868 28.8533 65.7848 30.6575 68.1367 30.6575C70.4894 30.6575 72.4062 28.8533 72.4062 26.4045C72.4062 23.9396 70.4894 22.1514 68.1367 22.1514Z" fill="white"/>
<path d="M20.7165 19.8244L10.071 31.1239C10.0714 31.1262 10.0722 31.1282 10.0726 31.1306C10.3991 32.3576 11.5198 33.2611 12.8499 33.2611C13.3816 33.2611 13.8807 33.1173 14.3088 32.865L14.3428 32.845L26.3263 25.93L20.7165 19.8244Z" fill="#EB3131"/>
<path d="M31.4872 17.9005L31.477 17.8936L26.3034 14.8943L20.4746 20.081L26.3236 25.9293L31.47 22.9599C32.3722 22.4728 32.9848 21.5216 32.9848 20.4247C32.9848 19.3357 32.3806 18.3892 31.4872 17.9005Z" fill="#F6B60B"/>
<path d="M10.0696 9.67749C10.0056 9.91349 9.97192 10.1607 9.97192 10.4174V30.3848C9.97192 30.641 10.0052 30.889 10.07 31.1242L21.083 20.1133L10.0696 9.67749Z" fill="#5778C5"/>
<path d="M20.7952 20.401L26.3057 14.8921L14.3357 7.95201C13.9006 7.69141 13.3928 7.54102 12.8494 7.54102C11.5194 7.54102 10.3971 8.44612 10.0706 9.67455C10.0702 9.67575 10.0702 9.67658 10.0702 9.67763L20.7952 20.401Z" fill="#3BAD49"/>
<path d="M47.3947 10.1815H44.4776V10.9034H46.6635C46.6041 11.4925 46.3698 11.955 45.9745 12.2909C45.5792 12.6269 45.0745 12.7956 44.4776 12.7956C43.8229 12.7956 43.2682 12.5675 42.8137 12.1144C42.3683 11.6519 42.1418 11.08 42.1418 10.391C42.1418 9.70201 42.3683 9.13009 42.8137 8.66764C43.2682 8.21454 43.8229 7.98795 44.4776 7.98795C44.8136 7.98795 45.1339 8.04575 45.4276 8.17235C45.7213 8.29884 45.9572 8.47544 46.1416 8.70204L46.6963 8.14735C46.4447 7.86136 46.126 7.64266 45.7306 7.48327C45.3353 7.32387 44.9229 7.24737 44.4775 7.24737C43.6041 7.24737 42.8636 7.55046 42.2589 8.15517C41.6542 8.76136 41.3511 9.50826 41.3511 10.391C41.3511 11.2738 41.6542 12.0223 42.2589 12.627C42.8636 13.2316 43.6041 13.5348 44.4775 13.5348C45.3947 13.5348 46.1259 13.241 46.6884 12.6441C47.1837 12.1473 47.4368 11.4754 47.4368 10.6348C47.4368 10.4926 47.4197 10.3409 47.3947 10.1815ZM48.5248 7.38161V13.4003H52.0387V12.6612H49.2982V10.752H51.7701V10.0301H49.2982V8.12228H52.0387V7.38159L48.5248 7.38161ZM56.9661 8.1223V7.38161H52.8302V8.1223H54.5115V13.4003H55.2849V8.1223H56.9661ZM60.7104 7.38161H59.937V13.4003H60.7104V7.38161ZM65.8154 8.1223V7.38161H61.6796V8.1223H63.3607V13.4003H64.1341V8.1223H65.8154ZM73.6199 8.1645C73.023 7.55041 72.2918 7.24731 71.4183 7.24731C70.5434 7.24731 69.8122 7.55041 69.2153 8.15512C68.6184 8.75201 68.3247 9.5004 68.3247 10.391C68.3247 11.2815 68.6184 12.03 69.2153 12.6269C69.8122 13.2315 70.5434 13.5348 71.4183 13.5348C72.2839 13.5348 73.023 13.2316 73.6199 12.6269C74.2168 12.0301 74.5104 11.2816 74.5104 10.391C74.5104 9.5082 74.2167 8.76127 73.6199 8.1645ZM69.77 8.66758C70.2153 8.21449 70.7622 7.9879 71.4183 7.9879C72.073 7.9879 72.6199 8.2145 73.0574 8.66758C73.5027 9.11288 73.7214 9.69404 73.7214 10.3909C73.7214 11.0894 73.5027 11.669 73.0574 12.1144C72.6199 12.5675 72.073 12.7956 71.4183 12.7956C70.7622 12.7956 70.2153 12.5675 69.77 12.1144C69.334 11.6597 69.1153 11.0894 69.1153 10.3909C69.1153 9.69406 69.334 9.12224 69.77 8.66758ZM76.3479 9.65196L76.3152 8.49096H76.3479L79.4073 13.4003H80.215V7.38155H79.4416V10.9033L79.4744 12.0644H79.4416L76.5167 7.38155H75.5745V13.4003H76.3479V9.65196Z" fill="white" stroke="white" stroke-width="0.26666" stroke-miterlimit="10"/>
</g>
<defs>
<clipPath id="clip0_1090_3961">
<rect width="135" height="40" fill="white" transform="translate(0 0.399902)"/>
</clipPath>
</defs>
</svg>
