<svg width="70" height="70" viewBox="0 0 70 70" fill="none" xmlns="http://www.w3.org/2000/svg">
<path d="M0 16C0 7.16344 7.16344 0 16 0H54C62.8366 0 70 7.16344 70 16V54C70 62.8366 62.8366 70 54 70H16C7.16344 70 0 62.8366 0 54V16Z" fill="#EFEFEF"/>
<g clip-path="url(#clip0_12123_3913)">
<path d="M44.9375 26.9202L40.5813 22.564C38.9288 20.9115 36.7313 20.0015 34.3938 20.0015H28.75C25.3038 20.0002 22.5 22.804 22.5 26.2502V43.7502C22.5 47.1965 25.3038 50.0002 28.75 50.0002H41.25C44.6962 50.0002 47.5 47.1965 47.5 43.7502V33.1065C47.5 30.769 46.59 28.574 44.9375 26.9202ZM43.17 28.6877C43.5675 29.0852 43.9037 29.5265 44.1762 30.0002H38.75C38.0613 30.0002 37.5 29.439 37.5 28.7502V23.324C37.9738 23.5965 38.4163 23.9327 38.8125 24.3302L43.1687 28.6865L43.17 28.6877ZM45 43.7502C45 45.8177 43.3175 47.5002 41.25 47.5002H28.75C26.6825 47.5002 25 45.8177 25 43.7502V26.2502C25 24.1827 26.6825 22.5002 28.75 22.5002H34.3938C34.5975 22.5002 34.8 22.5102 35 22.529V28.7502C35 30.8177 36.6825 32.5002 38.75 32.5002H44.9712C44.99 32.7002 45 32.9027 45 33.1065V43.7502ZM39.375 36.2502H30.625C28.9025 36.2502 27.5 37.6527 27.5 39.3752V41.8752C27.5 43.5977 28.9025 45.0002 30.625 45.0002H39.375C41.0975 45.0002 42.5 43.5977 42.5 41.8752V39.3752C42.5 37.6527 41.0975 36.2502 39.375 36.2502ZM40 41.8752C40 42.2202 39.72 42.5002 39.375 42.5002H30.625C30.28 42.5002 30 42.2202 30 41.8752V39.3752C30 39.0302 30.28 38.7502 30.625 38.7502H39.375C39.72 38.7502 40 39.0302 40 39.3752V41.8752ZM27.5 32.5002C27.5 31.8102 28.06 31.2502 28.75 31.2502H31.25C31.94 31.2502 32.5 31.8102 32.5 32.5002C32.5 33.1902 31.94 33.7502 31.25 33.7502H28.75C28.06 33.7502 27.5 33.1902 27.5 32.5002ZM27.5 27.5002C27.5 26.8102 28.06 26.2502 28.75 26.2502H31.25C31.94 26.2502 32.5 26.8102 32.5 27.5002C32.5 28.1902 31.94 28.7502 31.25 28.7502H28.75C28.06 28.7502 27.5 28.1902 27.5 27.5002Z" fill="#AF7E3C"/>
</g>
<defs>
<clipPath id="clip0_12123_3913">
<rect width="30" height="30" fill="white" transform="translate(20 20)"/>
</clipPath>
</defs>
</svg>
