<svg width="70" height="70" viewBox="0 0 70 70" fill="none" xmlns="http://www.w3.org/2000/svg">
<path d="M0 16C0 7.16344 7.16344 0 16 0H54C62.8366 0 70 7.16344 70 16V54C70 62.8366 62.8366 70 54 70H16C7.16344 70 0 62.8366 0 54V16Z" fill="#EFEFEF"/>
<g clip-path="url(#clip0_12123_114)">
<path d="M49.795 30.9923C49.5393 30.1784 49.0285 29.4685 48.3381 28.9674C47.6476 28.4663 46.8143 28.2007 45.9612 28.2098H40.5L38.8412 23.0398C38.5804 22.226 38.0678 21.5161 37.3775 21.0124C36.6871 20.5087 35.8546 20.2373 35 20.2373C34.1454 20.2373 33.3129 20.5087 32.6225 21.0124C31.9322 21.5161 31.4196 22.226 31.1587 23.0398L29.5 28.2098H24.0387C23.1884 28.211 22.3602 28.4809 21.6725 28.981C20.9847 29.481 20.4725 30.1856 20.2091 30.9941C19.9457 31.8026 19.9446 32.6736 20.2058 33.4828C20.4671 34.292 20.9773 34.998 21.6637 35.4998L26.1087 38.7498L24.4187 43.9836C24.1456 44.7953 24.1422 45.6736 24.4089 46.4874C24.6756 47.3013 25.1982 48.0072 25.8987 48.4998C26.5873 49.0083 27.4217 49.2807 28.2777 49.2764C29.1336 49.2721 29.9653 48.9914 30.6487 48.4761L35 45.2736L39.3525 48.4723C40.0398 48.9779 40.8697 49.2525 41.723 49.2566C42.5762 49.2608 43.4087 48.9943 44.101 48.4955C44.7932 47.9966 45.3094 47.2911 45.5754 46.4804C45.8413 45.6697 45.8434 44.7955 45.5812 43.9836L43.8912 38.7498L48.3412 35.4998C49.0355 35.0043 49.5518 34.2983 49.8136 33.4865C50.0754 32.6747 50.0689 31.8001 49.795 30.9923ZM46.8662 33.4811L41.6862 37.2673C41.4735 37.4225 41.3152 37.641 41.2339 37.8915C41.1527 38.142 41.1526 38.4118 41.2337 38.6623L43.2025 44.7498C43.3021 45.0586 43.3013 45.391 43.2001 45.6992C43.0989 46.0075 42.9025 46.2757 42.6393 46.4653C42.376 46.6549 42.0594 46.7562 41.735 46.7545C41.4106 46.7529 41.095 46.6484 40.8337 46.4561L35.74 42.7061C35.5255 42.5485 35.2662 42.4635 35 42.4635C34.7338 42.4635 34.4745 42.5485 34.26 42.7061L29.1662 46.4561C28.9051 46.651 28.5887 46.7576 28.2628 46.7606C27.937 46.7635 27.6187 46.6626 27.354 46.4725C27.0894 46.2824 26.8922 46.0129 26.791 45.7032C26.6898 45.3934 26.6899 45.0595 26.7912 44.7498L28.7662 38.6623C28.8474 38.4118 28.8473 38.142 28.7661 37.8915C28.6848 37.641 28.5265 37.4225 28.3137 37.2673L23.1337 33.4811C22.8729 33.2901 22.679 33.0215 22.5799 32.7138C22.4808 32.406 22.4815 32.0748 22.5819 31.7674C22.6822 31.4601 22.8772 31.1923 23.1388 31.0024C23.4004 30.8124 23.7154 30.71 24.0387 30.7098H30.4137C30.6784 30.7098 30.9362 30.6258 31.1501 30.4699C31.3639 30.314 31.5228 30.0943 31.6037 29.8423L33.5412 23.8036C33.6407 23.4946 33.8356 23.2251 34.098 23.0339C34.3604 22.8427 34.6766 22.7397 35.0012 22.7397C35.3259 22.7397 35.6421 22.8427 35.9045 23.0339C36.1669 23.2251 36.3618 23.4946 36.4612 23.8036L38.3987 29.8423C38.4797 30.0943 38.6386 30.314 38.8524 30.4699C39.0663 30.6258 39.3241 30.7098 39.5887 30.7098H45.9637C46.2871 30.71 46.602 30.8124 46.8637 31.0024C47.1253 31.1923 47.3203 31.4601 47.4206 31.7674C47.521 32.0748 47.5217 32.406 47.4226 32.7138C47.3235 33.0215 47.1296 33.2901 46.8687 33.4811H46.8662Z" fill="#AF7E3C"/>
</g>
<defs>
<clipPath id="clip0_12123_114">
<rect width="30" height="30" fill="white" transform="translate(20 20)"/>
</clipPath>
</defs>
</svg>
