<svg width="70" height="70" viewBox="0 0 70 70" fill="none" xmlns="http://www.w3.org/2000/svg">
<path d="M0 16C0 7.16344 7.16344 0 16 0H54C62.8366 0 70 7.16344 70 16V54C70 62.8366 62.8366 70 54 70H16C7.16344 70 0 62.8366 0 54V16Z" fill="#EEEEEE"/>
<g clip-path="url(#clip0_12123_11427)">
<path d="M28.75 48.7498C28.75 49.4398 28.19 49.9998 27.5 49.9998H26.25C22.8038 49.9998 20 47.196 20 43.7498V32.1548C20 30.0735 21.03 28.1373 22.7538 26.9735L31.5038 21.0685C33.6275 19.636 36.3725 19.636 38.495 21.0685L47.245 26.9735C47.6387 27.2398 48.0037 27.551 48.3262 27.8985C48.7962 28.4048 48.7675 29.1948 48.2612 29.6648C47.755 30.1335 46.965 30.106 46.495 29.5998C46.3012 29.391 46.0838 29.206 45.8463 29.046L37.0975 23.141C35.8238 22.281 34.1775 22.281 32.9025 23.141L24.1525 29.046C23.1175 29.7448 22.5 30.906 22.5 32.1548V43.7498C22.5 45.8173 24.1825 47.4998 26.25 47.4998H27.5C28.19 47.4998 28.75 48.0598 28.75 48.7498ZM42.4213 36.1923C41.6888 36.9248 41.6888 38.1123 42.4213 38.8435C43.1538 39.5748 44.3413 39.576 45.0725 38.8435C45.805 38.111 45.805 36.9235 45.0725 36.1923C44.34 35.461 43.1525 35.4598 42.4213 36.1923ZM47.9837 43.0048C46.5237 44.4648 44.5013 45.1785 42.4675 44.9848L38.5512 48.901C37.8437 49.6085 36.9013 49.9985 35.9 49.9985H33.7625C32.3888 49.9985 31.2675 48.8823 31.2625 47.5098L31.2513 45.0248C31.25 44.521 31.4438 44.0485 31.7988 43.6923C32.1538 43.3373 32.625 43.141 33.1263 43.141H33.7388L33.7437 42.5023C33.7512 41.476 34.5925 40.641 35.6187 40.641H36.57V40.1498C35.6825 37.2623 36.74 34.196 39.2425 32.4623C41.4963 30.8985 44.5475 30.8523 46.8325 32.3448C50.4825 34.5923 51.075 40.0535 47.985 43.001L47.9837 43.0048ZM47.4738 37.6885C47.335 36.3498 46.6213 35.1973 45.4638 34.441C44.0213 33.4973 42.0925 33.531 40.665 34.5185C39.0312 35.651 38.3637 37.6735 39.0025 39.551C39.0462 39.681 39.0688 39.816 39.0688 39.9535V41.891C39.0688 42.581 38.5088 43.141 37.8188 43.141H36.2375L36.2287 44.3998C36.2237 45.086 35.665 45.641 34.9787 45.641H33.7538L33.7612 47.4985H35.8987C36.2337 47.4985 36.5475 47.3685 36.7838 47.1323L41.1425 42.7735C41.4375 42.4798 41.86 42.351 42.2688 42.431C43.7063 42.7148 45.1825 42.2685 46.2162 41.2348C47.1525 40.2985 47.6113 39.0048 47.4738 37.686V37.6885Z" fill="#AF7E3C"/>
</g>
<defs>
<clipPath id="clip0_12123_11427">
<rect width="30" height="30" fill="white" transform="translate(20 20)"/>
</clipPath>
</defs>
</svg>
