<svg width="94" height="30" viewBox="0 0 94 30" fill="none" xmlns="http://www.w3.org/2000/svg">
<path d="M12.768 24V7.2H16.368V24H12.768ZM2.184 24V7.2H5.784V24H2.184ZM3.624 17.256L3.648 13.992H14.616V17.256H3.624ZM26.1705 24.24C24.8745 24.24 23.7145 23.96 22.6905 23.4C21.6825 22.824 20.8825 22.04 20.2905 21.048C19.7145 20.056 19.4265 18.92 19.4265 17.64C19.4265 16.36 19.7145 15.232 20.2905 14.256C20.8825 13.264 21.6825 12.48 22.6905 11.904C23.7145 11.328 24.8745 11.04 26.1705 11.04C27.4505 11.04 28.5945 11.328 29.6025 11.904C30.6265 12.48 31.4265 13.264 32.0025 14.256C32.5785 15.232 32.8665 16.36 32.8665 17.64C32.8665 18.92 32.5785 20.056 32.0025 21.048C31.4265 22.04 30.6265 22.824 29.6025 23.4C28.5945 23.96 27.4505 24.24 26.1705 24.24ZM26.1705 21.264C26.7945 21.264 27.3545 21.112 27.8505 20.808C28.3465 20.488 28.7305 20.056 29.0025 19.512C29.2905 18.952 29.4345 18.328 29.4345 17.64C29.4345 16.936 29.2905 16.312 29.0025 15.768C28.7305 15.208 28.3465 14.776 27.8505 14.472C27.3545 14.152 26.7945 13.992 26.1705 13.992C25.5305 13.992 24.9625 14.152 24.4665 14.472C23.9705 14.792 23.5785 15.224 23.2905 15.768C23.0025 16.312 22.8665 16.936 22.8825 17.64C22.8665 18.328 23.0025 18.952 23.2905 19.512C23.5785 20.056 23.9705 20.488 24.4665 20.808C24.9625 21.112 25.5305 21.264 26.1705 21.264ZM35.4066 24V11.304H38.6946L38.7666 13.728L38.2626 13.824C38.4386 13.408 38.6706 13.032 38.9586 12.696C39.2466 12.36 39.5826 12.072 39.9666 11.832C40.3666 11.592 40.7826 11.408 41.2146 11.28C41.6466 11.136 42.0786 11.064 42.5106 11.064C43.1666 11.064 43.7586 11.168 44.2866 11.376C44.8146 11.584 45.2626 11.912 45.6306 12.36C45.9986 12.792 46.2866 13.368 46.4946 14.088L45.9666 14.04L46.1346 13.656C46.3426 13.272 46.6066 12.928 46.9266 12.624C47.2466 12.304 47.6066 12.032 48.0066 11.808C48.4066 11.568 48.8226 11.384 49.2546 11.256C49.6866 11.128 50.1106 11.064 50.5266 11.064C51.5186 11.064 52.3426 11.264 52.9986 11.664C53.6546 12.048 54.1426 12.632 54.4626 13.416C54.7986 14.2 54.9666 15.16 54.9666 16.296V24H51.5586V16.536C51.5586 15.96 51.4786 15.488 51.3186 15.12C51.1586 14.752 50.9266 14.48 50.6226 14.304C50.3186 14.112 49.9266 14.016 49.4466 14.016C49.0786 14.016 48.7346 14.08 48.4146 14.208C48.1106 14.32 47.8386 14.488 47.5986 14.712C47.3746 14.92 47.1986 15.168 47.0706 15.456C46.9426 15.744 46.8786 16.064 46.8786 16.416V24H43.4706V16.512C43.4706 15.984 43.3826 15.536 43.2066 15.168C43.0466 14.784 42.8146 14.496 42.5106 14.304C42.2066 14.112 41.8306 14.016 41.3826 14.016C41.0146 14.016 40.6706 14.08 40.3506 14.208C40.0466 14.32 39.7826 14.488 39.5586 14.712C39.3346 14.92 39.1506 15.168 39.0066 15.456C38.8786 15.744 38.8146 16.056 38.8146 16.392V24H35.4066Z" fill="#40916C"/>
<path d="M59.1958 24V10.416C59.1958 9.632 59.3718 8.92 59.7238 8.28C60.0758 7.64 60.5558 7.136 61.1638 6.768C61.7878 6.4 62.5158 6.216 63.3478 6.216C63.9078 6.216 64.4358 6.312 64.9318 6.504C65.4278 6.68 65.8518 6.928 66.2038 7.248L65.1958 9.744C64.9878 9.616 64.7718 9.512 64.5478 9.432C64.3398 9.336 64.1478 9.288 63.9718 9.288C63.6678 9.288 63.4118 9.344 63.2038 9.456C63.0118 9.552 62.8678 9.704 62.7718 9.912C62.6758 10.104 62.6278 10.352 62.6278 10.656V24H60.9238C60.5558 24 60.2278 24 59.9398 24C59.6518 24 59.4038 24 59.1958 24ZM57.2998 14.496V11.616H65.3638V14.496H57.2998ZM67.6678 24V6.24H71.0758V24H67.6678ZM75.9488 29.52L78.7328 22.992L78.7808 24.96L72.5888 11.304H76.4528L79.5488 18.624C79.6768 18.896 79.7968 19.216 79.9088 19.584C80.0368 19.936 80.1408 20.28 80.2208 20.616L79.6448 20.856C79.7408 20.584 79.8528 20.272 79.9808 19.92C80.1088 19.568 80.2368 19.192 80.3648 18.792L83.0288 11.304H86.9168L81.5888 24L79.4048 29.52H75.9488ZM90.2869 24.264C89.5669 24.264 89.0069 24.064 88.6069 23.664C88.2229 23.264 88.0309 22.696 88.0309 21.96C88.0309 21.288 88.2389 20.736 88.6549 20.304C89.0709 19.872 89.6149 19.656 90.2869 19.656C90.9909 19.656 91.5429 19.856 91.9429 20.256C92.3429 20.656 92.5429 21.224 92.5429 21.96C92.5429 22.632 92.3349 23.184 91.9189 23.616C91.5029 24.048 90.9589 24.264 90.2869 24.264Z" fill="#2D6A4F"/>
</svg>
