<svg width="18" height="18" viewBox="0 0 18 18" fill="none" xmlns="http://www.w3.org/2000/svg">
<g clip-path="url(#clip0_6837_4690)">
<path d="M16.5 4.29296V1.49996C16.5 1.08596 16.1647 0.749957 15.75 0.749957C15.3353 0.749957 15 1.08596 15 1.49996V3.27446L11.0977 0.641207C9.8235 -0.218293 8.1765 -0.218293 6.90225 0.641207L1.65225 4.18421C0.618 4.88246 0 6.04421 0 7.29296V14.25C0 16.3177 1.68225 18 3.75 18H6C6.41475 18 6.75 17.664 6.75 17.25V11.25C6.75 10.8367 7.086 10.5 7.5 10.5H10.5C10.914 10.5 11.25 10.8367 11.25 11.25V17.25C11.25 17.664 11.5853 18 12 18H14.25C16.3177 18 18 16.3177 18 14.25V7.29296C18 6.10721 17.442 4.99946 16.5 4.29296ZM16.5 14.25C16.5 15.4905 15.4905 16.5 14.25 16.5H12.75V11.25C12.75 10.0095 11.7405 8.99996 10.5 8.99996H7.5C6.2595 8.99996 5.25 10.0095 5.25 11.25V16.5H3.75C2.5095 16.5 1.5 15.4905 1.5 14.25V7.29296C1.5 6.54371 1.8705 5.84621 2.4915 5.42771L7.7415 1.88471C8.5065 1.36871 9.4935 1.36871 10.2578 1.88471L15.5078 5.42771C16.1288 5.84621 16.4993 6.54371 16.4993 7.29296L16.5 14.25Z" fill="#AF7E3C"/>
</g>
<defs>
<clipPath id="clip0_6837_4690">
<rect width="18" height="18" fill="white"/>
</clipPath>
</defs>
</svg>
