<svg width="18" height="19" viewBox="0 0 18 19" fill="none" xmlns="http://www.w3.org/2000/svg">
<g clip-path="url(#clip0_235_9183)">
<path d="M8.607 12.15C8.40809 12.15 8.21732 12.229 8.07667 12.3697C7.93602 12.5103 7.857 12.7011 7.857 12.9V15.15C7.857 15.7467 7.61995 16.319 7.19799 16.741C6.77603 17.1629 6.20374 17.4 5.607 17.4H3.75C3.15326 17.4 2.58097 17.1629 2.15901 16.741C1.73705 16.319 1.5 15.7467 1.5 15.15V4.64999C1.5 4.05326 1.73705 3.48096 2.15901 3.059C2.58097 2.63705 3.15326 2.39999 3.75 2.39999H5.607C6.20374 2.39999 6.77603 2.63705 7.19799 3.059C7.61995 3.48096 7.857 4.05326 7.857 4.64999V6.89999C7.857 7.09891 7.93602 7.28967 8.07667 7.43032C8.21732 7.57098 8.40809 7.64999 8.607 7.64999C8.80591 7.64999 8.99668 7.57098 9.13733 7.43032C9.27798 7.28967 9.357 7.09891 9.357 6.89999V4.64999C9.35581 3.6558 8.96034 2.70266 8.25734 1.99966C7.55433 1.29666 6.6012 0.901185 5.607 0.899994H3.75C2.7558 0.901185 1.80267 1.29666 1.09967 1.99966C0.396662 2.70266 0.00119089 3.6558 0 4.64999L0 15.15C0.00119089 16.1442 0.396662 17.0973 1.09967 17.8003C1.80267 18.5033 2.7558 18.8988 3.75 18.9H5.607C6.6012 18.8988 7.55433 18.5033 8.25734 17.8003C8.96034 17.0973 9.35581 16.1442 9.357 15.15V12.9C9.357 12.7011 9.27798 12.5103 9.13733 12.3697C8.99668 12.229 8.80591 12.15 8.607 12.15Z" fill="#003462"/>
<path d="M17.1503 8.30924L13.7108 4.86974C13.6416 4.79811 13.5588 4.74097 13.4673 4.70167C13.3758 4.66236 13.2774 4.64167 13.1778 4.64081C13.0782 4.63994 12.9795 4.65892 12.8873 4.69663C12.7951 4.73434 12.7114 4.79003 12.641 4.86045C12.5705 4.93087 12.5148 5.01461 12.4771 5.10678C12.4394 5.19895 12.4204 5.29771 12.4213 5.39729C12.4222 5.49688 12.4429 5.59529 12.4822 5.6868C12.5215 5.7783 12.5786 5.86106 12.6503 5.93024L15.8468 9.12749L4.5 9.14999C4.30109 9.14999 4.11032 9.22901 3.96967 9.36966C3.82902 9.51032 3.75 9.70108 3.75 9.89999C3.75 10.0989 3.82902 10.2897 3.96967 10.4303C4.11032 10.571 4.30109 10.65 4.5 10.65L15.891 10.6267L12.6488 13.8697C12.5771 13.9389 12.52 14.0217 12.4807 14.1132C12.4414 14.2047 12.4207 14.3031 12.4198 14.4027C12.4189 14.5023 12.4379 14.601 12.4756 14.6932C12.5133 14.7854 12.569 14.8691 12.6395 14.9395C12.7099 15.01 12.7936 15.0656 12.8858 15.1034C12.978 15.1411 13.0767 15.16 13.1763 15.1592C13.2759 15.1583 13.3743 15.1376 13.4658 15.0983C13.5573 15.059 13.6401 15.0019 13.7093 14.9302L17.1488 11.4907C17.5708 11.069 17.808 10.4969 17.8083 9.9003C17.8086 9.30368 17.5719 8.73138 17.1503 8.30924Z" fill="#003462"/>
</g>
<defs>
<clipPath id="clip0_235_9183">
<rect width="18" height="18" fill="white" transform="translate(0 0.899994)"/>
</clipPath>
</defs>
</svg>
