<svg width="16" height="16" viewBox="0 0 16 16" fill="none" xmlns="http://www.w3.org/2000/svg">
<g clip-path="url(#clip0_7859_13075)">
<path d="M14 7.33333H10.6667C9.564 7.33333 8.66667 8.23067 8.66667 9.33333V14C8.66667 15.1027 9.564 16 10.6667 16H14C15.1027 16 16 15.1027 16 14V9.33333C16 8.23067 15.1027 7.33333 14 7.33333ZM14.6667 14C14.6667 14.3673 14.368 14.6667 14 14.6667H10.6667C10.2987 14.6667 10 14.3673 10 14V9.33333C10 8.966 10.2987 8.66667 10.6667 8.66667H14C14.368 8.66667 14.6667 8.966 14.6667 9.33333V14ZM14 10.6647C14 11.0327 13.702 11.3313 13.3333 11.3313H11.3333C10.9647 11.3313 10.6667 11.0327 10.6667 10.6647C10.6667 10.2967 10.9647 9.998 11.3333 9.998H13.3333C13.702 9.998 14 10.2967 14 10.6647ZM14 12.6667C14 13.0347 13.702 13.3333 13.3333 13.3333H11.3333C10.9647 13.3333 10.6667 13.0347 10.6667 12.6667C10.6667 12.2987 10.9647 12 11.3333 12H13.3333C13.702 12 14 12.2987 14 12.6667ZM6 8C8.206 8 10 6.206 10 4C10 1.794 8.206 0 6 0C3.794 0 2 1.794 2 4C2 6.206 3.794 8 6 8ZM6 1.33333C7.47067 1.33333 8.66667 2.52933 8.66667 4C8.66667 5.47067 7.47067 6.66667 6 6.66667C4.52933 6.66667 3.33333 5.47067 3.33333 4C3.33333 2.52933 4.52933 1.33333 6 1.33333ZM7.33333 10C7.33333 10.368 7.03533 10.6667 6.66667 10.6667H6C3.42733 10.6667 1.33333 12.76 1.33333 15.3333C1.33333 15.7013 1.03533 16 0.666667 16C0.298 16 0 15.7013 0 15.3333C0 12.0253 2.69133 9.33333 6 9.33333H6.66667C7.03533 9.33333 7.33333 9.632 7.33333 10Z" fill="#003462"/>
</g>
<defs>
<clipPath id="clip0_7859_13075">
<rect width="16" height="16" fill="white"/>
</clipPath>
</defs>
</svg>
