<svg width="24" height="25" viewBox="0 0 24 25" fill="none" xmlns="http://www.w3.org/2000/svg">
<path d="M23 11.8666H1C0.447715 11.8666 0 12.3144 0 12.8666C0 13.4189 0.447715 13.8666 1 13.8666H23C23.5523 13.8666 24 13.4189 24 12.8666C24 12.3144 23.5523 11.8666 23 11.8666Z" fill="black"/>
<path d="M23 4.86664H1C0.447715 4.86664 0 5.31435 0 5.86664C0 6.41892 0.447715 6.86664 1 6.86664H23C23.5523 6.86664 24 6.41892 24 5.86664C24 5.31435 23.5523 4.86664 23 4.86664Z" fill="black"/>
<path d="M23 18.8666H1C0.447715 18.8666 0 19.3144 0 19.8666C0 20.4189 0.447715 20.8666 1 20.8666H23C23.5523 20.8666 24 20.4189 24 19.8666C24 19.3144 23.5523 18.8666 23 18.8666Z" fill="black"/>
</svg>
