<svg width="24" height="25" viewBox="0 0 24 25" fill="none" xmlns="http://www.w3.org/2000/svg">
<g clip-path="url(#clip0_957_418)">
<path d="M22.555 13.862L20.655 7.026C20.0981 5.02333 18.8877 3.26429 17.2163 2.02847C15.5449 0.792653 13.5084 0.150987 11.4304 0.205467C9.3525 0.259947 7.35239 1.00745 5.74805 2.32915C4.1437 3.65085 3.02719 5.4709 2.57598 7.5L1.10498 14.115C0.942497 14.8459 0.946254 15.604 1.11597 16.3333C1.2857 17.0626 1.61705 17.7445 2.08556 18.3286C2.55408 18.9126 3.1478 19.384 3.82289 19.708C4.49798 20.0319 5.23721 20.2 5.98598 20.2H7.09998C7.3295 21.3303 7.94271 22.3465 8.83572 23.0764C9.72874 23.8063 10.8466 24.205 12 24.205C13.1533 24.205 14.2712 23.8063 15.1642 23.0764C16.0573 22.3465 16.6705 21.3303 16.9 20.2H17.738C18.5088 20.2001 19.2692 20.0219 19.9597 19.6794C20.6503 19.337 21.2523 18.8395 21.7188 18.2259C22.1853 17.6122 22.5036 16.899 22.6488 16.142C22.794 15.385 22.7612 14.6047 22.555 13.862ZM12 22.2C11.3817 22.1974 10.7794 22.0039 10.2753 21.6459C9.77121 21.2879 9.39007 20.7829 9.18398 20.2H14.816C14.6099 20.7829 14.2288 21.2879 13.7247 21.6459C13.2206 22.0039 12.6182 22.1974 12 22.2ZM20.126 17.015C19.8473 17.3847 19.4863 17.6843 19.0716 17.89C18.6569 18.0957 18.1999 18.2018 17.737 18.2H5.98598C5.53677 18.1999 5.0933 18.099 4.68832 17.9046C4.28334 17.7102 3.92719 17.4273 3.64614 17.0769C3.3651 16.7265 3.16634 16.3174 3.06454 15.8798C2.96274 15.4423 2.9605 14.9875 3.05798 14.549L4.52798 7.933C4.88233 6.33921 5.75929 4.9096 7.01944 3.87145C8.27959 2.83329 9.85061 2.24617 11.4828 2.20341C13.1149 2.16066 14.7145 2.66472 16.0273 3.63547C17.3401 4.60622 18.2907 5.98795 18.728 7.561L20.628 14.397C20.7535 14.8424 20.7735 15.3109 20.6864 15.7653C20.5992 16.2198 20.4074 16.6477 20.126 17.015Z" fill="black"/>
</g>
<defs>
<clipPath id="clip0_957_418">
<rect width="24" height="24" fill="white" transform="translate(0 0.199999)"/>
</clipPath>
</defs>
</svg>
