<svg width="65" height="65" viewBox="0 0 65 65" fill="none" xmlns="http://www.w3.org/2000/svg">
<g clip-path="url(#clip0_12553_35280)">
<path d="M35.2084 2.70826C35.2084 1.98997 35.4938 1.30109 36.0017 0.793183C36.5096 0.285272 37.1985 -6.94124e-05 37.9168 -6.94124e-05C45.0973 0.00781616 51.9814 2.86376 57.0588 7.94116C62.1362 13.0186 64.9922 19.9027 65.0001 27.0833C65.0001 27.8015 64.7147 28.4904 64.2068 28.9983C63.6989 29.5062 63.01 29.7916 62.2917 29.7916C61.5734 29.7916 60.8846 29.5062 60.3767 28.9983C59.8688 28.4904 59.5834 27.8015 59.5834 27.0833C59.577 21.3389 57.2922 15.8316 53.2303 11.7697C49.1684 7.70785 43.6611 5.42305 37.9168 5.41659C37.1985 5.41659 36.5096 5.13125 36.0017 4.62334C35.4938 4.11543 35.2084 3.42656 35.2084 2.70826ZM37.9168 16.2499C40.7899 16.2499 43.5454 17.3913 45.5771 19.4229C47.6087 21.4546 48.7501 24.2101 48.7501 27.0833C48.7501 27.8015 49.0354 28.4904 49.5433 28.9983C50.0512 29.5062 50.7401 29.7916 51.4584 29.7916C52.1767 29.7916 52.8656 29.5062 53.3735 28.9983C53.8814 28.4904 54.1667 27.8015 54.1667 27.0833C54.1624 22.7748 52.449 18.6441 49.4025 15.5975C46.356 12.551 42.2252 10.8376 37.9168 10.8333C37.1985 10.8333 36.5096 11.1186 36.0017 11.6265C35.4938 12.1344 35.2084 12.8233 35.2084 13.5416C35.2084 14.2599 35.4938 14.9488 36.0017 15.4567C36.5096 15.9646 37.1985 16.2499 37.9168 16.2499ZM62.5436 45.3347C64.1131 46.9086 64.9945 49.0405 64.9945 51.2632C64.9945 53.4859 64.1131 55.6179 62.5436 57.1918L60.079 60.0328C37.8978 81.2689 -16.0792 27.3053 4.82908 5.05368L7.94366 2.34535C9.51928 0.819681 11.6322 -0.0243115 13.8254 -0.00403755C16.0185 0.0162364 18.1155 0.899147 19.6626 2.45368C19.7466 2.53764 24.7651 9.05659 24.7651 9.05659C26.2542 10.621 27.0832 12.6991 27.0796 14.8589C27.0761 17.0188 26.2404 19.0941 24.7461 20.6537L21.6099 24.597C23.3455 28.8142 25.8974 32.6468 29.1188 35.8748C32.3402 39.1027 36.1677 41.6622 40.3813 43.4064L44.349 40.2512C45.9088 38.7581 47.9838 37.9233 50.143 37.9203C52.3022 37.9173 54.3795 38.7462 55.9434 40.2349C55.9434 40.2349 62.4597 45.2507 62.5436 45.3347ZM58.817 49.2726C58.817 49.2726 52.3359 44.2866 52.252 44.2026C51.694 43.6494 50.9401 43.339 50.1544 43.339C49.3686 43.339 48.6147 43.6494 48.0568 44.2026C47.9836 44.2784 42.5209 48.6307 42.5209 48.6307C42.1528 48.9238 41.7147 49.1158 41.2498 49.188C40.7848 49.2602 40.3091 49.21 39.8695 49.0424C34.4107 47.01 29.4525 43.8282 25.3307 39.7124C21.2089 35.5967 18.0197 30.6432 15.9793 25.1874C15.7984 24.7418 15.7394 24.256 15.8084 23.78C15.8774 23.304 16.0719 22.855 16.372 22.4791C16.372 22.4791 20.7243 17.0137 20.7974 16.9433C21.3506 16.3853 21.661 15.6314 21.661 14.8457C21.661 14.0599 21.3506 13.306 20.7974 12.748C20.7134 12.6668 15.7274 6.18034 15.7274 6.18034C15.1611 5.67255 14.422 5.4006 13.6616 5.42024C12.9012 5.43988 12.1772 5.74962 11.6378 6.28597L8.52324 8.9943C-6.75716 27.3676 40.0184 71.5486 56.1195 56.3332L58.5867 53.4895C59.1649 52.9539 59.5122 52.2146 59.5552 51.4276C59.5981 50.6407 59.3334 49.8679 58.817 49.2726Z" fill="#003462"/>
</g>
<defs>
<clipPath id="clip0_12553_35280">
<rect width="65" height="65" fill="white"/>
</clipPath>
</defs>
</svg>
