<svg width="65" height="65" viewBox="0 0 65 65" fill="none" xmlns="http://www.w3.org/2000/svg">
<g clip-path="url(#clip0_12558_35431)">
<path fill-rule="evenodd" clip-rule="evenodd" d="M20.8929 0C22.175 0 23.2143 1.03935 23.2143 2.32143V4.64286H34.8214C36.1036 4.64286 37.1429 5.68221 37.1429 6.96429C37.1429 8.24636 36.1036 9.28571 34.8214 9.28571H23.2143V11.6071C23.2143 12.8892 22.175 13.9286 20.8929 13.9286C19.6107 13.9286 18.5714 12.8892 18.5714 11.6071V9.28571H13.9286C8.80021 9.28571 4.64286 13.4431 4.64286 18.5714V51.0714C4.64286 56.1997 8.80021 60.3571 13.9286 60.3571H27.8571C29.1393 60.3571 30.1786 61.3964 30.1786 62.6786C30.1786 63.9607 29.1393 65 27.8571 65H13.9286C6.23603 65 0 58.7639 0 51.0714V18.5714C0 10.8789 6.23603 4.64286 13.9286 4.64286H18.5714V2.32143C18.5714 1.03935 19.6107 0 20.8929 0ZM44.1071 0C45.3893 0 46.4286 1.03935 46.4286 2.32143V4.64286H51.0714C58.7639 4.64286 65 10.8789 65 18.5714V27.8571C65 29.1393 63.9607 30.1786 62.6786 30.1786C61.3964 30.1786 60.3571 29.1393 60.3571 27.8571V18.5714C60.3571 13.4431 56.1997 9.28571 51.0714 9.28571H46.4286V11.6071C46.4286 12.8892 45.3893 13.9286 44.1071 13.9286C42.825 13.9286 41.7857 12.8892 41.7857 11.6071V2.32143C41.7857 1.03935 42.825 0 44.1071 0ZM13.9286 20.8929C12.6465 20.8929 11.6071 21.9322 11.6071 23.2143C11.6071 24.4964 12.6465 25.5357 13.9286 25.5357H51.0714C52.3536 25.5357 53.3929 24.4964 53.3929 23.2143C53.3929 21.9322 52.3536 20.8929 51.0714 20.8929H13.9286ZM55.0343 48.0701L49.2308 53.8736C48.3242 54.7801 46.8543 54.7801 45.9478 53.8736L42.4657 50.3915C41.5591 49.485 41.5591 48.015 42.4657 47.1085C43.3722 46.202 44.8421 46.202 45.7486 47.1085L47.5893 48.9492L51.7514 44.7871C52.6579 43.8806 54.1278 43.8806 55.0343 44.7871C55.9409 45.6936 55.9409 47.1635 55.0343 48.0701ZM18.5714 35.9821C18.5714 37.9052 17.0124 39.4643 15.0893 39.4643C13.1661 39.4643 11.6071 37.9052 11.6071 35.9821C11.6071 34.0591 13.1661 32.5 15.0893 32.5C17.0124 32.5 18.5714 34.0591 18.5714 35.9821ZM15.0893 53.3929C17.0124 53.3929 18.5714 51.8338 18.5714 49.9107C18.5714 47.9876 17.0124 46.4286 15.0893 46.4286C13.1661 46.4286 11.6071 47.9876 11.6071 49.9107C11.6071 51.8338 13.1661 53.3929 15.0893 53.3929ZM37.1429 48.75C37.1429 42.3396 42.3396 37.1429 48.75 37.1429C55.1604 37.1429 60.3571 42.3396 60.3571 48.75C60.3571 55.1604 55.1604 60.3571 48.75 60.3571C42.3396 60.3571 37.1429 55.1604 37.1429 48.75ZM48.75 32.5C39.7754 32.5 32.5 39.7754 32.5 48.75C32.5 57.7246 39.7754 65 48.75 65C57.7246 65 65 57.7246 65 48.75C65 39.7754 57.7246 32.5 48.75 32.5Z" fill="#003462"/>
</g>
<defs>
<clipPath id="clip0_12558_35431">
<rect width="65" height="65" fill="white"/>
</clipPath>
</defs>
</svg>
