<svg width="24" height="25" viewBox="0 0 24 25" fill="none" xmlns="http://www.w3.org/2000/svg">
<g clip-path="url(#clip0_3141_16849)">
<path fill-rule="evenodd" clip-rule="evenodd" d="M7.71429 0.399902C8.18769 0.399902 8.57143 0.783662 8.57143 1.25705V2.11419H12.8571C13.3305 2.11419 13.7143 2.49795 13.7143 2.97133C13.7143 3.44471 13.3305 3.82847 12.8571 3.82847H8.57143V4.68562C8.57143 5.159 8.18769 5.54276 7.71429 5.54276C7.24089 5.54276 6.85714 5.159 6.85714 4.68562V3.82847H5.14286C3.24931 3.82847 1.71429 5.3635 1.71429 7.25705V19.257C1.71429 21.1506 3.24931 22.6856 5.14286 22.6856H10.2857C10.7591 22.6856 11.1429 23.0694 11.1429 23.5428C11.1429 24.0162 10.7591 24.3999 10.2857 24.3999H5.14286C2.30253 24.3999 0 22.0974 0 19.257V7.25705C0 4.41672 2.30253 2.11419 5.14286 2.11419H6.85714V1.25705C6.85714 0.783662 7.24089 0.399902 7.71429 0.399902ZM16.2857 0.399902C16.7591 0.399902 17.1429 0.783662 17.1429 1.25705V2.11419H18.8571C21.6975 2.11419 24 4.41672 24 7.25705V10.6856C24 11.159 23.6163 11.5428 23.1429 11.5428C22.6695 11.5428 22.2857 11.159 22.2857 10.6856V7.25705C22.2857 5.3635 20.7507 3.82847 18.8571 3.82847H17.1429V4.68562C17.1429 5.159 16.7591 5.54276 16.2857 5.54276C15.8123 5.54276 15.4286 5.159 15.4286 4.68562V1.25705C15.4286 0.783662 15.8123 0.399902 16.2857 0.399902ZM5.14286 8.11419C4.66947 8.11419 4.28571 8.49793 4.28571 8.97133C4.28571 9.44473 4.66947 9.82847 5.14286 9.82847H18.8571C19.3305 9.82847 19.7143 9.44473 19.7143 8.97133C19.7143 8.49793 19.3305 8.11419 18.8571 8.11419H5.14286ZM20.3204 18.1488L18.1775 20.2917C17.8428 20.6264 17.3001 20.6264 16.9653 20.2917L15.6796 19.006C15.3449 18.6713 15.3449 18.1285 15.6796 17.7938C16.0143 17.4591 16.5571 17.4591 16.8918 17.7938L17.5714 18.4734L19.1082 16.9367C19.4429 16.602 19.9857 16.602 20.3204 16.9367C20.6551 17.2714 20.6551 17.8141 20.3204 18.1488ZM6.85714 13.6856C6.85714 14.3957 6.28151 14.9713 5.57143 14.9713C4.86135 14.9713 4.28571 14.3957 4.28571 13.6856C4.28571 12.9756 4.86135 12.3999 5.57143 12.3999C6.28151 12.3999 6.85714 12.9756 6.85714 13.6856ZM5.57143 20.1142C6.28151 20.1142 6.85714 19.5385 6.85714 18.8285C6.85714 18.1184 6.28151 17.5428 5.57143 17.5428C4.86135 17.5428 4.28571 18.1184 4.28571 18.8285C4.28571 19.5385 4.86135 20.1142 5.57143 20.1142ZM13.7143 18.3999C13.7143 16.033 15.6331 14.1142 18 14.1142C20.3669 14.1142 22.2857 16.033 22.2857 18.3999C22.2857 20.7668 20.3669 22.6856 18 22.6856C15.6331 22.6856 13.7143 20.7668 13.7143 18.3999ZM18 12.3999C14.6863 12.3999 12 15.0862 12 18.3999C12 21.7136 14.6863 24.3999 18 24.3999C21.3137 24.3999 24 21.7136 24 18.3999C24 15.0862 21.3137 12.3999 18 12.3999Z" fill="#AF7E3C"/>
</g>
<defs>
<clipPath id="clip0_3141_16849">
<rect width="24" height="24" fill="white" transform="translate(0 0.399902)"/>
</clipPath>
</defs>
</svg>
