<svg width="24" height="24" viewBox="0 0 24 24" fill="none" xmlns="http://www.w3.org/2000/svg">
<path d="M19.134 11.5689C19.134 11.1929 18.923 10.8479 18.587 10.6769C17.727 10.2389 16.806 9.83594 15.774 9.44394C14.068 8.78994 12.825 7.52794 12.179 5.79894C11.792 4.74994 11.394 3.81594 10.963 2.94394C10.794 2.60394 10.446 2.38794 10.067 2.38794C9.68798 2.38794 9.33798 2.60394 9.17098 2.94494C8.74098 3.81394 8.34398 4.74794 7.95698 5.79494C7.31098 7.52694 6.06698 8.78894 4.36398 9.44194C3.32598 9.83694 2.40398 10.2399 1.54698 10.6769C1.21198 10.8469 1.00098 11.1919 1.00098 11.5679C1.00098 11.9439 1.21198 12.2889 1.54798 12.4599C2.40998 12.8979 3.33098 13.3019 4.36098 13.6919C6.06698 14.3459 7.30998 15.6079 7.95598 17.3379C8.34498 18.3909 8.74198 19.3229 9.17098 20.1919C9.33998 20.5329 9.68698 20.7489 10.067 20.7489C10.447 20.7489 10.795 20.5329 10.963 20.1919C11.394 19.3229 11.791 18.3889 12.177 17.3409C12.824 15.6089 14.069 14.3469 15.77 13.6939C16.804 13.3019 17.725 12.8989 18.587 12.4609C18.923 12.2899 19.134 11.9459 19.134 11.5689ZM15.057 11.8259C12.833 12.6789 11.146 14.3889 10.302 16.6459C10.224 16.8579 10.146 17.0639 10.067 17.2659C9.98798 17.0639 9.90998 16.8569 9.82998 16.6419C8.98998 14.3899 7.30298 12.6789 5.07398 11.8239C4.84998 11.7399 4.63398 11.6539 4.42198 11.5689C4.63298 11.4829 4.85198 11.3979 5.07798 11.3119C7.30298 10.4579 8.98998 8.74794 9.83098 6.49294C9.90998 6.27994 9.98898 6.07294 10.067 5.87194C10.146 6.07494 10.225 6.28294 10.304 6.49594C11.146 8.74894 12.833 10.4589 15.06 11.3129C15.284 11.3969 15.501 11.4829 15.713 11.5689C15.5 11.6549 15.281 11.7399 15.057 11.8259Z" fill="white"/>
<path d="M17.0959 6.5421C17.3509 6.6721 17.6019 6.7791 17.8489 6.8731C18.0559 6.9531 18.2009 7.1011 18.2789 7.3081C18.3709 7.5611 18.4759 7.8131 18.6029 8.0711C18.7699 8.4131 19.1179 8.63109 19.4989 8.63109H19.5009C19.8809 8.63109 20.2289 8.4151 20.3969 8.0741C20.5239 7.8171 20.6279 7.5641 20.7209 7.3131C20.8009 7.1011 20.9459 6.9531 21.1489 6.8751C21.3999 6.7801 21.6499 6.6731 21.9049 6.5431C22.2409 6.3731 22.4519 6.0271 22.4519 5.6511C22.4519 5.2751 22.2399 4.9301 21.9039 4.7601C21.6499 4.6321 21.3999 4.5251 21.1519 4.4301C20.9459 4.3511 20.8009 4.2031 20.7219 3.9931C20.6279 3.7401 20.5239 3.4871 20.3959 3.2291C20.2279 2.8891 19.8799 2.6731 19.4999 2.6731H19.4979C19.1169 2.6731 18.7699 2.8901 18.6019 3.2321C18.4759 3.4891 18.3709 3.7421 18.2799 3.9901C18.1999 4.2021 18.0549 4.3501 17.8519 4.4281C17.5999 4.5241 17.3499 4.6301 17.0949 4.7601C16.7589 4.9301 16.5479 5.2751 16.5479 5.6511C16.5479 6.0271 16.7589 6.3721 17.0949 6.5421H17.0959Z" fill="white"/>
<path d="M22.4529 17.185C22.1359 17.024 21.8229 16.89 21.5149 16.774C21.1759 16.644 20.9289 16.392 20.8019 16.05C20.6849 15.734 20.5539 15.418 20.3959 15.098C20.2269 14.757 19.8789 14.541 19.4999 14.541C19.1189 14.541 18.7709 14.758 18.6039 15.1C18.4469 15.42 18.3159 15.735 18.2019 16.045C18.0719 16.392 17.8249 16.644 17.4909 16.772C17.1789 16.89 16.8649 17.024 16.5489 17.186C16.2139 17.357 16.0029 17.701 16.0029 18.077C16.0029 18.453 16.2139 18.797 16.5489 18.968C16.8649 19.129 17.1769 19.262 17.4879 19.381C17.8249 19.51 18.0719 19.761 18.1999 20.104C18.3159 20.419 18.4469 20.735 18.6049 21.054C18.7729 21.395 19.1199 21.611 19.5009 21.612C19.8809 21.612 20.2279 21.397 20.3969 21.056C20.5559 20.736 20.6869 20.42 20.8029 20.107C20.9309 19.761 21.1779 19.51 21.5149 19.381C21.8269 19.262 22.1379 19.13 22.4539 18.969C22.7899 18.798 23.0009 18.453 23.0009 18.077C23.0009 17.701 22.7899 17.356 22.4539 17.185H22.4529Z" fill="white"/>
</svg>
