<svg width="25" height="24" viewBox="0 0 25 24" fill="none" xmlns="http://www.w3.org/2000/svg">
<g clip-path="url(#clip0_4779_7335)">
<path d="M24.5032 8.79395C24.2986 8.14285 23.89 7.57487 23.3376 7.17399C22.7853 6.77311 22.1186 6.56062 21.4362 6.56796H17.0672L15.7402 2.43195C15.5315 1.78091 15.1215 1.21297 14.5692 0.81002C14.0169 0.407071 13.3509 0.189941 12.6672 0.189941C11.9835 0.189941 11.3175 0.407071 10.7652 0.81002C10.2129 1.21297 9.80286 1.78091 9.59418 2.43195L8.26718 6.56796H3.89819C3.21793 6.56892 2.55538 6.78484 2.00516 7.18486C1.45495 7.58488 1.04523 8.14854 0.834506 8.79534C0.623787 9.44214 0.622854 10.139 0.831842 10.7863C1.04083 11.4337 1.44905 11.9985 1.99818 12.4L5.55418 15L4.20219 19.187C3.9837 19.8363 3.98093 20.539 4.19429 21.19C4.40766 21.8411 4.82573 22.4058 5.38618 22.8C5.93704 23.2067 6.60458 23.4247 7.28934 23.4212C7.9741 23.4178 8.63943 23.1932 9.18618 22.781L12.6672 20.219L16.1492 22.778C16.699 23.1824 17.363 23.4021 18.0456 23.4054C18.7281 23.4087 19.3942 23.1955 19.948 22.7965C20.5017 22.3974 20.9147 21.833 21.1275 21.1844C21.3403 20.5359 21.3419 19.8365 21.1322 19.187L19.7802 15L23.3402 12.4C23.8956 12.0035 24.3086 11.4388 24.5181 10.7893C24.7275 10.1398 24.7223 9.44021 24.5032 8.79395ZM22.1602 10.785L18.0162 13.814C17.846 13.9381 17.7193 14.1129 17.6543 14.3133C17.5893 14.5137 17.5893 14.7295 17.6542 14.93L19.2292 19.8C19.3089 20.047 19.3082 20.3129 19.2272 20.5595C19.1463 20.8061 18.9892 21.0206 18.7786 21.1723C18.568 21.324 18.3147 21.405 18.0552 21.4037C17.7957 21.4024 17.5432 21.3188 17.3342 21.165L13.2592 18.165C13.0876 18.0389 12.8801 17.9709 12.6672 17.9709C12.4542 17.9709 12.2468 18.0389 12.0752 18.165L8.00019 21.165C7.79127 21.3209 7.53812 21.4062 7.27745 21.4086C7.01678 21.4109 6.76213 21.3302 6.55041 21.1781C6.3387 21.026 6.18093 20.8104 6.09998 20.5626C6.01903 20.3148 6.0191 20.0477 6.10018 19.8L7.68018 14.93C7.7451 14.7295 7.74505 14.5137 7.68005 14.3133C7.61504 14.1129 7.4884 13.9381 7.31818 13.814L3.17419 10.785C2.96549 10.6322 2.81042 10.4173 2.73113 10.1711C2.65183 9.9249 2.65237 9.65993 2.73267 9.41405C2.81297 9.16817 2.96891 8.95396 3.17823 8.80201C3.38754 8.65005 3.63953 8.56814 3.89819 8.56796H8.99819C9.2099 8.56795 9.41615 8.50075 9.58723 8.37603C9.75832 8.25131 9.8854 8.07552 9.95018 7.87396L11.5002 3.04295C11.5797 2.79574 11.7357 2.58015 11.9456 2.4272C12.1555 2.27426 12.4085 2.19186 12.6682 2.19186C12.9279 2.19186 13.1809 2.27426 13.3908 2.4272C13.6007 2.58015 13.7566 2.79574 13.8362 3.04295L15.3862 7.87396C15.451 8.07552 15.5781 8.25131 15.7491 8.37603C15.9202 8.50075 16.1265 8.56795 16.3382 8.56796H21.4382C21.6968 8.56814 21.9488 8.65005 22.1581 8.80201C22.3675 8.95396 22.5234 9.16817 22.6037 9.41405C22.684 9.65993 22.6845 9.9249 22.6052 10.1711C22.526 10.4173 22.3709 10.6322 22.1622 10.785H22.1602Z" fill="white"/>
</g>
<defs>
<clipPath id="clip0_4779_7335">
<rect width="24" height="24" fill="white" transform="translate(0.666992)"/>
</clipPath>
</defs>
</svg>
