<svg width="80" height="81" viewBox="0 0 80 81" fill="none" xmlns="http://www.w3.org/2000/svg">
<path d="M78.2379 30.2382C80.6536 39.2702 79.7942 48.8657 75.8119 57.3247C71.8297 65.7836 64.9818 72.5599 56.4814 76.453C47.9811 80.346 38.377 81.1045 29.371 78.594C20.3649 76.0835 12.5382 70.4661 7.27755 62.737C2.01691 55.008 -0.338026 45.6664 0.629966 36.3672C1.59796 27.068 5.82639 18.4116 12.5661 11.9317C19.3058 5.45188 28.1216 1.56688 37.4517 0.965061C46.7817 0.36324 56.0236 3.08345 63.54 8.64375L59.7635 13.7487C53.453 9.08041 45.6937 6.79658 37.8604 7.30186C30.0271 7.80713 22.6256 11.0689 16.9671 16.5092C11.3086 21.9495 7.75851 29.2172 6.9458 37.0246C6.1331 44.832 8.11025 52.675 12.527 59.1641C16.9437 65.6532 23.5148 70.3695 31.076 72.4772C38.6373 74.585 46.7006 73.9482 53.8373 70.6797C60.974 67.4112 66.7234 61.722 70.0668 54.62C73.4101 47.5181 74.1317 39.4619 72.1036 31.8789L78.2379 30.2382Z" fill="#1CAC75"/>
<path d="M56.9111 30.5349L35.5986 51.5349L25.9111 41.9895" stroke="#1CAC75" stroke-width="6" stroke-linecap="round" stroke-linejoin="round"/>
</svg>
