<svg width="18" height="19" viewBox="0 0 18 19" fill="none" xmlns="http://www.w3.org/2000/svg">
<g clip-path="url(#clip0_1413_2684)">
<path d="M9 9.9C9.89002 9.9 10.76 9.63608 11.5001 9.14161C12.2401 8.64714 12.8169 7.94434 13.1575 7.12207C13.4981 6.2998 13.5872 5.395 13.4135 4.52209C13.2399 3.64918 12.8113 2.84735 12.182 2.21802C11.5526 1.58868 10.7508 1.1601 9.87791 0.986462C9.00499 0.812829 8.10019 0.901944 7.27792 1.24254C6.45566 1.58313 5.75285 2.15991 5.25839 2.89993C4.76392 3.63995 4.5 4.50998 4.5 5.4C4.50119 6.5931 4.97568 7.73701 5.81934 8.58066C6.66299 9.42432 7.80689 9.8988 9 9.9ZM9 2.4C9.59334 2.4 10.1734 2.57594 10.6667 2.90559C11.1601 3.23523 11.5446 3.70377 11.7716 4.25195C11.9987 4.80012 12.0581 5.40332 11.9424 5.98527C11.8266 6.56721 11.5409 7.10176 11.1213 7.52132C10.7018 7.94087 10.1672 8.2266 9.58527 8.34235C9.00333 8.45811 8.40013 8.3987 7.85195 8.17163C7.30377 7.94457 6.83524 7.56005 6.50559 7.06671C6.17595 6.57336 6 5.99334 6 5.4C6 4.60435 6.31607 3.84128 6.87868 3.27868C7.44129 2.71607 8.20435 2.4 9 2.4Z" fill="#AF7E3C"/>
<path d="M9 11.4C7.2104 11.402 5.49466 12.1138 4.22922 13.3792C2.96378 14.6447 2.25199 16.3604 2.25 18.15C2.25 18.3489 2.32902 18.5397 2.46967 18.6803C2.61032 18.821 2.80109 18.9 3 18.9C3.19891 18.9 3.38968 18.821 3.53033 18.6803C3.67098 18.5397 3.75 18.3489 3.75 18.15C3.75 16.7576 4.30312 15.4222 5.28769 14.4377C6.27226 13.4531 7.60761 12.9 9 12.9C10.3924 12.9 11.7277 13.4531 12.7123 14.4377C13.6969 15.4222 14.25 16.7576 14.25 18.15C14.25 18.3489 14.329 18.5397 14.4697 18.6803C14.6103 18.821 14.8011 18.9 15 18.9C15.1989 18.9 15.3897 18.821 15.5303 18.6803C15.671 18.5397 15.75 18.3489 15.75 18.15C15.748 16.3604 15.0362 14.6447 13.7708 13.3792C12.5053 12.1138 10.7896 11.402 9 11.4Z" fill="#AF7E3C"/>
</g>
<defs>
<clipPath id="clip0_1413_2684">
<rect width="18" height="18" fill="white" transform="(0 0.899994)"/>
</clipPath>
</defs>
</svg>
