<svg width="18" height="19" viewBox="0 0 18 19" fill="none" xmlns="http://www.w3.org/2000/svg">
<path d="M14.25 1.90002H3.75C1.68225 1.90002 0 3.58227 0 5.65002V16.15C0 16.5648 0.336 16.9 0.75 16.9C1.164 16.9 1.5 16.5648 1.5 16.15V14.65H16.5V16.15C16.5 16.5648 16.8353 16.9 17.25 16.9C17.6647 16.9 18 16.5648 18 16.15V5.65002C18 3.58227 16.3177 1.90002 14.25 1.90002ZM3.75 3.40002H14.25C15.4905 3.40002 16.5 4.40952 16.5 5.65002V10.15H15C15 8.49552 13.6545 7.15002 12 7.15002H11.25C10.3545 7.15002 9.5505 7.54452 9 8.16777C8.4495 7.54377 7.6455 7.15002 6.75 7.15002H6C4.3455 7.15002 3 8.49552 3 10.15H1.5V5.65002C1.5 4.40952 2.5095 3.40002 3.75 3.40002ZM9.75 10.15C9.75 9.32277 10.4227 8.65002 11.25 8.65002H12C12.8273 8.65002 13.5 9.32277 13.5 10.15H9.75ZM4.5 10.15C4.5 9.32277 5.17275 8.65002 6 8.65002H6.75C7.57725 8.65002 8.25 9.32277 8.25 10.15H4.5ZM1.5 13.15V11.65H16.5V13.15H1.5Z" fill="#AF7E3C"/>
</svg>
