<svg width="18" height="19" viewBox="0 0 18 19" fill="none" xmlns="http://www.w3.org/2000/svg">
<g clip-path="url(#clip0_1235_1296)">
<path d="M14.25 11.65H13.5C13.0852 11.65 12.75 11.3148 12.75 10.9C12.75 10.4853 13.0852 10.15 13.5 10.15H14.25C14.6648 10.15 15 10.4853 15 10.9C15 11.3148 14.6648 11.65 14.25 11.65ZM15 13.9C15 13.4853 14.6648 13.15 14.25 13.15H13.5C13.0852 13.15 12.75 13.4853 12.75 13.9C12.75 14.3148 13.0852 14.65 13.5 14.65H14.25C14.6648 14.65 15 14.3148 15 13.9ZM12 4.90002C12 4.48527 11.6648 4.15002 11.25 4.15002H10.5C10.0852 4.15002 9.75 4.48527 9.75 4.90002C9.75 5.31477 10.0852 5.65002 10.5 5.65002H11.25C11.6648 5.65002 12 5.31477 12 4.90002ZM15 4.90002C15 4.48527 14.6648 4.15002 14.25 4.15002H13.5C13.0852 4.15002 12.75 4.48527 12.75 4.90002C12.75 5.31477 13.0852 5.65002 13.5 5.65002H14.25C14.6648 5.65002 15 5.31477 15 4.90002ZM15 7.90002C15 7.48527 14.6648 7.15002 14.25 7.15002H13.5C13.0852 7.15002 12.75 7.48527 12.75 7.90002C12.75 8.31477 13.0852 8.65002 13.5 8.65002H14.25C14.6648 8.65002 15 8.31477 15 7.90002ZM18 14.65V4.15002C18 2.08227 16.3177 0.400024 14.25 0.400024H10.5C8.43225 0.400024 6.75 2.08227 6.75 4.15002C6.75 4.56477 7.08525 4.90002 7.5 4.90002C7.91475 4.90002 8.25 4.56477 8.25 4.15002C8.25 2.90952 9.2595 1.90002 10.5 1.90002H14.25C15.4905 1.90002 16.5 2.90952 16.5 4.15002V14.65C16.5 15.8905 15.4905 16.9 14.25 16.9H13.5C13.0852 16.9 12.75 17.2353 12.75 17.65C12.75 18.0648 13.0852 18.4 13.5 18.4H14.25C16.3177 18.4 18 16.7178 18 14.65ZM12 15.025V11.911C12 10.75 11.4757 9.67452 10.5608 8.95752L8.31075 7.19577C6.95025 6.13227 5.04975 6.13152 3.68925 7.19577L1.43925 8.95677C0.52425 9.67303 0 10.7493 0 11.9103V15.0243C0 16.885 1.51425 18.3993 3.375 18.3993H8.625C10.4858 18.3993 12 16.8858 12 15.025ZM7.38675 8.37777L9.63675 10.1388C10.185 10.5685 10.5 11.215 10.5 11.911V15.025C10.5 16.0593 9.65925 16.9 8.625 16.9H3.375C2.34075 16.9 1.5 16.0593 1.5 15.025V11.911C1.5 11.2143 1.815 10.5685 2.36325 10.1388L4.61325 8.37852C5.02125 8.05902 5.51025 7.89927 6 7.89927C6.48975 7.89927 6.97875 8.05902 7.38675 8.37777ZM7.5 13.9V12.4C7.5 11.986 7.164 11.65 6.75 11.65H5.25C4.836 11.65 4.5 11.986 4.5 12.4V13.9C4.5 14.314 4.836 14.65 5.25 14.65H6.75C7.164 14.65 7.5 14.314 7.5 13.9Z" fill="#AF7E3C"/>
</g>
<defs>
<clipPath id="clip0_1235_1296">
<rect width="18" height="18" fill="white" transform="translate(0 0.400024)"/>
</clipPath>
</defs>
</svg>
