<svg width="18" height="19" viewBox="0 0 18 19" fill="none" xmlns="http://www.w3.org/2000/svg">
<path d="M17.25 12.9H2.01078L2.02128 12.8888L3.70428 11.175C3.77792 11.1058 3.83682 11.0225 3.87745 10.93C3.91807 10.8375 3.93959 10.7377 3.9407 10.6367C3.94181 10.5356 3.9225 10.4354 3.88391 10.342C3.84533 10.2486 3.78828 10.164 3.71617 10.0932C3.64407 10.0224 3.55841 9.96696 3.46433 9.9301C3.37025 9.89324 3.2697 9.87577 3.1687 9.87874C3.0677 9.88171 2.96835 9.90506 2.8766 9.94738C2.78485 9.9897 2.70259 10.0501 2.63478 10.125L0.955526 11.8328C0.833276 11.955 0.662276 12.1425 0.487526 12.3398C0.173712 12.6946 0.000488281 13.152 0.000488281 13.6257C0.000488281 14.0994 0.173712 14.5567 0.487526 14.9115C0.662276 15.108 0.833276 15.2955 0.951026 15.414L2.63478 17.127C2.77593 17.2596 2.9629 17.3325 3.15656 17.3304C3.35021 17.3282 3.53554 17.2513 3.67374 17.1156C3.81193 16.9799 3.89229 16.796 3.89798 16.6025C3.90368 16.4089 3.83426 16.2206 3.70428 16.077L2.05803 14.4H17.25C17.4489 14.4 17.6397 14.321 17.7804 14.1804C17.921 14.0397 18 13.8489 18 13.65C18 13.4511 17.921 13.2604 17.7804 13.1197C17.6397 12.979 17.4489 12.9 17.25 12.9Z" fill="#003462"/>
<path d="M0.75 6.90002H15.9412L14.2958 8.57477C14.2221 8.64395 14.1632 8.7273 14.1226 8.81982C14.082 8.91233 14.0604 9.0121 14.0593 9.11313C14.0582 9.21417 14.0775 9.31439 14.1161 9.40777C14.1547 9.50115 14.2118 9.58578 14.2839 9.65657C14.356 9.72735 14.4416 9.78284 14.5357 9.8197C14.6298 9.85656 14.7303 9.87403 14.8313 9.87106C14.9323 9.86809 15.0317 9.84474 15.1234 9.80242C15.2152 9.76009 15.2974 9.69967 15.3652 9.62477L17.0445 7.91552C17.1667 7.79327 17.3377 7.60577 17.5125 7.40927C17.8263 7.05443 17.9995 6.59709 17.9995 6.12339C17.9995 5.6497 17.8263 5.19235 17.5125 4.83752C17.3377 4.64027 17.1667 4.45277 17.049 4.33502L15.3652 2.62502C15.2241 2.49241 15.0371 2.41955 14.8435 2.42168C14.6498 2.42381 14.4645 2.50077 14.3263 2.63644C14.1881 2.77212 14.1077 2.956 14.102 3.14959C14.0964 3.34317 14.1658 3.53145 14.2958 3.67502L15.984 5.39252L15.99 5.40002H0.75C0.551088 5.40002 0.360322 5.47903 0.21967 5.61969C0.0790176 5.76034 0 5.9511 0 6.15002C0 6.34893 0.0790176 6.53969 0.21967 6.68035C0.360322 6.821 0.551088 6.90002 0.75 6.90002Z" fill="#003462"/>
</svg>
