<svg width="18" height="19" viewBox="0 0 18 19" fill="none" xmlns="http://www.w3.org/2000/svg">
<g clip-path="url(#clip0_1235_1320)">
<path d="M5.25 17.65C5.25 18.064 4.914 18.4 4.5 18.4H3.75C1.68225 18.4 0 16.7178 0 14.65V7.69304C0 6.44429 0.618 5.28254 1.65225 4.58429L6.90225 1.04129C8.1765 0.181792 9.8235 0.181792 11.097 1.04129L16.347 4.58429C16.5833 4.74404 16.8022 4.93079 16.9958 5.13929C17.2778 5.44304 17.2605 5.91704 16.9567 6.19904C16.653 6.48029 16.179 6.46379 15.897 6.16004C15.7807 6.03479 15.6503 5.92379 15.5077 5.82779L10.2585 2.28479C9.49425 1.76879 8.5065 1.76879 7.7415 2.28479L2.4915 5.82779C1.8705 6.24704 1.5 6.94379 1.5 7.69304V14.65C1.5 15.8905 2.5095 16.9 3.75 16.9H4.5C4.914 16.9 5.25 17.236 5.25 17.65ZM13.4528 10.1155C13.0133 10.555 13.0133 11.2675 13.4528 11.7063C13.8923 12.145 14.6048 12.1458 15.0435 11.7063C15.483 11.2668 15.483 10.5543 15.0435 10.1155C14.604 9.67679 13.8915 9.67604 13.4528 10.1155ZM16.7902 14.203C15.9142 15.079 14.7008 15.5073 13.4805 15.391L11.1307 17.7408C10.7062 18.1653 10.1407 18.3993 9.54 18.3993H8.2575C7.43325 18.3993 6.7605 17.7295 6.7575 16.906L6.75075 15.415C6.75 15.1128 6.86625 14.8293 7.07925 14.6155C7.29225 14.4025 7.575 14.2848 7.87575 14.2848H8.24325L8.24625 13.9015C8.25075 13.2858 8.7555 12.7848 9.37125 12.7848H9.942V12.49C9.4095 10.7575 10.044 8.91779 11.5455 7.87754C12.8977 6.93929 14.7285 6.91154 16.0995 7.80704C18.2895 9.15554 18.645 12.4323 16.791 14.2008L16.7902 14.203ZM16.4842 11.0133C16.401 10.21 15.9728 9.51854 15.2782 9.06479C14.4128 8.49854 13.2555 8.51879 12.399 9.11129C11.4187 9.79079 11.0182 11.0043 11.4015 12.1308C11.4277 12.2088 11.4412 12.2898 11.4412 12.3723V13.5348C11.4412 13.9488 11.1053 14.2848 10.6912 14.2848H9.7425L9.73725 15.04C9.73425 15.4518 9.399 15.7848 8.98725 15.7848H8.25225L8.25675 16.8993H9.53925C9.74025 16.8993 9.9285 16.8213 10.0702 16.6795L12.6855 14.0643C12.8625 13.888 13.116 13.8108 13.3612 13.8588C14.2238 14.029 15.1095 13.7613 15.7297 13.141C16.2915 12.5793 16.5667 11.803 16.4842 11.0118V11.0133Z" fill="#AF7E3C"/>
</g>
<defs>
<clipPath id="clip0_1235_1320">
<rect width="18" height="18" fill="white" transform="translate(0 0.400024)"/>
</clipPath>
</defs>
</svg>
