<svg width="18" height="19" viewBox="0 0 18 19" fill="none" xmlns="http://www.w3.org/2000/svg">
<g clip-path="url(#clip0_1235_1300)">
<path d="M9 4.90002C8.40666 4.90002 7.82664 5.07597 7.33329 5.40562C6.83994 5.73526 6.45543 6.2038 6.22836 6.75197C6.0013 7.30015 5.94189 7.90335 6.05765 8.4853C6.1734 9.06724 6.45912 9.60179 6.87868 10.0213C7.29824 10.4409 7.83279 10.7266 8.41473 10.8424C8.99667 10.9581 9.59987 10.8987 10.1481 10.6717C10.6962 10.4446 11.1648 10.0601 11.4944 9.56674C11.8241 9.07339 12 8.49337 12 7.90002C12 7.10438 11.6839 6.34131 11.1213 5.7787C10.5587 5.21609 9.79565 4.90002 9 4.90002ZM9 9.40002C8.70333 9.40002 8.41332 9.31205 8.16665 9.14723C7.91997 8.98241 7.72771 8.74814 7.61418 8.47405C7.50065 8.19996 7.47095 7.89836 7.52882 7.60739C7.5867 7.31642 7.72956 7.04914 7.93934 6.83936C8.14912 6.62959 8.41639 6.48672 8.70737 6.42885C8.99834 6.37097 9.29994 6.40067 9.57403 6.51421C9.84812 6.62774 10.0824 6.82 10.2472 7.06667C10.412 7.31334 10.5 7.60335 10.5 7.90002C10.5 8.29785 10.342 8.67938 10.0607 8.96068C9.77936 9.24199 9.39783 9.40002 9 9.40002Z" fill="#AF7E3C"/>
<path d="M8.99999 18.4C8.36845 18.4032 7.74532 18.2551 7.18279 17.968C6.62026 17.681 6.13469 17.2633 5.76674 16.75C2.90849 12.8073 1.45874 9.84325 1.45874 7.93975C1.45874 5.93969 2.25326 4.02154 3.66752 2.60728C5.08178 1.19302 6.99993 0.398499 8.99999 0.398499C11.0001 0.398499 12.9182 1.19302 14.3325 2.60728C15.7467 4.02154 16.5412 5.93969 16.5412 7.93975C16.5412 9.84325 15.0915 12.8073 12.2332 16.75C11.8653 17.2633 11.3797 17.681 10.8172 17.968C10.2547 18.2551 9.63153 18.4032 8.99999 18.4ZM8.99999 2.03575C7.4343 2.03754 5.93325 2.66029 4.82614 3.7674C3.71904 4.87451 3.09628 6.37556 3.09449 7.94125C3.09449 9.44875 4.51424 12.2365 7.09124 15.7908C7.31001 16.0921 7.59702 16.3373 7.92878 16.5065C8.26053 16.6756 8.62762 16.7637 8.99999 16.7637C9.37236 16.7637 9.73945 16.6756 10.0712 16.5065C10.403 16.3373 10.69 16.0921 10.9087 15.7908C13.4857 12.2365 14.9055 9.44875 14.9055 7.94125C14.9037 6.37556 14.2809 4.87451 13.1738 3.7674C12.0667 2.66029 10.5657 2.03754 8.99999 2.03575Z" fill="#AF7E3C"/>
</g>
<defs>
<clipPath id="clip0_1235_1300">
<rect width="18" height="18" fill="white" transform="translate(0 0.400024)"/>
</clipPath>
</defs>
</svg>
