<svg width="18" height="19" viewBox="0 0 18 19" fill="none" xmlns="http://www.w3.org/2000/svg">
<g clip-path="url(#clip0_1235_1316)">
<path d="M17.118 13.2843L5.11575 1.28277C4.242 0.409019 2.9895 0.158519 1.85025 0.633269C0.70875 1.10502 0 2.16552 0 3.40152V14.6448C0 16.7155 1.6845 18.4 3.75525 18.4H14.9985C16.233 18.4 17.2942 17.6913 17.7667 16.5498C18.2392 15.4083 17.991 14.158 17.118 13.2843ZM16.3822 15.9768C16.1422 16.555 15.6255 16.9 14.9992 16.9H3.75525C2.51175 16.9 1.5 15.8883 1.5 14.6448V3.40152C1.5 2.77527 1.845 2.25852 2.424 2.01852C2.61975 1.93752 2.8185 1.89777 3.01425 1.89777C3.396 1.89777 3.76275 2.05002 4.05525 2.34327L5.2635 3.55152L3.8325 4.98252C3.53925 5.27577 3.53925 5.74977 3.8325 6.04302C3.97875 6.18927 4.17075 6.26277 4.36275 6.26277C4.55475 6.26277 4.74675 6.18927 4.893 6.04302L6.324 4.61202L7.4235 5.71152L5.9925 7.14252C5.69925 7.43577 5.69925 7.90977 5.9925 8.20302C6.13875 8.34927 6.33075 8.42277 6.52275 8.42277C6.71475 8.42277 6.90675 8.34927 7.053 8.20302L8.484 6.77202L9.54525 7.83252L8.11425 9.26352C7.821 9.55677 7.821 10.0308 8.11425 10.324C8.2605 10.4703 8.4525 10.5438 8.6445 10.5438C8.8365 10.5438 9.0285 10.4703 9.17475 10.324L10.6057 8.89302L11.6662 9.95352L10.2352 11.3845C9.942 11.6778 9.942 12.1518 10.2352 12.445C10.3815 12.5913 10.5735 12.6648 10.7655 12.6648C10.9575 12.6648 11.1495 12.5913 11.2957 12.445L12.7267 11.014L13.7872 12.0745L12.3562 13.5055C12.063 13.7988 12.063 14.2728 12.3562 14.566C12.5025 14.7123 12.6945 14.7858 12.8865 14.7858C13.0785 14.7858 13.2705 14.7123 13.4167 14.566L14.8477 13.135L16.056 14.3433C16.4985 14.7865 16.62 15.3963 16.3807 15.9753L16.3822 15.9768ZM8.031 12.6198C8.2455 12.8343 8.31 13.1568 8.19375 13.4373C8.0775 13.7178 7.80375 13.9 7.50075 13.9H5.25075C4.83675 13.9 4.50075 13.5648 4.50075 13.15V10.9C4.50075 10.597 4.68375 10.3225 4.9635 10.207C5.244 10.09 5.5665 10.1553 5.781 10.3698L8.031 12.6198Z" fill="#AF7E3C"/>
</g>
<defs>
<clipPath id="clip0_1235_1316">
<rect width="18" height="18" fill="white" transform="translate(0 0.400024)"/>
</clipPath>
</defs>
</svg>
