<svg width="25" height="25" viewBox="0 0 25 25" fill="none" xmlns="http://www.w3.org/2000/svg">
<path d="M20.5 16.2398C20.5 17.0678 19.828 17.7398 19 17.7398C18.172 17.7398 17.5 17.0678 17.5 16.2398C17.5 15.4118 18.172 14.7398 19 14.7398C19.828 14.7398 20.5 15.4118 20.5 16.2398ZM23.5 8.23983C22.947 8.23983 22.5 8.68783 22.5 9.23983V21.2398C22.5 21.7908 22.052 22.2398 21.5 22.2398H5.5C3.846 22.2398 2.5 20.8938 2.5 19.2398V9.23983V9.23483C3.354 9.87483 4.403 10.2398 5.499 10.2398H15.499C16.052 10.2398 16.499 9.79183 16.499 9.23983C16.499 8.68783 16.052 8.23983 15.499 8.23983H5.5C4.644 8.23983 3.847 7.85883 3.283 7.23583C3.832 6.62883 4.618 6.23983 5.5 6.23983H12.5C13.053 6.23983 13.5 5.79183 13.5 5.23983C13.5 4.68783 13.053 4.23983 12.5 4.23983H5.5C2.5 4.23983 0.5 6.73983 0.5 9.23983V19.2398C0.5 21.9968 2.743 24.2398 5.5 24.2398H21.5C23.154 24.2398 24.5 22.8938 24.5 21.2398V9.23983C24.5 8.68783 24.053 8.23983 23.5 8.23983ZM17.203 4.45083L18.5 3.16983V9.23983C18.5 9.79183 18.947 10.2398 19.5 10.2398C20.053 10.2398 20.5 9.79183 20.5 9.23983V3.18783L21.803 4.45583C21.997 4.64483 22.248 4.73983 22.5 4.73983C22.761 4.73983 23.021 4.63883 23.217 4.43783C23.602 4.04183 23.594 3.40883 23.197 3.02383L20.97 0.855831C20.149 0.0368306 18.818 0.0378306 18 0.851831L15.796 3.02883C15.403 3.41683 15.4 4.04983 15.787 4.44283C16.177 4.83683 16.808 4.83883 17.202 4.45183L17.203 4.45083Z" fill="#003462"/>
</svg>
