<svg width="72" height="72" viewBox="0 0 72 72" fill="none" xmlns="http://www.w3.org/2000/svg">
<g clip-path="url(#clip0_81_4725)">
<path d="M47.8752 34.5924L32.9247 23.7245C32.376 23.3267 31.6476 23.2668 31.0463 23.5759C30.4401 23.8826 30.0615 24.5055 30.0615 25.1788V46.9075C30.0615 47.5879 30.4401 48.2084 31.0463 48.5151C31.3026 48.6445 31.5829 48.7092 31.8657 48.7092C32.2346 48.7092 32.6084 48.5918 32.9247 48.3594L47.8752 37.501C48.3472 37.1536 48.6228 36.617 48.6228 36.0467C48.6252 35.4669 48.3424 34.9326 47.8752 34.5924Z" fill="white"/>
<path d="M36.0012 0.00476074C16.115 0.00476074 0 16.1198 0 36.006C0 55.885 16.115 71.9952 36.0012 71.9952C55.8826 71.9952 72 55.8826 72 36.006C72.0024 16.1198 55.8826 0.00476074 36.0012 0.00476074ZM36.0012 65.9886C19.4406 65.9886 6.01378 52.569 6.01378 36.006C6.01378 19.4501 19.4406 6.01374 36.0012 6.01374C52.5594 6.01374 65.9838 19.4477 65.9838 36.006C65.9862 52.569 52.5594 65.9886 36.0012 65.9886Z" fill="white"/>
</g>
<defs>
<clipPath id="clip0_81_4725">
<rect width="72" height="72" fill="white"/>
</clipPath>
</defs>
</svg>
