<svg width="24" height="25" viewBox="0 0 24 25" fill="none" xmlns="http://www.w3.org/2000/svg">
<path d="M22.705 21.653L18.306 17.279C19.487 15.718 20.116 13.6 20.165 10.95C20.06 4.85501 16.658 1.47701 10.577 1.43701C4.423 1.47601 1 5.04901 1 10.949C1 17.144 4.426 20.461 10.589 20.497C13.218 20.481 15.328 19.871 16.892 18.692L21.295 23.071C21.813 23.563 22.426 23.362 22.709 23.067C23.092 22.669 23.097 22.042 22.705 21.653ZM3 10.967C3.097 5.93201 5.579 3.46801 10.576 3.43701C15.525 3.46901 18.079 6.00801 18.165 10.949C18.071 16.069 15.66 18.467 10.589 18.497C5.512 18.467 3.1 16.075 3 10.967Z" fill="white"/>
</svg>
