<svg width="24" height="25" viewBox="0 0 24 25" fill="none" xmlns="http://www.w3.org/2000/svg">
<g clip-path="url(#clip0_1663_5386)">
<path d="M10 23.4C10 23.953 9.553 24.4 9 24.4H5C2.243 24.4 0 22.157 0 19.4V5.40002C0 2.64302 2.243 0.400024 5 0.400024H11C13.757 0.400024 16 2.64302 16 5.40002V9.40002C16 9.95302 15.553 10.4 15 10.4C14.447 10.4 14 9.95302 14 9.40002V5.40002C14 3.74602 12.654 2.40002 11 2.40002H5C3.346 2.40002 2 3.74602 2 5.40002V19.4C2 21.054 3.346 22.4 5 22.4H9C9.553 22.4 10 22.847 10 23.4ZM6 13.4H5C4.447 13.4 4 13.847 4 14.4C4 14.953 4.447 15.4 5 15.4H6C6.553 15.4 7 14.953 7 14.4C7 13.847 6.553 13.4 6 13.4ZM11 13.4H10C9.447 13.4 9 13.847 9 14.4C9 14.953 9.447 15.4 10 15.4H11C11.553 15.4 12 14.953 12 14.4C12 13.847 11.553 13.4 11 13.4ZM6 17.4H5C4.447 17.4 4 17.847 4 18.4C4 18.953 4.447 19.4 5 19.4H6C6.553 19.4 7 18.953 7 18.4C7 17.847 6.553 17.4 6 17.4ZM6 5.40002H5C4.447 5.40002 4 5.84702 4 6.40002C4 6.95302 4.447 7.40002 5 7.40002H6C6.553 7.40002 7 6.95302 7 6.40002C7 5.84702 6.553 5.40002 6 5.40002ZM11 5.40002H10C9.447 5.40002 9 5.84702 9 6.40002C9 6.95302 9.447 7.40002 10 7.40002H11C11.553 7.40002 12 6.95302 12 6.40002C12 5.84702 11.553 5.40002 11 5.40002ZM6 9.40002H5C4.447 9.40002 4 9.84702 4 10.4C4 10.953 4.447 11.4 5 11.4H6C6.553 11.4 7 10.953 7 10.4C7 9.84702 6.553 9.40002 6 9.40002ZM11 9.40002H10C9.447 9.40002 9 9.84702 9 10.4C9 10.953 9.447 11.4 10 11.4H11C11.553 11.4 12 10.953 12 10.4C12 9.84702 11.553 9.40002 11 9.40002ZM24 17.9V20.9C24 22.83 22.43 24.4 20.5 24.4H15.5C13.57 24.4 12 22.83 12 20.9V17.9C12 16.142 13.308 14.696 15 14.451V14.4C15 13.297 15.897 12.4 17 12.4H19C20.103 12.4 21 13.297 21 14.4V14.451C22.692 14.696 24 16.142 24 17.9ZM14 17.9V18.4H22V17.9C22 17.073 21.327 16.4 20.5 16.4H15.5C14.673 16.4 14 17.073 14 17.9ZM22 20.9V20.4H19C19 20.953 18.553 21.4 18 21.4C17.447 21.4 17 20.953 17 20.4H14V20.9C14 21.727 14.673 22.4 15.5 22.4H20.5C21.327 22.4 22 21.727 22 20.9Z" fill="#003462"/>
</g>
<defs>
<clipPath id="clip0_1663_5386">
<rect width="24" height="24" fill="white" transform="translate(0 0.400024)"/>
</clipPath>
</defs>
</svg>
