<svg width="25" height="25" viewBox="0 0 25 25" fill="none" xmlns="http://www.w3.org/2000/svg">
<g clip-path="url(#clip0_1663_4942)">
<path d="M20.667 4.40002H15.667C15.667 3.33916 15.2456 2.32174 14.4954 1.5716C13.7453 0.821452 12.7279 0.400024 11.667 0.400024L4.66699 0.400024C3.60613 0.400024 2.58871 0.821452 1.83857 1.5716C1.08842 2.32174 0.666992 3.33916 0.666992 4.40002L0.666992 23.4C0.666992 23.6652 0.772349 23.9196 0.959885 24.1071C1.14742 24.2947 1.40178 24.4 1.66699 24.4C1.93221 24.4 2.18656 24.2947 2.3741 24.1071C2.56164 23.9196 2.66699 23.6652 2.66699 23.4V13.4H10.667C10.667 14.4609 11.0884 15.4783 11.8386 16.2285C12.5887 16.9786 13.6061 17.4 14.667 17.4H20.667C21.7279 17.4 22.7453 16.9786 23.4954 16.2285C24.2456 15.4783 24.667 14.4609 24.667 13.4V8.40002C24.667 7.33916 24.2456 6.32174 23.4954 5.5716C22.7453 4.82145 21.7279 4.40002 20.667 4.40002ZM2.66699 11.4V4.40002C2.66699 3.86959 2.87771 3.36088 3.25278 2.98581C3.62785 2.61074 4.13656 2.40002 4.66699 2.40002H11.667C12.1974 2.40002 12.7061 2.61074 13.0812 2.98581C13.4563 3.36088 13.667 3.86959 13.667 4.40002V9.40002C13.667 9.93046 13.4563 10.4392 13.0812 10.8142C12.7061 11.1893 12.1974 11.4 11.667 11.4H2.66699ZM22.667 13.4C22.667 13.9305 22.4563 14.4392 22.0812 14.8142C21.7061 15.1893 21.1974 15.4 20.667 15.4H14.667C14.1366 15.4 13.6279 15.1893 13.2528 14.8142C12.8777 14.4392 12.667 13.9305 12.667 13.4V13.258C13.5231 13.037 14.2819 12.5385 14.8247 11.8405C15.3675 11.1424 15.6637 10.2842 15.667 9.40002V6.40002H20.667C21.1974 6.40002 21.7061 6.61074 22.0812 6.98581C22.4563 7.36088 22.667 7.86959 22.667 8.40002V13.4Z" fill="#003462"/>
</g>
<defs>
<clipPath id="clip0_1663_4942">
<rect width="24" height="24" fill="white" transform="translate(0.666992 0.400024)"/>
</clipPath>
</defs>
</svg>
