<svg width="25" height="25" viewBox="0 0 25 25" fill="none" xmlns="http://www.w3.org/2000/svg">
<g clip-path="url(#clip0_1663_4221)">
<path d="M0.333984 7.40002V5.40002C0.333984 2.64302 2.57698 0.400024 5.33398 0.400024H7.33398C7.88598 0.400024 8.33398 0.848024 8.33398 1.40002C8.33398 1.95202 7.88598 2.40002 7.33398 2.40002H5.33398C3.67998 2.40002 2.33398 3.74602 2.33398 5.40002V7.40002C2.33398 7.95202 1.88598 8.40002 1.33398 8.40002C0.781984 8.40002 0.333984 7.95202 0.333984 7.40002ZM12.334 10.4C11.229 10.4 10.334 11.295 10.334 12.4C10.334 13.505 11.229 14.4 12.334 14.4C13.439 14.4 14.334 13.505 14.334 12.4C14.334 11.295 13.439 10.4 12.334 10.4ZM7.33398 22.4H5.33398C3.67998 22.4 2.33398 21.054 2.33398 19.4V17.4C2.33398 16.848 1.88598 16.4 1.33398 16.4C0.781984 16.4 0.333984 16.848 0.333984 17.4V19.4C0.333984 22.157 2.57698 24.4 5.33398 24.4H7.33398C7.88598 24.4 8.33398 23.952 8.33398 23.4C8.33398 22.848 7.88598 22.4 7.33398 22.4ZM19.334 0.400024H17.334C16.782 0.400024 16.334 0.848024 16.334 1.40002C16.334 1.95202 16.782 2.40002 17.334 2.40002H19.334C20.988 2.40002 22.334 3.74602 22.334 5.40002V7.40002C22.334 7.95202 22.782 8.40002 23.334 8.40002C23.886 8.40002 24.334 7.95202 24.334 7.40002V5.40002C24.334 2.64302 22.091 0.400024 19.334 0.400024ZM12.334 18.4C7.75698 18.4 4.81298 14.379 4.27498 13.303C3.98798 12.73 3.98798 12.073 4.27498 11.498C4.81198 10.421 7.75498 6.40002 12.334 6.40002C16.913 6.40002 19.856 10.421 20.393 11.498C20.678 12.07 20.678 12.727 20.393 13.3C19.855 14.378 16.912 18.399 12.333 18.399L12.334 18.4ZM18.604 12.392C18.276 11.735 15.868 8.40002 12.334 8.40002C8.79998 8.40002 6.39198 11.735 6.06398 12.392C6.39198 13.066 8.80098 16.4 12.334 16.4C15.867 16.4 18.276 13.048 18.604 12.392ZM23.334 16.4C22.782 16.4 22.334 16.848 22.334 17.4V19.4C22.334 21.054 20.988 22.4 19.334 22.4H17.334C16.782 22.4 16.334 22.848 16.334 23.4C16.334 23.952 16.782 24.4 17.334 24.4H19.334C22.091 24.4 24.334 22.157 24.334 19.4V17.4C24.334 16.848 23.886 16.4 23.334 16.4Z" fill="#003462"/>
</g>
<defs>
<clipPath id="clip0_1663_4221">
<rect width="24" height="24" fill="white" transform="translate(0.333984 0.400024)"/>
</clipPath>
</defs>
</svg>
