<svg width="44" height="45" viewBox="0 0 44 45" fill="none" xmlns="http://www.w3.org/2000/svg">
<path d="M0 10.4C0 4.87718 4.47715 0.400024 10 0.400024H34C39.5228 0.400024 44 4.87718 44 10.4V34.4C44 39.9229 39.5228 44.4 34 44.4H10C4.47715 44.4 0 39.9229 0 34.4V10.4Z" fill="#003462"/>
<g clip-path="url(#clip0_1735_8198)">
<path d="M29 10.4H20C17.243 10.4 15 12.643 15 15.4V16.4H14.5C12.019 16.4 10 18.419 10 20.9V30.9C10 32.829 11.569 34.399 13.499 34.4H29C31.757 34.4 34 32.157 34 29.4V15.4C34 12.643 31.757 10.4 29 10.4ZM15 30.9C15 31.727 14.327 32.4 13.5 32.4C12.673 32.4 12 31.727 12 30.9V20.9C12 19.522 13.122 18.4 14.5 18.4H15V30.9ZM32 29.4C32 31.054 30.654 32.4 29 32.4H16.662C16.878 31.945 17 31.437 17 30.9V15.4C17 13.746 18.346 12.4 20 12.4H29C30.654 12.4 32 13.746 32 15.4V29.4ZM30 17.4C30 17.952 29.552 18.4 29 18.4H26C25.448 18.4 25 17.952 25 17.4C25 16.848 25.448 16.4 26 16.4H29C29.552 16.4 30 16.848 30 17.4ZM30 21.4C30 21.952 29.552 22.4 29 22.4H20C19.448 22.4 19 21.952 19 21.4C19 20.848 19.448 20.4 20 20.4H29C29.552 20.4 30 20.848 30 21.4ZM30 25.4C30 25.952 29.552 26.4 29 26.4H20C19.448 26.4 19 25.952 19 25.4C19 24.848 19.448 24.4 20 24.4H29C29.552 24.4 30 24.848 30 25.4ZM30 29.4C30 29.952 29.552 30.4 29 30.4H20C19.448 30.4 19 29.952 19 29.4C19 28.848 19.448 28.4 20 28.4H29C29.552 28.4 30 28.848 30 29.4ZM19 17.4V15.4C19 14.848 19.448 14.4 20 14.4H22C22.552 14.4 23 14.848 23 15.4V17.4C23 17.952 22.552 18.4 22 18.4H20C19.448 18.4 19 17.952 19 17.4Z" fill="white"/>
</g>
<defs>
<clipPath id="clip0_1735_8198">
<rect width="24" height="24" fill="white" transform="translate(10 10.4)"/>
</clipPath>
</defs>
</svg>
