<svg width="44" height="45" viewBox="0 0 44 45" fill="none" xmlns="http://www.w3.org/2000/svg">
<path d="M0 10.4C0 4.87718 4.47715 0.400024 10 0.400024H34C39.5228 0.400024 44 4.87718 44 10.4V34.4C44 39.9229 39.5228 44.4 34 44.4H10C4.47715 44.4 0 39.9229 0 34.4V10.4Z" fill="#003462"/>
<g clip-path="url(#clip0_1735_8025)">
<path d="M27 20.439C23.141 20.439 20 23.579 20 27.439C20 31.277 23.141 34.4 27 34.4C30.859 34.4 34 31.26 34 27.4C34 23.562 30.859 20.439 27 20.439ZM27 32.4C24.243 32.4 22 30.174 22 27.439C22 24.682 24.243 22.439 27 22.439C29.757 22.439 32 24.665 32 27.4C32 30.157 29.757 32.4 27 32.4ZM28.707 27.693C29.098 28.084 29.098 28.716 28.707 29.107C28.512 29.302 28.256 29.4 28 29.4C27.744 29.4 27.488 29.302 27.293 29.107L26.293 28.107C26.105 27.919 26 27.665 26 27.4V25.4C26 24.848 26.447 24.4 27 24.4C27.553 24.4 28 24.848 28 25.4V26.986L28.707 27.693ZM34 17.4V19.4C34 19.952 33.553 20.4 33 20.4C32.447 20.4 32 19.952 32 19.4V17.4C32 15.746 30.654 14.4 29 14.4H15C13.346 14.4 12 15.746 12 17.4V18.4H21C21.552 18.4 22 18.848 22 19.4C22 19.952 21.552 20.4 21 20.4H12V29.4C12 31.054 13.346 32.4 15 32.4H19C19.552 32.4 20 32.848 20 33.4C20 33.952 19.552 34.4 19 34.4H15C12.243 34.4 10 32.157 10 29.4V17.4C10 14.643 12.243 12.4 15 12.4H16V11.4C16 10.848 16.448 10.4 17 10.4C17.552 10.4 18 10.848 18 11.4V12.4H26V11.4C26 10.848 26.447 10.4 27 10.4C27.553 10.4 28 10.848 28 11.4V12.4H29C31.757 12.4 34 14.643 34 17.4Z" fill="white"/>
</g>
<defs>
<clipPath id="clip0_1735_8025">
<rect width="24" height="24" fill="white" transform="translate(10 10.4)"/>
</clipPath>
</defs>
</svg>
